<svg width="688" height="388" version="1.1" xmlns="http://www.w3.org/2000/svg" desc="Created with imagetracer.js version 1.2.4" ><path fill="rgb(253,253,252)" stroke="rgb(253,253,252)" stroke-width="1" opacity="1" d="M 331.5 32 Q 335.3 31 334 34 L 330 34.5 L 332 38.5 L 327.5 41 L 328.5 39 L 330 38.5 L 328 37.5 L 331.5 32 Z " /><path fill="rgb(253,253,252)" stroke="rgb(253,253,252)" stroke-width="1" opacity="1" d="M 335.5 32 L 336 34.5 L 335 34.5 L 335.5 32 Z " /><path fill="rgb(253,253,252)" stroke="rgb(253,253,252)" stroke-width="1" opacity="1" d="M 338.5 32 L 340.5 32 L 342 32.5 L 340 33.5 L 340.5 35 L 339 34.5 Q 339.7 37.1 337 36 L 338.5 32 Z " /><path fill="rgb(253,253,252)" stroke="rgb(253,253,252)" stroke-width="1" opacity="1" d="M 345.5 32 L 349.5 35 L 350 33 L 353 33.5 L 351 34.5 L 354.5 37 Q 355.8 34.8 357 37.5 L 354 38.5 L 354.5 40 L 353.5 37 L 351.5 38 L 345.5 32 Z " /><path fill="rgb(253,253,252)" stroke="rgb(253,253,252)" stroke-width="1" opacity="1" d="M 355.5 33 Q 359.5 32.5 360 35.5 L 359.5 38 L 358.5 35 Q 354.7 34.7 355.5 33 Z " /><path fill="rgb(253,253,252)" stroke="rgb(253,253,252)" stroke-width="1" opacity="1" d="M 333.5 36 Q 335.8 35.3 335 37.5 L 333 38.5 L 333.5 36 Z " /><path fill="rgb(253,253,252)" stroke="rgb(253,253,252)" stroke-width="1" opacity="1" d="M 356.5 39 L 359 39.5 Q 356.9 42.8 356.5 39 Z " /><path fill="rgb(253,253,252)" stroke="rgb(253,253,252)" stroke-width="1" opacity="1" d="M 318.5 40 L 321.5 42 L 323.5 41 L 327 42.5 L 325 42.5 L 324.5 44 L 323.5 42 L 321.5 46 L 321.5 44 L 316 46 Q 317.3 49 313.5 48 L 312.5 46 L 318 44.5 L 315 43.5 L 321 42.5 L 317 41.5 L 318.5 40 Z " /><path fill="rgb(253,253,252)" stroke="rgb(253,253,252)" stroke-width="1" opacity="1" d="M 360.5 40 L 359.5 42 L 360.5 40 Z " /><path fill="rgb(253,253,252)" stroke="rgb(253,253,252)" stroke-width="1" opacity="1" d="M 363.5 40 L 366 44 L 362 41.5 L 363.5 40 Z " /><path fill="rgb(253,253,252)" stroke="rgb(253,253,252)" stroke-width="1" opacity="1" d="M 313.5 42 L 314 43.5 L 312 44.5 L 313.5 42 Z " /><path fill="rgb(253,253,252)" stroke="rgb(253,253,252)" stroke-width="1" opacity="1" d="M 304.5 48 L 307 49 L 306.5 51 L 305 50.5 L 304.5 52 L 304 50.5 L 304.5 48 Z " /><path fill="rgb(253,253,252)" stroke="rgb(253,253,252)" stroke-width="1" opacity="1" d="M 310.5 48 L 309.5 50 L 310.5 48 Z " /><path fill="rgb(253,253,252)" stroke="rgb(253,253,252)" stroke-width="1" opacity="1" d="M 370.5 48 L 372.5 49 L 378 48 Q 376.9 50.7 379.5 50 L 381 49.5 L 378.5 51 Q 377.3 48.8 376 51.5 L 379 52 L 378.5 54 L 370.5 49 L 370.5 48 Z " /><path fill="rgb(253,253,252)" stroke="rgb(253,253,252)" stroke-width="1" opacity="1" d="M 382.5 48 Q 384.8 47.3 384 49.5 L 382.5 48 Z " /><path fill="rgb(253,253,252)" stroke="rgb(253,253,252)" stroke-width="1" opacity="1" d="M 304.5 53 L 305.5 55 L 304.5 53 Z " /><path fill="rgb(253,253,252)" stroke="rgb(253,253,252)" stroke-width="1" opacity="1" d="M 380 53 L 382.5 54 L 384 53.5 L 380 55 L 380 53 Z " /><path fill="rgb(253,253,252)" stroke="rgb(253,253,252)" stroke-width="1" opacity="1" d="M 288 56 L 291.5 57 L 293.5 56 L 293.5 57 L 292 57.5 L 292.5 59 L 289 57 L 288.5 59 L 288 56 Z " /><path fill="rgb(253,253,252)" stroke="rgb(253,253,252)" stroke-width="1" opacity="1" d="M 295.5 56 L 298.5 57 L 302.5 56 L 302.5 57 L 299 57 L 299 59 Q 295.3 57.5 296 60.5 L 294 60.5 L 292.5 63 L 290.5 64 L 290.5 62 Q 287.9 62.7 289 60 L 291 60 Q 289.9 62.7 292.5 62 L 292.5 60 L 295.5 58 L 295.5 56 Z " /><path fill="rgb(253,253,252)" stroke="rgb(253,253,252)" stroke-width="1" opacity="1" d="M 385.5 56 L 390.5 58 L 392 57.5 Q 391.3 59.8 393.5 59 L 395.5 60 L 398 59 L 397 63 L 395 62.5 L 395.5 61 L 393.5 60 L 392.5 62 L 390.5 59 L 389 59.5 L 389.5 58 L 387.5 59 L 387.5 57 Q 384.5 57.5 385.5 56 Z " /><path fill="rgb(253,253,252)" stroke="rgb(253,253,252)" stroke-width="1" opacity="1" d="M 394 56 Q 397.7 54.5 397 57.5 L 394 57.5 L 394 56 Z " /><path fill="rgb(253,253,252)" stroke="rgb(253,253,252)" stroke-width="1" opacity="1" d="M 399.5 61 L 398.5 63 L 399.5 61 Z " /><path fill="rgb(253,253,252)" stroke="rgb(253,253,252)" stroke-width="1" opacity="1" d="M 274.5 64 L 278.5 65 L 280.5 64 L 280.5 65 Q 278.3 64.3 279 66.5 L 280.5 66 L 282 66.5 L 280 67.5 L 282 68.5 L 279.5 70 L 276 69 L 277 71.5 L 274.5 72 L 273 71.5 L 274 69 L 279 67.5 L 274 66 L 274.5 64 Z " /><path fill="rgb(253,253,252)" stroke="rgb(253,253,252)" stroke-width="1" opacity="1" d="M 283.5 64 L 285 66.5 L 283 67.5 L 283 65.5 L 283.5 64 Z " /><path fill="rgb(253,253,252)" stroke="rgb(253,253,252)" stroke-width="1" opacity="1" d="M 399.5 64 L 402 65.5 L 400.5 65 L 399.5 64 Z " /><path fill="rgb(253,253,252)" stroke="rgb(253,253,252)" stroke-width="1" opacity="1" d="M 408.5 64 L 408.5 66 L 410 66.5 L 408 67 Q 406.5 70.7 409.5 70 L 412.5 66 L 415.5 68 L 415 69.5 L 417 72.5 L 415.5 72 Q 413.3 72.8 414 70.5 L 411 69 L 412 72.5 L 409.5 71 L 403 68 L 403.5 66 L 406.5 68 L 407.5 66 L 405 65.5 L 408.5 64 Z " /><path fill="rgb(253,253,252)" stroke="rgb(253,253,252)" stroke-width="1" opacity="1" d="M 258.5 72 L 257.5 74 L 256 73.5 L 258.5 72 Z " /><path fill="rgb(253,253,252)" stroke="rgb(253,253,252)" stroke-width="1" opacity="1" d="M 266.5 72 L 268.5 73 L 271 72 L 267.5 77 L 265.5 77 L 264 77.5 L 264.5 79 L 260.5 81 L 259 78.5 L 260.5 79 L 262 78.5 L 261 76 L 269 74.5 L 266.5 73 L 264 74.5 Q 263.3 72.3 265.5 73 L 266.5 72 Z " /><path fill="rgb(253,253,252)" stroke="rgb(253,253,252)" stroke-width="1" opacity="1" d="M 421.5 72 L 424 73 Q 425.1 75.7 422.5 75 L 422.5 76 L 424 76.5 L 422 77.5 L 421.5 76 L 420 76.5 L 420.5 75 L 418.5 74 L 418 75.5 L 418.5 77 L 417 74.5 L 421.5 72 Z " /><path fill="rgb(253,253,252)" stroke="rgb(253,253,252)" stroke-width="1" opacity="1" d="M 257 75 L 259 75.5 L 257 76.5 L 257 75 Z " /><path fill="rgb(253,253,252)" stroke="rgb(253,253,252)" stroke-width="1" opacity="1" d="M 248.5 80 L 251.5 81 L 254.5 80 L 254.5 81 L 253 81.5 L 255 82.5 L 250.5 85 L 251 83.5 Q 251.7 80.5 248 82 L 248.5 80 Z " /><path fill="rgb(253,253,252)" stroke="rgb(253,253,252)" stroke-width="1" opacity="1" d="M 256.5 80 L 258 82.5 L 256 81.5 L 256.5 80 Z " /><path fill="rgb(253,253,252)" stroke="rgb(253,253,252)" stroke-width="1" opacity="1" d="M 427 80 L 432 81.5 L 430 82.5 L 430.5 84 L 427 82 L 427 80 Z " /><path fill="rgb(253,253,252)" stroke="rgb(253,253,252)" stroke-width="1" opacity="1" d="M 434 80 L 438 80.5 L 436 81.5 L 438.5 82 L 440 81.5 L 436 83 L 434.5 86 L 434 84 L 432 83.5 L 434 80 Z " /><path fill="rgb(253,253,252)" stroke="rgb(253,253,252)" stroke-width="1" opacity="1" d="M 439.5 85 L 439.5 88 L 437 87.5 Q 436.3 85.3 438.5 86 L 439.5 85 Z " /><path fill="rgb(253,253,252)" stroke="rgb(253,253,252)" stroke-width="1" opacity="1" d="M 232.5 88 Q 235.5 89.5 232.5 91 L 232.5 88 Z " /><path fill="rgb(253,253,252)" stroke="rgb(253,253,252)" stroke-width="1" opacity="1" d="M 235.5 88 L 240.5 89 L 244.5 88 L 247 88.5 L 244 89.5 L 243.5 91 L 241 89.5 L 240.5 91 L 237.5 89 L 237 90.5 L 239 93.5 L 238 93.5 L 237.5 92 L 236.5 95 L 235.5 93 L 234 93.5 L 235.5 88 Z " /><path fill="rgb(253,253,252)" stroke="rgb(253,253,252)" stroke-width="1" opacity="1" d="M 445.5 88 L 446 90 L 448 89.5 L 447.5 88 Q 449.8 87.3 449 89.5 L 449.5 91 L 448 90.5 L 447.5 92 L 445.5 91 Q 444.3 93.3 443 90.5 L 445.5 88 Z " /><path fill="rgb(253,253,252)" stroke="rgb(253,253,252)" stroke-width="1" opacity="1" d="M 453.5 89 L 456 89.5 L 451 92.5 Q 451.9 95.5 447.5 94 L 447.5 93 L 453.5 89 Z " /><path fill="rgb(253,253,252)" stroke="rgb(253,253,252)" stroke-width="1" opacity="1" d="M 232.5 92 L 233 94.5 L 232 94.5 L 232.5 92 Z " /><path fill="rgb(253,253,252)" stroke="rgb(253,253,252)" stroke-width="1" opacity="1" d="M 455.5 92 L 456 94.5 L 453.5 97 L 452.5 95 L 451 95.5 L 455.5 92 Z " /><path fill="rgb(253,253,252)" stroke="rgb(253,253,252)" stroke-width="1" opacity="1" d="M 223.5 96 L 224 98 L 222 97.5 L 223.5 96 Z " /><path fill="rgb(253,253,252)" stroke="rgb(253,253,252)" stroke-width="1" opacity="1" d="M 459.5 96 L 460.5 98 L 462.5 98 L 464 98.5 L 462.5 101 L 459 97.5 L 459.5 96 Z " /><path fill="rgb(253,253,252)" stroke="rgb(253,253,252)" stroke-width="1" opacity="1" d="M 466.5 96 L 469 97 Q 470.1 100.3 466 99 L 466.5 96 Z " /><path fill="rgb(253,253,252)" stroke="rgb(253,253,252)" stroke-width="1" opacity="1" d="M 225 97 L 228 98.5 Q 228.8 101.1 225.5 100 L 219.5 103 L 219 101.5 L 219.5 100 L 216.5 102 L 218.5 99 L 225 100 L 225 97 Z " /><path fill="rgb(253,253,252)" stroke="rgb(253,253,252)" stroke-width="1" opacity="1" d="M 456.5 97 L 457.5 99 L 456.5 97 Z " /><path fill="rgb(253,253,252)" stroke="rgb(253,253,252)" stroke-width="1" opacity="1" d="M 356.5 98 L 357.5 100 Q 354.7 100.7 356.5 98 Z " /><path fill="rgb(253,253,252)" stroke="rgb(253,253,252)" stroke-width="1" opacity="1" d="M 353.5 99 L 354 103.5 L 353 103.5 L 353.5 99 Z " /><path fill="rgb(253,253,252)" stroke="rgb(253,253,252)" stroke-width="1" opacity="1" d="M 360.5 100 L 361 103 L 355 101.5 L 356.5 101 L 360 102 L 360.5 100 Z " /><path fill="rgb(253,253,252)" stroke="rgb(253,253,252)" stroke-width="1" opacity="1" d="M 349.5 101 L 347.5 104 L 349.5 101 Z " /><path fill="rgb(253,253,252)" stroke="rgb(253,253,252)" stroke-width="1" opacity="1" d="M 466.5 101 L 468 101.5 L 466 102 L 465.5 104 L 463 102.5 L 466.5 101 Z " /><path fill="rgb(253,253,252)" stroke="rgb(253,253,252)" stroke-width="1" opacity="1" d="M 469.5 102 L 471 106.5 L 470 106.5 Q 470.8 104.3 468.5 105 L 469 103.5 L 469.5 102 Z " /><path fill="rgb(253,253,252)" stroke="rgb(253,253,252)" stroke-width="1" opacity="1" d="M 216.5 103 L 216.5 105 L 218 105.5 L 215.5 107 L 215 104.5 L 216.5 103 Z " /><path fill="rgb(253,253,252)" stroke="rgb(253,253,252)" stroke-width="1" opacity="1" d="M 343.5 104 L 343 105.5 L 344 107.5 L 342 108.5 Q 341.3 104.8 343.5 104 Z " /><path fill="rgb(253,253,252)" stroke="rgb(253,253,252)" stroke-width="1" opacity="1" d="M 475.5 104 L 478 105.5 Q 477.3 102.9 480 104 L 479.5 107 L 477.5 107 L 475.5 104 Z " /><path fill="rgb(253,253,252)" stroke="rgb(253,253,252)" stroke-width="1" opacity="1" d="M 369.5 105 L 371 107.5 Q 367.9 109.3 369.5 111 Q 366.5 111.7 368 108 L 370 107.5 L 369.5 105 Z " /><path fill="rgb(253,253,252)" stroke="rgb(253,253,252)" stroke-width="1" opacity="1" d="M 210.5 106 L 214 107.5 L 212 108.5 Q 212.7 105.9 210 107 L 211 109.5 L 209 109.5 L 208.5 111 L 208 108.5 L 210.5 106 Z " /><path fill="rgb(253,253,252)" stroke="rgb(253,253,252)" stroke-width="1" opacity="1" d="M 372.5 107 L 374.5 111 L 376.5 110 L 377 112 Q 380.8 110.5 380 113.5 L 383.5 115 L 385.5 115 L 390 118.5 L 387.5 117 Q 384.9 116.3 386 119 L 388 119.5 L 386.5 120 L 376 113.5 L 376.5 112 Q 371.8 112.8 371 109.5 L 372.5 107 Z " /><path fill="rgb(253,253,252)" stroke="rgb(253,253,252)" stroke-width="1" opacity="1" d="M 336.5 108 L 342.5 111 L 344 110.5 L 341.5 112 L 338.5 110 L 338.5 112 Q 333.3 113.3 332 110.5 L 333.5 111 Q 337.9 112.5 337 109.5 L 336.5 108 Z " /><path fill="rgb(253,253,252)" stroke="rgb(253,253,252)" stroke-width="1" opacity="1" d="M 475.5 108 Q 480.9 106.1 480 109.5 Q 478.8 112.3 477.5 110 L 475.5 108 Z " /><path fill="rgb(253,253,252)" stroke="rgb(253,253,252)" stroke-width="1" opacity="1" d="M 329.5 112 L 330 114 L 333 114.5 L 330.5 115 L 328 114 L 326.5 118 L 323 115.5 L 325.5 114 L 326.5 116 L 329.5 112 Z " /><path fill="rgb(253,253,252)" stroke="rgb(253,253,252)" stroke-width="1" opacity="1" d="M 381.5 112 L 382.5 114 L 381.5 112 Z " /><path fill="rgb(253,253,252)" stroke="rgb(253,253,252)" stroke-width="1" opacity="1" d="M 376.5 116 L 378.5 116 L 381 118.5 L 379 119 L 378.5 117 Q 376.7 119.5 376.5 116 Z " /><path fill="rgb(253,253,252)" stroke="rgb(253,253,252)" stroke-width="1" opacity="1" d="M 320.5 117 L 321 118.5 L 318 120 L 318.5 118 L 320 118.5 L 320.5 117 Z " /><path fill="rgb(253,253,252)" stroke="rgb(253,253,252)" stroke-width="1" opacity="1" d="M 331.5 117 L 333 117.5 L 330 119.5 L 331.5 117 Z " /><path fill="rgb(253,253,252)" stroke="rgb(253,253,252)" stroke-width="1" opacity="1" d="M 391.5 119 L 394 119.5 L 391.5 120 L 391.5 119 Z " /><path fill="rgb(253,253,252)" stroke="rgb(253,253,252)" stroke-width="1" opacity="1" d="M 344.5 120 Q 349 119 350 121.5 L 348.5 122 L 344.5 121 L 344.5 120 Z " /><path fill="rgb(253,253,252)" stroke="rgb(253,253,252)" stroke-width="1" opacity="1" d="M 356.5 120 L 358 120.5 L 357 122.5 L 357.5 125 L 359.5 124 L 359.5 127 L 356 124.5 L 356.5 123 Q 354.3 123.8 355 121.5 L 356.5 120 Z " /><path fill="rgb(253,253,252)" stroke="rgb(253,253,252)" stroke-width="1" opacity="1" d="M 313.5 121 L 315.5 121 L 317 121.5 L 314 123.5 L 313.5 122 L 312.5 124 L 310 123.5 L 313.5 121 Z " /><path fill="rgb(253,253,252)" stroke="rgb(253,253,252)" stroke-width="1" opacity="1" d="M 392.5 121 L 393 124.5 L 392 124.5 L 392.5 121 Z " /><path fill="rgb(253,253,252)" stroke="rgb(253,253,252)" stroke-width="1" opacity="1" d="M 397.5 121 Q 400.5 122.5 397.5 124 L 397.5 121 Z " /><path fill="rgb(253,253,252)" stroke="rgb(253,253,252)" stroke-width="1" opacity="1" d="M 351.5 122 L 354 123.5 L 352.5 126 L 348.5 129 L 349 127.5 Q 348.3 125.3 350.5 126 L 353 125 Q 354.1 122.3 351.5 123 L 351.5 122 Z " /><path fill="rgb(253,253,252)" stroke="rgb(253,253,252)" stroke-width="1" opacity="1" d="M 308.5 124 L 311 128 L 307.5 127 Q 306.3 129.3 305 126.5 L 307 126.5 L 308.5 124 Z " /><path fill="rgb(253,253,252)" stroke="rgb(253,253,252)" stroke-width="1" opacity="1" d="M 399.5 124 Q 402.8 122.9 402 125.5 L 404 125.5 Q 403.3 128.8 398.5 128 L 398.5 127 L 401 125.5 L 399.5 125 L 395.5 126 L 395.5 125 L 399.5 124 Z " /><path fill="rgb(253,253,252)" stroke="rgb(253,253,252)" stroke-width="1" opacity="1" d="M 316.5 125 L 320 126.5 L 317.5 127 L 316.5 125 Z " /><path fill="rgb(253,253,252)" stroke="rgb(253,253,252)" stroke-width="1" opacity="1" d="M 344 125 L 346 125.5 L 344 126.5 L 344 125 Z " /><path fill="rgb(253,253,252)" stroke="rgb(253,253,252)" stroke-width="1" opacity="1" d="M 312 126 L 315 126.5 L 312.5 128 L 312 126 Z " /><path fill="rgb(253,253,252)" stroke="rgb(253,253,252)" stroke-width="1" opacity="1" d="M 405.5 126 L 406.5 128 L 404 127.5 L 405.5 126 Z " /><path fill="rgb(253,253,252)" stroke="rgb(253,253,252)" stroke-width="1" opacity="1" d="M 302.5 127 L 304 129.5 L 302 130.5 L 303 128.5 L 301 128.5 L 302.5 127 Z " /><path fill="rgb(253,253,252)" stroke="rgb(253,253,252)" stroke-width="1" opacity="1" d="M 340.5 128 L 343.5 129 L 345.5 128 L 346.5 130 L 344.5 129 L 343.5 132 L 339.5 134 L 341.5 131 L 344 130.5 L 341.5 129 L 338.5 131 L 340.5 128 Z " /><path fill="rgb(253,253,252)" stroke="rgb(253,253,252)" stroke-width="1" opacity="1" d="M 362.5 128 L 368.5 130 L 371 129 Q 369.5 132.8 372.5 132 L 376 130 L 375.5 133 L 373.5 132 L 375 134.5 L 374.5 136 L 372.5 133 Q 371.3 135.3 370 132.5 Q 370.8 130.3 368.5 131 Q 367 133.5 365.5 130 Q 361.7 129.8 362.5 128 Z " /><path fill="rgb(253,253,252)" stroke="rgb(253,253,252)" stroke-width="1" opacity="1" d="M 408.5 128 Q 411.5 129.5 408.5 131 L 408.5 128 Z " /><path fill="rgb(253,253,252)" stroke="rgb(253,253,252)" stroke-width="1" opacity="1" d="M 412.5 130 L 413.5 133 L 416.5 134 L 416.5 132 L 418 134.5 Q 416.8 137.3 415.5 135 L 410 132.5 Q 409.3 130.3 411.5 131 L 412.5 130 Z " /><path fill="rgb(253,253,252)" stroke="rgb(253,253,252)" stroke-width="1" opacity="1" d="M 297.5 131 L 298 133 L 301.5 132 L 303 135 L 301 134.5 L 301.5 133 L 298.5 134 L 296.5 133 L 297.5 135 L 299 135.5 L 296 136 L 295.5 134 L 293.5 134 L 288.5 136 L 288.5 135 L 297.5 131 Z " /><path fill="rgb(253,253,252)" stroke="rgb(253,253,252)" stroke-width="1" opacity="1" d="M 336.5 132 Q 339.3 133.3 337 134.5 L 336.5 136 L 336 134.5 L 336.5 132 Z " /><path fill="rgb(253,253,252)" stroke="rgb(253,253,252)" stroke-width="1" opacity="1" d="M 419.5 134 L 420.5 136 L 419.5 134 Z " /><path fill="rgb(253,253,252)" stroke="rgb(253,253,252)" stroke-width="1" opacity="1" d="M 286.5 136 Q 289.5 137.5 286.5 139 L 285 139.5 L 288 140.5 L 286.5 144 L 285 143.5 L 287 142.5 L 284.5 141 L 281.5 143 L 282.5 141 L 284 140.5 L 283 138 Q 286.8 139.3 286.5 136 Z " /><path fill="rgb(253,253,252)" stroke="rgb(253,253,252)" stroke-width="1" opacity="1" d="M 323.5 136 L 325.5 137 L 327.5 136 L 327.5 137 L 324.5 138 L 323.5 136 Z " /><path fill="rgb(253,253,252)" stroke="rgb(253,253,252)" stroke-width="1" opacity="1" d="M 333.5 136 L 332.5 138 L 333.5 136 Z " /><path fill="rgb(253,253,252)" stroke="rgb(253,253,252)" stroke-width="1" opacity="1" d="M 377.5 136 L 382 137 L 381.5 140 L 377.5 136 Z " /><path fill="rgb(253,253,252)" stroke="rgb(253,253,252)" stroke-width="1" opacity="1" d="M 387.5 136 L 388 138 L 386 137.5 L 387.5 136 Z " /><path fill="rgb(253,253,252)" stroke="rgb(253,253,252)" stroke-width="1" opacity="1" d="M 422.5 136 L 425 137.5 Q 426.3 141.3 422.5 140 L 420 141 L 421.5 138 L 424 139 Q 425.1 136.3 422.5 137 L 422.5 136 Z " /><path fill="rgb(253,253,252)" stroke="rgb(253,253,252)" stroke-width="1" opacity="1" d="M 328.5 138 L 329 139.5 L 327 140.5 L 328.5 138 Z " /><path fill="rgb(253,253,252)" stroke="rgb(253,253,252)" stroke-width="1" opacity="1" d="M 322.5 139 L 323 141.5 L 321.5 144 L 320 140 L 322.5 139 Z " /><path fill="rgb(253,253,252)" stroke="rgb(253,253,252)" stroke-width="1" opacity="1" d="M 385 139 L 388 139.5 L 384.5 142 L 383.5 140 L 385 140.5 L 385 139 Z " /><path fill="rgb(253,253,252)" stroke="rgb(253,253,252)" stroke-width="1" opacity="1" d="M 389.5 140 L 391 140.5 L 389 141 L 388.5 143 L 386 142.5 L 389.5 140 Z " /><path fill="rgb(253,253,252)" stroke="rgb(253,253,252)" stroke-width="1" opacity="1" d="M 426.5 140 L 425.5 142 L 426.5 140 Z " /><path fill="rgb(253,253,252)" stroke="rgb(253,253,252)" stroke-width="1" opacity="1" d="M 278.5 141 L 279.5 143 L 277.5 143 L 276 142.5 L 278.5 141 Z " /><path fill="rgb(253,253,252)" stroke="rgb(253,253,252)" stroke-width="1" opacity="1" d="M 417.5 142 Q 420.1 141.3 419 144 L 416.5 145 L 416 143.5 L 417.5 142 Z " /><path fill="rgb(253,253,252)" stroke="rgb(253,253,252)" stroke-width="1" opacity="1" d="M 422.5 142 L 421.5 144 L 422.5 142 Z " /><path fill="rgb(253,253,252)" stroke="rgb(253,253,252)" stroke-width="1" opacity="1" d="M 274.5 143 L 275 144.5 L 272 146 Q 270.9 143.3 273.5 144 L 274.5 143 Z " /><path fill="rgb(253,253,252)" stroke="rgb(253,253,252)" stroke-width="1" opacity="1" d="M 390.5 143 L 391.5 145 Q 388.7 145.7 390.5 143 Z " /><path fill="rgb(253,253,252)" stroke="rgb(253,253,252)" stroke-width="1" opacity="1" d="M 304.5 144 L 307 145.5 L 305.5 146 L 304.5 144 Z " /><path fill="rgb(253,253,252)" stroke="rgb(253,253,252)" stroke-width="1" opacity="1" d="M 318 144 L 320 144.5 L 318 145.5 L 318 144 Z " /><path fill="rgb(253,253,252)" stroke="rgb(253,253,252)" stroke-width="1" opacity="1" d="M 394.5 144 L 399 145 Q 397.5 148.8 400.5 148 L 400 146.5 L 400.5 145 L 402.5 148 L 406.5 147 L 405.5 149 L 403 148 L 403 150 Q 406.7 148.5 406 151.5 L 406.5 153 L 404 152.5 L 401.5 149 L 395 147.5 L 396.5 145 Q 393.5 145.5 394.5 144 Z " /><path fill="rgb(253,253,252)" stroke="rgb(253,253,252)" stroke-width="1" opacity="1" d="M 405 144 Q 408 143 407 146 Q 404 147 405 144 Z " /><path fill="rgb(253,253,252)" stroke="rgb(253,253,252)" stroke-width="1" opacity="1" d="M 412.5 144 L 410.5 147 Q 407.9 147.7 409 145 L 412.5 144 Z " /><path fill="rgb(253,253,252)" stroke="rgb(253,253,252)" stroke-width="1" opacity="1" d="M 310.5 147 L 311.5 149 L 314 147.5 Q 312.3 150.8 307.5 151 L 307.5 150 L 310 149.5 Q 307.8 148.3 310.5 147 Z " /><path fill="rgb(253,253,252)" stroke="rgb(253,253,252)" stroke-width="1" opacity="1" d="M 265.5 148 L 266 150 L 268 149.5 L 267.5 148 Q 272 150 268.5 152 L 267 151.5 L 266.5 153 Q 262.2 151.2 265 149.5 L 265.5 148 Z " /><path fill="rgb(253,253,252)" stroke="rgb(253,253,252)" stroke-width="1" opacity="1" d="M 408.5 148 L 411 149.5 L 408.5 151 L 408.5 150 L 410 149.5 L 408.5 148 Z " /><path fill="rgb(253,253,252)" stroke="rgb(253,253,252)" stroke-width="1" opacity="1" d="M 260.5 151 L 261 153 L 265 153.5 L 263 154.5 L 264 156.5 L 263 156.5 Q 263.8 153.9 260.5 155 L 258 154 L 258.5 152 L 260 152.5 L 260.5 151 Z " /><path fill="rgb(253,253,252)" stroke="rgb(253,253,252)" stroke-width="1" opacity="1" d="M 271.5 151 L 272 153.5 L 271 153.5 L 271.5 151 Z " /><path fill="rgb(253,253,252)" stroke="rgb(253,253,252)" stroke-width="1" opacity="1" d="M 290.5 152 L 294 152.5 L 290.5 153 L 290.5 152 Z " /><path fill="rgb(253,253,252)" stroke="rgb(253,253,252)" stroke-width="1" opacity="1" d="M 296.5 152 L 299.5 153 L 301 152.5 L 300.5 155 Q 296.1 156.5 297 153.5 L 296.5 152 Z " /><path fill="rgb(253,253,252)" stroke="rgb(253,253,252)" stroke-width="1" opacity="1" d="M 303.5 152 L 306 152.5 L 303 153 L 302.5 155 L 302 153.5 L 303.5 152 Z " /><path fill="rgb(253,253,252)" stroke="rgb(253,253,252)" stroke-width="1" opacity="1" d="M 266.5 154 L 268 154.5 L 265.5 156 L 266.5 154 Z " /><path fill="rgb(253,253,252)" stroke="rgb(253,253,252)" stroke-width="1" opacity="1" d="M 269 155 L 272 156.5 Q 272.8 158.8 270.5 158 L 269 155 Z " /><path fill="rgb(253,253,252)" stroke="rgb(253,253,252)" stroke-width="1" opacity="1" d="M 292.5 155 L 293.5 157 L 288.5 159 L 288.5 158 L 292.5 155 Z " /><path fill="rgb(253,253,252)" stroke="rgb(253,253,252)" stroke-width="1" opacity="1" d="M 297.5 156 L 298 158 L 294.5 159 L 294.5 158 L 297.5 156 Z " /><path fill="rgb(253,253,252)" stroke="rgb(253,253,252)" stroke-width="1" opacity="1" d="M 271.5 159 L 277.5 161 L 279.5 160 L 279.5 161 L 276.5 162 L 273.5 161 L 271.5 159 Z " /><path fill="rgb(253,253,252)" stroke="rgb(253,253,252)" stroke-width="1" opacity="1" d="M 281 160 L 283 160.5 L 282 163 Q 285.8 161.5 285 164.5 Q 283.8 167.3 282.5 165 L 281 165.5 L 281.5 167 L 279 165.5 L 282 163.5 L 280 162.5 L 281 160 Z " /><path fill="rgb(253,253,252)" stroke="rgb(253,253,252)" stroke-width="1" opacity="1" d="M 286 160 L 289 160.5 L 288.5 163 L 286 161.5 L 286 160 Z " /><path fill="rgb(253,253,252)" stroke="rgb(253,253,252)" stroke-width="1" opacity="1" d="M 276.5 163 L 279 163.5 Q 276.9 166.8 276.5 163 Z " /><path fill="rgb(253,253,252)" stroke="rgb(253,253,252)" stroke-width="1" opacity="1" d="M 355.5 182 L 358 183.5 L 356.5 184 L 355.5 182 Z " /><path fill="rgb(253,253,252)" stroke="rgb(253,253,252)" stroke-width="1" opacity="1" d="M 351.5 184 L 352 185.5 L 351.5 188 L 350 185.5 L 351.5 184 Z " /><path fill="rgb(253,253,252)" stroke="rgb(253,253,252)" stroke-width="1" opacity="1" d="M 360.5 186 L 363 186.5 L 360.5 187 L 360.5 186 Z " /><path fill="rgb(253,253,252)" stroke="rgb(253,253,252)" stroke-width="1" opacity="1" d="M 344.5 188 L 345.5 191 L 349.5 189 L 347.5 192 L 344.5 191 L 342.5 192 L 341 191.5 Q 342.1 194.8 339.5 194 L 334.5 195 L 334.5 194 L 336.5 193 L 338.5 194 L 341.5 190 L 343.5 191 L 344.5 188 Z " /><path fill="rgb(253,253,252)" stroke="rgb(253,253,252)" stroke-width="1" opacity="1" d="M 362.5 189 L 363 191 L 365 190.5 L 364.5 189 L 372 191 L 371 193.5 L 374 194.5 Q 370.9 196.3 372.5 198 Q 370.3 198.8 371 196.5 L 370.5 194 L 368.5 195 L 368 192.5 Q 368.8 189.9 365.5 191 L 361 192 L 362.5 189 Z " /><path fill="rgb(253,253,252)" stroke="rgb(253,253,252)" stroke-width="1" opacity="1" d="M 376.5 194 L 378 197 L 376 196.5 L 376.5 194 Z " /><path fill="rgb(253,253,252)" stroke="rgb(253,253,252)" stroke-width="1" opacity="1" d="M 340 195 Q 342.7 193.9 342 196.5 L 341 200 L 339 200 Q 340.1 197.3 337.5 198 L 336 198.5 L 335.5 197 L 334 197.5 Q 335.3 194.8 336.5 197 L 339.5 198 L 340 195 Z " /><path fill="rgb(253,253,252)" stroke="rgb(253,253,252)" stroke-width="1" opacity="1" d="M 369.5 197 L 369 198.5 L 368.5 201 L 368 198.5 L 369.5 197 Z " /><path fill="rgb(253,253,252)" stroke="rgb(253,253,252)" stroke-width="1" opacity="1" d="M 344.5 200 L 347.5 202 L 351 200 L 349.5 203 L 344.5 201 L 343.5 203 L 343 201.5 L 344.5 200 Z " /><path fill="rgb(253,253,252)" stroke="rgb(253,253,252)" stroke-width="1" opacity="1" d="M 363.5 200 L 365 200.5 L 361.5 202 L 361.5 201 L 363.5 200 Z " /><path fill="rgb(253,253,252)" stroke="rgb(253,253,252)" stroke-width="1" opacity="1" d="M 366.5 202 L 368 202.5 L 365.5 204 L 366.5 202 Z " /><path fill="rgb(253,253,252)" stroke="rgb(253,253,252)" stroke-width="1" opacity="1" d="M 360.5 203 L 362 205.5 L 361 205.5 L 360.5 204 L 360 208 L 355 207.5 L 357.5 204 L 360.5 203 Z " /><path fill="rgb(253,253,252)" stroke="rgb(253,253,252)" stroke-width="1" opacity="1" d="M 351.5 204 L 352 207 Q 349.3 208.1 350 205.5 L 351.5 204 Z " /><path fill="rgb(253,253,252)" stroke="rgb(253,253,252)" stroke-width="1" opacity="1" d="M 478.5 264 L 479.5 266 L 478.5 264 Z " /><path fill="rgb(253,253,252)" stroke="rgb(253,253,252)" stroke-width="1" opacity="1" d="M 209.5 267 L 212 270.5 L 208 272 L 208 270 Q 210.7 271.1 210 268.5 L 209.5 267 Z " /><path fill="rgb(253,253,252)" stroke="rgb(253,253,252)" stroke-width="1" opacity="1" d="M 477.5 267 L 478.5 269 L 477.5 267 Z " /><path fill="rgb(253,253,252)" stroke="rgb(253,253,252)" stroke-width="1" opacity="1" d="M 475.5 268 L 477 270.5 L 473.5 270 L 471 272.5 L 471.5 274 L 469 274.5 L 469.5 278 L 467.5 277 L 463.5 280 L 464.5 278 L 469 275.5 L 468 273 L 470 273 Q 468.9 270.3 471.5 271 L 475.5 268 Z " /><path fill="rgb(253,253,252)" stroke="rgb(253,253,252)" stroke-width="1" opacity="1" d="M 478.5 270 Q 480.8 269.3 480 271.5 L 478.5 270 Z " /><path fill="rgb(253,253,252)" stroke="rgb(253,253,252)" stroke-width="1" opacity="1" d="M 213.5 271 L 216 271.5 L 213.5 272 L 213.5 271 Z " /><path fill="rgb(253,253,252)" stroke="rgb(253,253,252)" stroke-width="1" opacity="1" d="M 216 273 L 218 273.5 L 216.5 276 L 216 273 Z " /><path fill="rgb(253,253,252)" stroke="rgb(253,253,252)" stroke-width="1" opacity="1" d="M 219.5 273 L 220 275 Q 225.3 275 227.5 279 L 229 278.5 Q 229.8 280.8 227.5 280 L 225 278.5 L 224.5 280 L 222.5 276 L 219.5 277 Q 216.8 275.8 219 274.5 L 219.5 273 Z " /><path fill="rgb(253,253,252)" stroke="rgb(253,253,252)" stroke-width="1" opacity="1" d="M 466.5 273 L 465 275.5 L 464.5 277 L 463 276.5 L 460.5 280 L 458.5 280 L 457 279.5 L 459 279 Q 457.9 276.3 460.5 277 L 466.5 273 Z " /><path fill="rgb(253,253,252)" stroke="rgb(253,253,252)" stroke-width="1" opacity="1" d="M 454.5 280 L 456 280.5 L 453.5 282 L 454.5 280 Z " /><path fill="rgb(253,253,252)" stroke="rgb(253,253,252)" stroke-width="1" opacity="1" d="M 232 281 L 234 281.5 L 233 284.5 L 236 283.5 L 235 286.5 Q 235.7 289.1 233 288 L 232 281 Z " /><path fill="rgb(253,253,252)" stroke="rgb(253,253,252)" stroke-width="1" opacity="1" d="M 449.5 283 L 454.5 285 L 456 284.5 L 455.5 287 L 451.5 285 L 450.5 288 L 447 285.5 Q 447.8 287.8 445.5 287 L 444 287.5 Q 443.3 285.3 445.5 286 Q 447.3 282.9 449 284.5 L 449.5 283 Z " /><path fill="rgb(253,253,252)" stroke="rgb(253,253,252)" stroke-width="1" opacity="1" d="M 238.5 285 L 239 287 Q 242 285.8 241 289.5 L 240 289.5 Q 240.8 287.3 238.5 288 Q 235.5 286.5 238.5 285 Z " /><path fill="rgb(253,253,252)" stroke="rgb(253,253,252)" stroke-width="1" opacity="1" d="M 243.5 287 L 245.5 290 L 247.5 289 L 247.5 291 L 253 293.5 L 252.5 295 L 251 294.5 L 250.5 296 L 248.5 293 L 248 296 L 246 295.5 L 247 294.5 Q 243.9 292.8 245.5 291 Q 243.3 290.3 244 292.5 L 242.5 292 Q 239.9 291.2 241 294.5 L 241.5 296 Q 238.5 296.9 240 292.5 L 243 291 L 243.5 287 Z " /><path fill="rgb(253,253,252)" stroke="rgb(253,253,252)" stroke-width="1" opacity="1" d="M 435.5 291 L 436.5 293 L 439 292 L 440 295.5 L 438.5 295 L 436.5 296 L 434 292.5 L 435.5 291 Z " /><path fill="rgb(253,253,252)" stroke="rgb(253,253,252)" stroke-width="1" opacity="1" d="M 430 294 L 432 294.5 L 432 296.5 L 431.5 299 L 430 294 Z " /><path fill="rgb(253,253,252)" stroke="rgb(253,253,252)" stroke-width="1" opacity="1" d="M 256.5 295 L 259 296.5 Q 258.3 298.8 260.5 298 L 260.5 299 L 258.5 298 L 257 301.5 L 258.5 304 Q 256.3 304.8 257 302.5 L 256 300.5 L 258 296.5 L 256.5 295 Z " /><path fill="rgb(253,253,252)" stroke="rgb(253,253,252)" stroke-width="1" opacity="1" d="M 428.5 295 L 428.5 297 L 430 297.5 L 427 299 L 428.5 295 Z " /><path fill="rgb(253,253,252)" stroke="rgb(253,253,252)" stroke-width="1" opacity="1" d="M 423.5 298 L 423 299.5 L 424 303 L 421.5 304 L 423 301.5 L 421.5 299 L 423.5 298 Z " /><path fill="rgb(253,253,252)" stroke="rgb(253,253,252)" stroke-width="1" opacity="1" d="M 264.5 299 L 267 300 L 266 302.5 L 266.5 304 L 264 303.5 Q 267.8 301.8 264.5 300 L 264 302 L 260.5 303 L 262.5 300 L 264.5 299 Z " /><path fill="rgb(253,253,252)" stroke="rgb(253,253,252)" stroke-width="1" opacity="1" d="M 429.5 300 Q 431.8 299.3 431 301.5 L 429.5 300 Z " /><path fill="rgb(253,253,252)" stroke="rgb(253,253,252)" stroke-width="1" opacity="1" d="M 418.5 301 L 418.5 304 Q 415.5 302.5 418.5 301 Z " /><path fill="rgb(253,253,252)" stroke="rgb(253,253,252)" stroke-width="1" opacity="1" d="M 425.5 301 Q 427.8 300.3 427 302.5 L 427.5 304 L 425.5 301 Z " /><path fill="rgb(253,253,252)" stroke="rgb(253,253,252)" stroke-width="1" opacity="1" d="M 268.5 302 Q 270.8 301.3 270 303.5 L 268.5 302 Z " /><path fill="rgb(253,253,252)" stroke="rgb(253,253,252)" stroke-width="1" opacity="1" d="M 273.5 304 L 274 306.5 L 272.5 308 L 272 305.5 L 273.5 304 Z " /><path fill="rgb(253,253,252)" stroke="rgb(253,253,252)" stroke-width="1" opacity="1" d="M 411.5 305 L 413.5 305 L 416 305.5 L 411 307 L 411.5 305 Z " /><path fill="rgb(253,253,252)" stroke="rgb(253,253,252)" stroke-width="1" opacity="1" d="M 275 306 L 277 306.5 Q 274.8 307.8 277.5 309 L 280.5 308 L 281 310 L 279 310.5 Q 280.3 313.3 281.5 311 L 283.5 310 L 293 315.5 L 291.5 316 L 289.5 315 L 287.5 315 Q 284.2 313.9 285 316.5 L 283 315.5 Q 282.3 312.9 285 314 L 285 312 Q 281.6 311.3 280.5 314 L 280 312 L 277 312 L 277 310 Q 273.3 311.5 274 308.5 L 275 306 Z " /><path fill="rgb(253,253,252)" stroke="rgb(253,253,252)" stroke-width="1" opacity="1" d="M 408.5 307 L 410.5 310 L 415 311.5 L 412.5 312 L 410.5 312 Q 405.1 313.9 406 310.5 L 403.5 312 L 402 310.5 L 404 310.5 Q 403.3 308.3 405.5 309 L 408 308.5 L 408.5 307 Z M 409 309 Q 407 312 410 311 L 409 309 Z " /><path fill="rgb(253,253,252)" stroke="rgb(253,253,252)" stroke-width="1" opacity="1" d="M 415.5 307 L 415.5 310 Q 412.5 308.5 415.5 307 Z " /><path fill="rgb(253,253,252)" stroke="rgb(253,253,252)" stroke-width="1" opacity="1" d="M 395.5 314 L 398.5 316 L 399.5 314 L 400 315.5 L 398.5 319 L 397.5 316 L 395.5 315 L 394.5 318 L 392.5 317 L 392 319 L 388.5 320 L 388.5 319 L 395.5 314 Z " /><path fill="rgb(253,253,252)" stroke="rgb(253,253,252)" stroke-width="1" opacity="1" d="M 288 317 Q 291 315.8 290 319.5 L 287 319.5 L 288 317 Z " /><path fill="rgb(253,253,252)" stroke="rgb(253,253,252)" stroke-width="1" opacity="1" d="M 293.5 317 L 295 319.5 L 293.5 320 L 291 318.5 L 293.5 317 Z " /><path fill="rgb(253,253,252)" stroke="rgb(253,253,252)" stroke-width="1" opacity="1" d="M 297.5 318 L 301 322.5 L 297 320.5 L 297.5 324 L 299 323.5 Q 299.8 325.8 297.5 325 Q 295.3 324.3 296 320.5 L 297.5 318 Z " /><path fill="rgb(253,253,252)" stroke="rgb(253,253,252)" stroke-width="1" opacity="1" d="M 394.5 319 L 397 319.5 L 394.5 320 L 394.5 319 Z " /><path fill="rgb(253,253,252)" stroke="rgb(253,253,252)" stroke-width="1" opacity="1" d="M 385.5 320 Q 387.8 319.3 387 321.5 L 388 324 L 390 324.5 L 388.5 326 L 384 321.5 L 385.5 320 Z " /><path fill="rgb(253,253,252)" stroke="rgb(253,253,252)" stroke-width="1" opacity="1" d="M 303.5 322 L 305 325.5 L 304.5 328 L 301 325.5 L 303.5 322 Z " /><path fill="rgb(253,253,252)" stroke="rgb(253,253,252)" stroke-width="1" opacity="1" d="M 380.5 323 L 381 325 L 383.5 324 L 384 325.5 L 383.5 328 L 380.5 326 L 376 328 L 375.5 330 L 375 328.5 L 379 325.5 L 378.5 324 L 380.5 323 Z " /><path fill="rgb(253,253,252)" stroke="rgb(253,253,252)" stroke-width="1" opacity="1" d="M 310.5 326 L 319 330 Q 317.5 333.7 320.5 333 L 322 332.5 L 321 335 Q 323.7 336.1 323 333.5 L 325 334.5 L 324.5 336 L 322.5 336 Q 319.2 337.1 320 334.5 L 318 333.5 L 319 335.5 L 317 336 Q 318 333 315 334 Q 316.1 336.7 313.5 336 L 314.5 333 L 313 332.5 L 314.5 332 L 318 332.5 Q 318.8 330.3 316.5 331 L 312 330.5 L 312 328.5 L 311.5 327 L 306.5 328 L 306.5 327 L 310.5 326 Z " /><path fill="rgb(253,253,252)" stroke="rgb(253,253,252)" stroke-width="1" opacity="1" d="M 373.5 327 L 373 328.5 L 374 330.5 L 371 331 Q 369.8 334 373.5 333 L 373.5 334 L 370 334 L 370 332 Q 367.3 333.1 368 330.5 L 369.5 331 L 372 329.5 L 373.5 327 Z " /><path fill="rgb(253,253,252)" stroke="rgb(253,253,252)" stroke-width="1" opacity="1" d="M 366.5 331 L 364.5 335 L 371 335.5 L 363 336 L 364.5 332 L 366.5 331 Z " /><path fill="rgb(253,253,252)" stroke="rgb(253,253,252)" stroke-width="1" opacity="1" d="M 357.5 336 L 359.5 339 L 356 337.5 L 357.5 336 Z " /><path fill="rgb(253,253,252)" stroke="rgb(253,253,252)" stroke-width="1" opacity="1" d="M 328.5 338 L 330.5 338 L 336 340 L 336 342 Q 331.9 340.7 333 344 L 329.5 344 L 329.5 343 L 332 342.5 L 328 340.5 L 328.5 338 Z M 332 339 L 329 341 L 332 341 L 333 342 L 332 339 Z " /><path fill="rgb(253,253,252)" stroke="rgb(253,253,252)" stroke-width="1" opacity="1" d="M 352.5 339 Q 356.3 338 355 341 L 352.5 340 L 349 342.5 L 350.5 343 L 353.5 342 L 356 343.5 L 354.5 344 L 352.5 344 L 348.5 343 L 347 343.5 L 348.5 341 L 352.5 339 Z " /><path fill="rgb(253,253,252)" stroke="rgb(253,253,252)" stroke-width="1" opacity="1" d="M 356.5 339 L 359.5 341 L 359.5 342 Q 356.2 343.1 357 340.5 L 356.5 339 Z " /><path fill="rgb(253,253,252)" stroke="rgb(253,253,252)" stroke-width="1" opacity="1" d="M 335.5 343 L 344 344 Q 345.3 347 341.5 346 Q 340.5 343 335.5 344 L 335.5 343 Z " /><path fill="rgb(253,253,252)" stroke="rgb(253,253,252)" stroke-width="1" opacity="1" d="M 336 346 Q 339.8 344.5 339 347.5 L 339.5 349 Q 334.3 350.5 336 346 Z " /><path fill="rgb(254,254,254)" stroke="rgb(254,254,254)" stroke-width="1" opacity="1" d="M 353.5 33 L 356 34.5 L 356.5 36 L 358 35.5 L 356.5 37 L 353.5 33 Z " /><path fill="rgb(254,254,254)" stroke="rgb(254,254,254)" stroke-width="1" opacity="1" d="M 358.5 37 L 357.5 39 L 358.5 37 Z " /><path fill="rgb(254,254,254)" stroke="rgb(254,254,254)" stroke-width="1" opacity="1" d="M 316.5 41 L 319 42.5 L 317.5 43 L 316.5 41 Z " /><path fill="rgb(254,254,254)" stroke="rgb(254,254,254)" stroke-width="1" opacity="1" d="M 315.5 44 L 316 46 L 314 45.5 L 315.5 44 Z " /><path fill="rgb(254,254,254)" stroke="rgb(254,254,254)" stroke-width="1" opacity="1" d="M 288.5 61 L 289.5 63 L 288 62.5 Q 288.8 64.8 286.5 64 L 284.5 64 L 282.5 65 L 280 64 L 280.5 62 L 287.5 62 L 288.5 61 Z " /><path fill="rgb(254,254,254)" stroke="rgb(254,254,254)" stroke-width="1" opacity="1" d="M 270 64 Q 273.7 62.6 272 68.5 L 274 68.5 L 272 72 L 270 71.5 L 270 64 Z " /><path fill="rgb(254,254,254)" stroke="rgb(254,254,254)" stroke-width="1" opacity="1" d="M 279.5 66 L 280.5 68 L 278 67.5 L 279.5 66 Z " /><path fill="rgb(254,254,254)" stroke="rgb(254,254,254)" stroke-width="1" opacity="1" d="M 410.5 68 L 412 70.5 L 411 70.5 L 410.5 68 Z " /><path fill="rgb(254,254,254)" stroke="rgb(254,254,254)" stroke-width="1" opacity="1" d="M 261 73 Q 264 72 263 75 Q 260 76 261 73 Z " /><path fill="rgb(254,254,254)" stroke="rgb(254,254,254)" stroke-width="1" opacity="1" d="M 271.5 73 L 270.5 75 L 271.5 73 Z " /><path fill="rgb(254,254,254)" stroke="rgb(254,254,254)" stroke-width="1" opacity="1" d="M 258.5 76 L 260.5 79 L 259 78.5 L 258.5 80 L 258 78.5 L 258.5 76 Z " /><path fill="rgb(254,254,254)" stroke="rgb(254,254,254)" stroke-width="1" opacity="1" d="M 256.5 79 L 254.5 82 L 256.5 79 Z " /><path fill="rgb(254,254,254)" stroke="rgb(254,254,254)" stroke-width="1" opacity="1" d="M 249.5 84 L 248.5 86 L 249.5 84 Z " /><path fill="rgb(254,254,254)" stroke="rgb(254,254,254)" stroke-width="1" opacity="1" d="M 436.5 85 L 439 85.5 L 436.5 86 L 436.5 85 Z " /><path fill="rgb(254,254,254)" stroke="rgb(254,254,254)" stroke-width="1" opacity="1" d="M 444.5 88 L 443.5 90 L 444.5 88 Z " /><path fill="rgb(254,254,254)" stroke="rgb(254,254,254)" stroke-width="1" opacity="1" d="M 449.5 88 L 450.5 90 Q 447.7 90.7 449.5 88 Z " /><path fill="rgb(254,254,254)" stroke="rgb(254,254,254)" stroke-width="1" opacity="1" d="M 450.5 91 L 451.5 93 L 450.5 91 Z " /><path fill="rgb(254,254,254)" stroke="rgb(254,254,254)" stroke-width="1" opacity="1" d="M 224 94 L 231.5 94 L 232 95.5 L 234 95.5 Q 232.8 98.3 231.5 96 Q 228.2 94.9 229 97.5 L 228 97.5 L 228 96 L 224 96 L 224 94 Z " /><path fill="rgb(254,254,254)" stroke="rgb(254,254,254)" stroke-width="1" opacity="1" d="M 457.5 96 L 458.5 98 L 457.5 96 Z " /><path fill="rgb(254,254,254)" stroke="rgb(254,254,254)" stroke-width="1" opacity="1" d="M 222.5 98 Q 224.8 97.3 224 99.5 L 221 99.5 L 222.5 98 Z " /><path fill="rgb(254,254,254)" stroke="rgb(254,254,254)" stroke-width="1" opacity="1" d="M 466 99 L 468 99.5 L 466 100.5 L 466 99 Z " /><path fill="rgb(254,254,254)" stroke="rgb(254,254,254)" stroke-width="1" opacity="1" d="M 357.5 101 L 356.5 103 L 357.5 101 Z " /><path fill="rgb(254,254,254)" stroke="rgb(254,254,254)" stroke-width="1" opacity="1" d="M 218.5 102 L 219 104 L 217 103.5 L 218.5 102 Z " /><path fill="rgb(254,254,254)" stroke="rgb(254,254,254)" stroke-width="1" opacity="1" d="M 470.5 103 L 471.5 105 L 470.5 103 Z " /><path fill="rgb(254,254,254)" stroke="rgb(254,254,254)" stroke-width="1" opacity="1" d="M 214.5 105 L 213.5 107 L 214.5 105 Z " /><path fill="rgb(254,254,254)" stroke="rgb(254,254,254)" stroke-width="1" opacity="1" d="M 368.5 106 L 371 106.5 Q 368.9 109.8 368.5 106 Z " /><path fill="rgb(254,254,254)" stroke="rgb(254,254,254)" stroke-width="1" opacity="1" d="M 340.5 107 L 339.5 109 L 338 108.5 L 340.5 107 Z " /><path fill="rgb(254,254,254)" stroke="rgb(254,254,254)" stroke-width="1" opacity="1" d="M 371.5 108 L 370.5 110 L 371.5 108 Z " /><path fill="rgb(254,254,254)" stroke="rgb(254,254,254)" stroke-width="1" opacity="1" d="M 341.5 109 L 342.5 111 L 341.5 109 Z " /><path fill="rgb(254,254,254)" stroke="rgb(254,254,254)" stroke-width="1" opacity="1" d="M 377.5 110 L 378.5 112 L 377.5 110 Z " /><path fill="rgb(254,254,254)" stroke="rgb(254,254,254)" stroke-width="1" opacity="1" d="M 340.5 111 L 344 112 L 343.5 114 L 336.5 114 L 334 115.5 L 335 116.5 L 331.5 120 L 332.5 117 L 330.5 118 L 331 116.5 Q 330.3 114.3 332.5 115 L 332.5 113 L 336 114 Q 334.7 110.7 339.5 112 L 340.5 111 Z " /><path fill="rgb(254,254,254)" stroke="rgb(254,254,254)" stroke-width="1" opacity="1" d="M 380.5 112 L 382 114.5 L 380 113.5 L 380.5 112 Z " /><path fill="rgb(254,254,254)" stroke="rgb(254,254,254)" stroke-width="1" opacity="1" d="M 330.5 113 L 329.5 115 L 330.5 113 Z " /><path fill="rgb(254,254,254)" stroke="rgb(254,254,254)" stroke-width="1" opacity="1" d="M 380 116 L 382 116.5 L 380 117.5 L 380 116 Z " /><path fill="rgb(254,254,254)" stroke="rgb(254,254,254)" stroke-width="1" opacity="1" d="M 317.5 119 L 318.5 121 L 317.5 119 Z " /><path fill="rgb(254,254,254)" stroke="rgb(254,254,254)" stroke-width="1" opacity="1" d="M 349.5 120 L 352.5 121 L 354 120.5 L 347.5 125 L 346 121.5 L 347.5 121 L 349.5 122 L 349.5 120 Z " /><path fill="rgb(254,254,254)" stroke="rgb(254,254,254)" stroke-width="1" opacity="1" d="M 394 120 L 396 120.5 L 394.5 124 L 394 120 Z " /><path fill="rgb(254,254,254)" stroke="rgb(254,254,254)" stroke-width="1" opacity="1" d="M 397.5 122 L 401 123.5 L 398.5 124 L 397.5 122 Z " /><path fill="rgb(254,254,254)" stroke="rgb(254,254,254)" stroke-width="1" opacity="1" d="M 311.5 123 L 310.5 125 L 311.5 123 Z " /><path fill="rgb(254,254,254)" stroke="rgb(254,254,254)" stroke-width="1" opacity="1" d="M 360.5 123 L 364 125.5 L 365 127.5 L 360 128 L 359 125.5 L 360.5 123 Z " /><path fill="rgb(254,254,254)" stroke="rgb(254,254,254)" stroke-width="1" opacity="1" d="M 396.5 126 Q 398.8 125.3 398 127.5 L 396.5 126 Z " /><path fill="rgb(254,254,254)" stroke="rgb(254,254,254)" stroke-width="1" opacity="1" d="M 302.5 128 L 301.5 130 L 300 129.5 L 302.5 128 Z " /><path fill="rgb(254,254,254)" stroke="rgb(254,254,254)" stroke-width="1" opacity="1" d="M 371.5 128 L 372 130.5 L 371 130.5 L 371.5 128 Z " /><path fill="rgb(254,254,254)" stroke="rgb(254,254,254)" stroke-width="1" opacity="1" d="M 339.5 132 L 338.5 134 L 339.5 132 Z " /><path fill="rgb(254,254,254)" stroke="rgb(254,254,254)" stroke-width="1" opacity="1" d="M 291.5 135 L 296 136 L 295.5 138 L 288 138 Q 286.8 135 290.5 136 L 291.5 135 Z " /><path fill="rgb(254,254,254)" stroke="rgb(254,254,254)" stroke-width="1" opacity="1" d="M 417.5 135 L 421 136.5 L 418 137.5 L 417.5 139 L 417 137.5 L 417.5 135 Z " /><path fill="rgb(254,254,254)" stroke="rgb(254,254,254)" stroke-width="1" opacity="1" d="M 386.5 136 L 385.5 138 L 386.5 136 Z " /><path fill="rgb(254,254,254)" stroke="rgb(254,254,254)" stroke-width="1" opacity="1" d="M 275.5 144 Q 281.8 142.1 280 147 L 272 150 L 272 146 L 273.5 146 L 275.5 144 Z " /><path fill="rgb(254,254,254)" stroke="rgb(254,254,254)" stroke-width="1" opacity="1" d="M 408.5 144 L 409 146.5 L 407.5 149 L 407 145.5 L 408.5 144 Z " /><path fill="rgb(254,254,254)" stroke="rgb(254,254,254)" stroke-width="1" opacity="1" d="M 417.5 144 L 416.5 146 L 417.5 144 Z " /><path fill="rgb(254,254,254)" stroke="rgb(254,254,254)" stroke-width="1" opacity="1" d="M 305.5 146 L 306 148 L 309.5 146 L 308.5 149 L 310 149.5 L 308.5 150 L 305 149 L 305.5 146 Z " /><path fill="rgb(254,254,254)" stroke="rgb(254,254,254)" stroke-width="1" opacity="1" d="M 312.5 146 L 313 148 L 311 147.5 L 312.5 146 Z " /><path fill="rgb(254,254,254)" stroke="rgb(254,254,254)" stroke-width="1" opacity="1" d="M 410 147 L 412 147.5 L 410 148.5 L 410 147 Z " /><path fill="rgb(254,254,254)" stroke="rgb(254,254,254)" stroke-width="1" opacity="1" d="M 401.5 149 L 400.5 151 L 401.5 149 Z " /><path fill="rgb(254,254,254)" stroke="rgb(254,254,254)" stroke-width="1" opacity="1" d="M 406.5 150 L 407.5 152 Q 404.7 152.7 406.5 150 Z " /><path fill="rgb(254,254,254)" stroke="rgb(254,254,254)" stroke-width="1" opacity="1" d="M 264.5 151 L 266 153.5 L 265 153.5 L 264.5 151 Z " /><path fill="rgb(254,254,254)" stroke="rgb(254,254,254)" stroke-width="1" opacity="1" d="M 290.5 158 L 290 159.5 L 288.5 162 L 289 160.5 L 290.5 158 Z " /><path fill="rgb(254,254,254)" stroke="rgb(254,254,254)" stroke-width="1" opacity="1" d="M 276.5 162 L 279 162.5 L 276.5 163 L 276.5 162 Z " /><path fill="rgb(254,254,254)" stroke="rgb(254,254,254)" stroke-width="1" opacity="1" d="M 355.5 184 Q 362.3 181.8 360 188.5 L 358.5 188 L 356 186.5 L 355.5 184 Z " /><path fill="rgb(254,254,254)" stroke="rgb(254,254,254)" stroke-width="1" opacity="1" d="M 372.5 192 L 373.5 194 Q 370.7 194.7 372.5 192 Z " /><path fill="rgb(254,254,254)" stroke="rgb(254,254,254)" stroke-width="1" opacity="1" d="M 341.5 199 L 343 199.5 L 340.5 201 L 341.5 199 Z " /><path fill="rgb(254,254,254)" stroke="rgb(254,254,254)" stroke-width="1" opacity="1" d="M 348.5 200 L 347.5 202 L 348.5 200 Z " /><path fill="rgb(254,254,254)" stroke="rgb(254,254,254)" stroke-width="1" opacity="1" d="M 365.5 200 Q 369 202 364.5 204 L 365 202.5 L 365.5 200 Z " /><path fill="rgb(254,254,254)" stroke="rgb(254,254,254)" stroke-width="1" opacity="1" d="M 347.5 203 L 351 204.5 L 349 205.5 Q 349.8 203.3 347.5 204 L 347.5 203 Z " /><path fill="rgb(254,254,254)" stroke="rgb(254,254,254)" stroke-width="1" opacity="1" d="M 359.5 203 L 360.5 205 L 359.5 203 Z " /><path fill="rgb(254,254,254)" stroke="rgb(254,254,254)" stroke-width="1" opacity="1" d="M 212.5 269 L 213.5 271 Q 210.7 271.7 212.5 269 Z " /><path fill="rgb(254,254,254)" stroke="rgb(254,254,254)" stroke-width="1" opacity="1" d="M 208 272 L 215.5 272 L 216 274 L 208.5 274 L 208 272 Z " /><path fill="rgb(254,254,254)" stroke="rgb(254,254,254)" stroke-width="1" opacity="1" d="M 472 272 L 479.5 272 L 480 274 L 472.5 274 L 472 272 Z " /><path fill="rgb(254,254,254)" stroke="rgb(254,254,254)" stroke-width="1" opacity="1" d="M 216.5 277 L 217.5 279 L 216.5 277 Z " /><path fill="rgb(254,254,254)" stroke="rgb(254,254,254)" stroke-width="1" opacity="1" d="M 470.5 277 L 472 279.5 L 471 279.5 L 470.5 277 Z " /><path fill="rgb(254,254,254)" stroke="rgb(254,254,254)" stroke-width="1" opacity="1" d="M 466.5 278 L 465.5 280 L 466.5 278 Z " /><path fill="rgb(254,254,254)" stroke="rgb(254,254,254)" stroke-width="1" opacity="1" d="M 238.5 284 L 240 286.5 L 239 286.5 L 238.5 285 L 236 286.5 L 238.5 284 Z " /><path fill="rgb(254,254,254)" stroke="rgb(254,254,254)" stroke-width="1" opacity="1" d="M 440 288 L 442 288.5 L 442 296 Q 439 297.3 440 293.5 L 440 291.5 L 440 288 Z " /><path fill="rgb(254,254,254)" stroke="rgb(254,254,254)" stroke-width="1" opacity="1" d="M 240.5 290 L 243 290.5 L 240.5 291 L 240.5 290 Z " /><path fill="rgb(254,254,254)" stroke="rgb(254,254,254)" stroke-width="1" opacity="1" d="M 424.5 299 L 422 302.5 L 422.5 304 L 419 301.5 L 420.5 302 L 424.5 299 Z " /><path fill="rgb(254,254,254)" stroke="rgb(254,254,254)" stroke-width="1" opacity="1" d="M 427.5 301 L 429 303.5 L 427 302.5 L 427.5 301 Z " /><path fill="rgb(254,254,254)" stroke="rgb(254,254,254)" stroke-width="1" opacity="1" d="M 270 304 Q 272.7 302.9 272 305.5 L 274 308.5 L 273 308.5 L 272.5 307 L 272 312 L 270 311.5 L 270 304 Z " /><path fill="rgb(254,254,254)" stroke="rgb(254,254,254)" stroke-width="1" opacity="1" d="M 400 312 L 407.5 312 L 408 314 L 400.5 314 L 400 312 Z " /><path fill="rgb(254,254,254)" stroke="rgb(254,254,254)" stroke-width="1" opacity="1" d="M 282.5 315 L 285 316.5 L 285.5 315 L 286 316.5 L 284.5 318 L 282.5 315 Z " /><path fill="rgb(254,254,254)" stroke="rgb(254,254,254)" stroke-width="1" opacity="1" d="M 398.5 315 L 399.5 317 L 398.5 315 Z " /><path fill="rgb(254,254,254)" stroke="rgb(254,254,254)" stroke-width="1" opacity="1" d="M 287.5 318 L 286.5 320 L 287.5 318 Z " /><path fill="rgb(254,254,254)" stroke="rgb(254,254,254)" stroke-width="1" opacity="1" d="M 388.5 323 L 392 323.5 L 388.5 324 L 388.5 323 Z " /><path fill="rgb(254,254,254)" stroke="rgb(254,254,254)" stroke-width="1" opacity="1" d="M 315.5 330 L 314.5 332 L 313 331.5 L 315.5 330 Z " /><path fill="rgb(254,254,254)" stroke="rgb(254,254,254)" stroke-width="1" opacity="1" d="M 360 336 L 362 336.5 L 362 344 L 359 342.5 L 360 336 Z " /><path fill="rgb(254,254,254)" stroke="rgb(254,254,254)" stroke-width="1" opacity="1" d="M 332.5 341 L 331.5 343 L 332.5 341 Z " /><path fill="rgb(254,254,254)" stroke="rgb(254,254,254)" stroke-width="1" opacity="1" d="M 339.5 344 L 341 346.5 L 339 347.5 Q 339.8 344.9 336.5 346 L 336.5 345 L 339.5 344 Z " /><path fill="rgb(254,254,254)" stroke="rgb(254,254,254)" stroke-width="1" opacity="1" d="M 341 349 Q 345.1 347.7 344 351 Q 339.9 352.3 341 349 Z " /><path fill="rgb(255,255,255)" stroke="rgb(255,255,255)" stroke-width="1" opacity="1" d="M 0 0 L 688 0 L 688 388 L 0 388 L 0 0 Z M 332 32 L 331 34 L 335 33 L 336 35 L 337 33 L 332 32 Z M 339 32 Q 336 33 337 37 L 334 36 L 334 38 L 329 42 L 327 42 Q 325 45 324 41 L 321 43 L 319 43 L 321 42 L 320 40 L 317 41 L 317 43 Q 314 42 315 45 L 312 47 L 313 49 L 315 48 L 316 49 L 307 53 L 305 53 L 304 56 L 299 57 L 301 57 L 301 58 L 296 56 L 296 58 L 294 58 L 295 61 L 294 60 Q 289 59 288 62 Q 290 65 292 61 L 293 62 L 292 62 Q 290 66 288 62 L 281 62 L 280 64 L 280 65 L 282 64 Q 286 66 283 68 L 281 68 L 283 67 L 276 64 L 273 65 L 278 68 L 276 69 Q 273 68 274 71 L 274 73 L 271 73 L 272 71 L 272 69 L 274 69 Q 275 66 272 67 L 272 64 L 270 65 L 270 72 L 270 74 L 269 73 L 268 75 L 266 76 L 265 75 L 266 73 Q 262 72 264 76 L 261 76 L 262 79 L 260 77 L 258 80 L 260 81 L 257 82 L 257 79 L 254 80 L 253 83 L 255 83 L 256 81 L 256 84 L 245 90 L 245 88 L 240 89 L 236 88 L 236 91 L 238 90 L 241 91 L 241 90 L 243 91 L 241 92 L 239 92 L 238 94 L 237 94 Q 238 91 236 92 L 236 94 L 232 97 L 229 97 L 232 96 Q 234 95 233 91 L 232 91 L 232 94 L 224 94 Q 223 98 228 96 L 228 98 L 230 99 L 229 99 L 227 99 L 227 97 Q 224 96 225 100 L 226 101 Q 223 100 224 97 L 222 98 L 223 100 L 222 99 L 217 103 L 217 104 Q 221 105 222 101 L 224 102 L 220 105 L 217 105 L 212 108 Q 213 110 211 109 L 209 110 L 210 108 L 208 109 L 208 267 L 210 269 Q 211 271 208 270 L 208 274 L 216 274 L 217 276 L 218 274 L 217 273 L 217 272 L 219 274 L 218 277 L 223 276 L 225 280 L 227 277 L 228 280 L 230 279 L 232 280 L 233 287 Q 232 289 235 288 L 233 282 Q 236 281 235 284 L 237 283 Q 240 285 236 287 L 239 288 Q 241 287 240 291 L 246 293 Q 248 294 246 296 L 248 296 L 249 294 L 252 296 L 250 294 L 253 295 L 254 293 L 254 295 L 256 295 Q 255 297 258 296 L 257 298 Q 256 301 259 300 L 260 297 L 260 299 L 262 298 L 264 299 L 267 302 L 268 301 L 267 303 L 269 303 L 271 303 L 270 305 L 270 312 L 272 312 Q 274 311 272 310 L 273 308 L 277 310 L 277 312 Q 281 310 280 314 L 283 312 Q 286 311 285 314 L 282 316 Q 284 320 286 317 Q 285 314 288 315 Q 289 318 286 320 L 288 320 L 290 320 L 291 317 L 290 317 L 289 315 L 297 319 L 296 321 L 297 326 L 299 325 Q 300 322 297 323 Q 296 320 299 321 L 301 321 L 303 323 L 302 325 L 300 328 L 302 327 L 304 328 Q 306 329 305 326 Q 303 324 306 323 L 306 325 L 308 324 L 310 326 L 306 328 L 312 328 Q 313 331 315 330 L 313 333 Q 316 334 315 331 L 318 331 L 319 333 L 319 332 L 321 333 L 319 334 L 320 336 L 323 336 L 322 335 L 323 333 L 323 335 Q 324 337 326 335 L 329 336 L 330 339 L 328 339 L 329 341 L 331 340 Q 332 338 333 341 L 329 342 L 331 343 L 328 344 L 334 344 L 333 343 L 337 341 L 339 343 L 338 342 L 335 344 L 339 345 L 336 345 Q 334 351 340 349 L 342 346 L 344 346 Q 343 343 346 344 L 348 344 L 353 344 Q 352 341 351 343 L 349 343 L 356 340 Q 358 339 357 342 L 359 342 L 359 344 L 362 344 L 362 337 L 360 336 L 359 339 L 360 341 Q 357 342 358 339 L 354 339 L 359 338 L 358 337 L 363 334 L 363 336 L 371 336 L 371 334 L 373 334 L 374 335 Q 375 332 371 333 L 371 331 L 369 331 L 372 329 L 371 331 L 374 331 L 373 330 Q 372 327 375 328 L 375 326 L 377 326 L 378 326 Q 379 328 377 327 L 377 328 Q 381 329 380 326 L 383 327 L 385 326 L 383 323 L 382 325 L 381 325 L 383 322 L 385 322 L 389 326 Q 391 327 390 324 L 392 324 L 392 322 L 388 323 L 387 321 L 388 319 L 390 320 L 389 319 L 391 319 Q 393 320 392 318 L 394 318 L 396 318 L 394 317 L 400 312 L 400 314 L 408 314 L 408 312 L 411 312 L 412 310 L 408 311 L 407 309 L 409 309 L 411 308 L 411 306 L 413 307 L 412 306 L 419 302 L 422 304 L 424 303 L 423 300 L 427 297 L 427 299 L 430 298 L 428 297 L 431 296 L 432 293 L 435 294 L 433 295 L 436 295 L 438 295 Q 440 296 439 294 L 440 294 L 439 296 L 442 296 L 442 289 L 444 287 L 446 288 L 449 284 L 448 286 L 449 288 Q 453 289 452 287 L 452 285 L 454 286 L 455 286 L 450 284 L 456 281 L 457 279 L 459 280 L 458 279 L 461 280 Q 463 279 461 278 L 463 278 L 465 277 L 469 272 L 470 273 L 468 273 L 469 275 L 470 274 L 480 274 L 480 269 Q 477 270 479 272 L 472 273 L 474 270 L 477 271 L 476 269 L 478 268 L 479 265 L 478 264 L 478 112 L 477 111 L 480 110 Q 481 106 476 108 L 476 110 L 474 108 L 472 106 L 470 106 L 471 104 L 468 101 L 470 98 L 466 96 L 466 98 Q 468 103 465 102 L 463 102 L 460 100 Q 457 101 458 99 L 457 99 L 457 98 L 455 97 L 456 95 L 454 93 L 453 96 L 450 95 L 452 91 L 447 93 L 445 90 L 448 92 Q 449 89 447 90 L 447 89 L 450 91 L 452 88 Q 444 86 443 90 L 443 88 L 440 89 Q 436 87 440 86 L 437 85 L 437 87 L 435 86 L 436 83 L 439 83 L 436 82 L 438 81 L 434 80 L 432 84 L 434 84 L 434 85 L 430 83 L 432 82 L 429 80 L 427 81 L 421 78 L 419 76 Q 418 73 417 75 L 411 72 L 414 68 Q 415 65 413 66 L 410 70 Q 407 71 408 67 L 403 66 Q 401 68 400 66 L 402 66 L 402 64 L 399 65 L 398 64 L 396 64 L 397 62 L 395 63 L 393 62 L 394 60 L 393 59 L 393 58 L 392 57 L 391 60 L 383 56 L 382 53 L 380 54 L 380 53 L 376 52 L 380 51 L 380 50 Q 377 51 378 48 L 374 48 L 372 48 Q 367 49 368 46 L 364 45 L 360 41 L 359 42 L 358 41 Q 360 39 358 38 Q 355 39 357 41 L 354 39 L 357 38 L 356 36 L 357 34 L 357 36 L 359 36 L 358 38 Q 362 39 360 34 L 352 32 L 350 35 L 350 37 L 346 35 L 348 35 L 349 35 L 346 32 L 345 34 L 344 32 L 340 35 L 339 32 Z M 331 35 L 327 41 L 329 41 Q 331 40 329 39 L 331 39 Q 333 40 332 38 L 332 36 L 331 35 Z M 364 40 Q 361 42 364 43 Q 367 42 364 40 Z M 366 42 L 364 44 L 366 44 L 367 45 L 366 42 Z M 307 48 Q 304 50 307 51 L 308 49 L 307 48 Z M 311 48 L 309 50 L 311 50 L 311 48 Z M 383 48 L 384 50 Q 385 47 383 48 Z M 305 50 Q 303 53 306 52 L 305 50 Z M 383 50 L 381 52 L 383 52 L 383 50 Z M 288 56 L 289 60 L 289 57 L 291 57 L 288 56 Z M 386 56 L 386 57 L 389 58 L 390 58 Q 389 55 386 56 Z M 394 56 L 394 58 L 397 58 L 398 57 L 394 56 Z M 292 57 L 290 59 L 293 59 L 292 57 Z M 397 59 L 398 61 Q 399 58 397 59 Z M 407 64 L 405 65 L 405 66 Q 408 67 409 65 L 407 64 Z M 415 68 Q 412 69 414 71 Q 413 73 416 72 L 416 70 Q 417 67 415 68 Z M 259 72 L 256 74 L 259 74 L 259 72 Z M 422 72 L 418 74 L 421 75 L 423 75 Q 425 76 424 74 L 422 72 Z M 261 73 Q 260 76 263 75 Q 264 72 261 73 Z M 257 75 Q 256 78 259 77 Q 260 74 257 75 Z M 422 75 L 420 77 L 422 77 Q 423 79 424 77 L 422 75 Z M 249 80 L 248 83 L 250 82 Q 252 81 251 84 L 249 85 L 252 85 L 253 82 L 252 81 L 249 80 Z M 456 88 L 452 91 L 455 92 L 456 90 L 456 88 Z M 217 96 L 218 98 L 219 98 L 217 96 Z M 460 96 L 458 98 L 460 98 L 460 96 Z M 461 98 Q 459 101 462 100 Q 463 102 464 100 Q 465 97 463 98 L 461 98 Z M 217 99 L 218 101 L 220 100 L 217 99 Z M 479 104 L 476 106 L 478 107 L 480 107 Q 481 103 479 104 Z M 468 276 L 469 278 L 471 278 L 468 276 Z M 217 277 L 218 279 Q 219 276 217 277 Z M 223 277 L 222 280 L 223 280 L 223 277 Z M 467 277 L 464 279 Q 466 282 467 279 L 467 277 Z M 472 278 L 470 280 L 472 280 L 472 278 Z M 219 279 L 219 280 L 221 280 L 219 279 Z M 241 292 Q 238 297 242 296 L 242 294 L 241 292 Z M 432 296 L 431 299 L 432 299 L 432 296 Z M 431 299 L 429 301 L 431 302 L 431 299 Z M 263 300 L 261 303 L 264 302 Q 265 299 263 300 Z M 425 301 L 425 303 L 429 304 L 428 303 Q 429 300 425 301 Z M 258 302 Q 256 305 259 304 L 258 302 Z M 266 302 L 264 304 L 267 304 L 266 302 Z M 414 305 L 414 306 L 416 306 L 414 305 Z M 416 309 L 413 311 L 413 312 L 416 311 L 416 309 Z M 400 314 L 396 316 L 398 316 L 400 318 L 400 314 Z M 294 317 L 291 319 L 294 320 L 295 320 L 294 317 Z M 394 319 L 394 320 L 397 320 L 394 319 Z M 317 332 L 315 334 L 319 336 L 317 332 Z M 315 334 L 313 336 L 315 336 L 315 334 Z M 354 342 L 355 344 Q 358 345 357 343 L 356 343 L 354 342 Z M 341 349 Q 340 352 344 351 Q 345 348 341 349 Z " /><path fill="rgb(255,255,255)" stroke="rgb(255,255,255)" stroke-width="1" opacity="1" d="M 351.5 34 L 355 35.5 L 354.5 37 L 351.5 34 Z " /><path fill="rgb(255,255,255)" stroke="rgb(255,255,255)" stroke-width="1" opacity="1" d="M 316.5 44 L 319.5 45 L 321.5 44 L 320.5 46 L 317.5 48 L 316.5 46 L 318 45.5 L 316.5 44 Z " /><path fill="rgb(255,255,255)" stroke="rgb(255,255,255)" stroke-width="1" opacity="1" d="M 284.5 64 L 285.5 66 L 284.5 64 Z " /><path fill="rgb(255,255,255)" stroke="rgb(255,255,255)" stroke-width="1" opacity="1" d="M 277.5 69 L 279 69.5 L 275.5 72 L 277.5 69 Z " /><path fill="rgb(255,255,255)" stroke="rgb(255,255,255)" stroke-width="1" opacity="1" d="M 354 98 Q 357 97 356 100 L 360 100 L 360 102 L 354 101 L 354 98 Z " /><path fill="rgb(255,255,255)" stroke="rgb(255,255,255)" stroke-width="1" opacity="1" d="M 352.5 99 L 353.5 104 Q 355 100.5 356.5 103 L 358.5 104 L 361 103 L 361.5 101 L 364 102 Q 362.7 105.3 367.5 104 L 369 105.5 L 368 108.5 Q 366.9 111.8 369.5 111 Q 367.8 109 371.5 107 L 370.5 110 Q 371.9 112.6 376.5 112 L 378 111.5 Q 375.3 112.3 376 116.5 L 377 116.5 L 377.5 114 L 380 115 L 379 119 L 381 119 Q 379.9 116.3 382.5 117 L 384 120 L 388 119.5 L 386 119 L 383.5 115 L 381 113.5 L 382.5 114 L 387.5 117 L 389 116.5 Q 386.8 117.8 389.5 119 L 391.5 118 L 391.5 120 Q 395.7 118.7 394 123.5 L 396 122.5 L 395.5 121 L 397 121 Q 395.5 124.7 398.5 124 L 401.5 126 L 403.5 126 L 406.5 128 L 408 127.5 L 409.5 130 L 411 129.5 L 410 132.5 L 418 136 L 418.5 134 L 419.5 136 L 416 138.5 L 416.5 140 L 421.5 136 L 424 137 Q 425.1 139.7 422.5 139 Q 421.3 136.8 420 139.5 Q 419.2 142.1 422.5 141 L 425 140.5 Q 423.9 137.2 426.5 138 L 427.5 140 L 417.5 146 L 419 143.5 Q 419.7 140.5 416 142 L 416 147 L 414.5 147 L 411.5 149 L 411 146.5 L 412.5 145 L 414 144.5 L 410.5 144 Q 408.5 148 406.5 144 Q 403.9 143.3 405 146 L 407 146.5 L 402.5 148 L 400.5 145 L 400 146.5 L 400.5 148 L 399 148 Q 400.5 144.3 397.5 145 L 394 147 L 393.5 145 L 392 145.5 L 390.5 143 L 388.5 144 L 382 138.5 Q 382.8 135.9 379.5 137 L 377.5 136 Q 376.2 138.3 375 135.5 L 373.5 133 L 372 133.5 L 372.5 132 L 371 131.5 L 372 128.5 L 370.5 129 L 368 130.5 L 368.5 132 L 367.5 129 Q 364.2 130.1 365 127.5 L 362.5 124 L 360.5 123 L 357.5 125 L 358 121.5 Q 358.8 119.3 356.5 120 L 354.5 123 Q 357.1 122.3 356 125 L 353.5 126 L 350.5 125 L 347.5 129 L 344.5 128 L 344.5 129 L 346 129.5 L 343.5 131 Q 342 128.5 340.5 132 L 337 133.5 L 337.5 135 L 336 134.5 Q 336.8 137.1 333.5 136 L 329.5 139 L 328 138.5 Q 328.8 140.8 326.5 140 L 322.5 143 L 324 140.5 L 322.5 139 L 320 140.5 L 321 143.5 L 315 145.5 L 317 146.5 L 313.5 147 L 311.5 147 L 306 150.5 L 308 151.5 L 302 152 L 300.5 156 L 299.5 153 Q 295.8 152 297 155 Q 299.7 153.9 299 156.5 Q 297.3 154.9 295.5 158 L 292 159 Q 293.1 161.7 290.5 161 L 289 161.5 L 291.5 158 L 294 156.5 Q 294.8 153.5 291 155 L 289.5 158 L 288 157.5 L 289 159.5 L 286 160 L 287 164 Q 284.3 165.1 285 162.5 L 283.5 163 L 281 164.5 L 283 165.5 L 281.5 166 Q 279.8 162.9 278 164.5 L 279 162.5 L 276 161 Q 277.1 163.7 274.5 163 L 275.5 160 L 271.5 159 L 269 160 L 269.5 157 L 272 158 L 270.5 155 L 268 156.5 Q 268.8 158.8 266.5 158 L 264 156.5 L 268 154.5 L 266.5 154 L 262.5 156 L 263.5 154 L 268 152.5 L 267.5 151 L 269.5 151 L 271 150.5 L 268.5 149 L 265.5 151 L 264 150.5 L 265 152.5 L 262.5 153 L 261.5 151 L 264.5 149 L 266 149.5 L 266.5 148 L 268 148.5 L 268.5 147 L 270 147.5 L 271.5 145 L 272 146.5 L 272 148.5 Q 271.3 150.8 273.5 150 L 280 147 Q 281.8 142.1 275.5 144 L 275.5 143 L 280 142.5 Q 277.8 141.3 280.5 140 L 282.5 139 L 286.5 142 L 287.5 140 L 285 139.5 Q 288.4 136.3 296 138 L 296 136 L 292 136 L 292 134.5 L 293.5 135 L 296.5 133 L 299.5 134 L 299.5 133 L 298 132.5 L 298.5 130 L 300.5 130 L 302.5 129 L 304 129.5 L 303 127.5 L 304.5 126 L 308.5 128 Q 311.8 129.1 311 126.5 L 308 125.5 L 311.5 124 Q 313.8 124.8 313 122.5 Q 314.2 119.3 318 120 L 317 123.5 L 319 124 Q 318 120.2 320.5 119 L 322 119.5 L 321 117.5 L 323.5 116 L 328 118 L 328.5 114 L 331 115 L 330 120 L 336 115.5 Q 336.8 113.3 334.5 114 L 332.5 113 Q 331.3 115.2 330 112.5 L 338.5 107 L 337 109.5 Q 337.9 112.5 333.5 111 L 333.5 112 L 336 112 L 336.5 114 L 344 114 L 343 111.5 L 343.5 110 L 341.5 109 L 339.5 112 L 339 110.5 L 341 107.5 Q 338.8 106.3 341.5 105 L 342 109 Q 344.7 110.1 344 107.5 L 343 105.5 L 348.5 101 L 350 101.5 Q 349.3 99.3 351.5 100 L 352.5 99 Z M 345 120 L 346 121 L 348 125 L 352 123 L 354 125 L 353 121 L 345 120 Z M 316 121 L 314 124 L 317 122 L 316 121 Z M 393 121 L 392 126 L 393 126 L 393 121 Z M 314 125 L 312 127 L 313 128 L 315 127 L 314 125 Z M 317 125 L 318 127 L 320 127 L 317 125 Z M 344 125 Q 343 128 346 127 Q 347 124 344 125 Z M 396 125 Q 395 129 402 128 L 401 126 L 399 127 L 399 126 L 396 125 Z M 341 128 L 339 130 L 337 129 L 336 131 Q 341 132 343 129 L 341 128 Z M 374 129 L 373 132 L 376 133 L 376 130 L 374 129 Z M 409 130 L 408 133 L 409 133 L 409 130 Z M 300 131 Q 299 134 302 133 Q 303 130 300 131 Z M 303 133 L 301 136 L 303 135 L 303 133 Z M 297 134 L 296 136 L 299 136 L 297 134 Z M 320 136 L 320 138 L 322 137 L 320 136 Z M 324 136 L 327 139 L 326 138 L 328 137 L 324 136 Z M 387 136 L 386 138 L 389 137 L 387 136 Z M 385 139 L 386 141 L 388 140 L 385 139 Z M 390 140 L 387 142 L 390 143 L 391 141 L 390 140 Z M 281 141 L 282 143 L 284 142 L 281 141 Z M 308 144 L 308 145 L 310 145 L 308 144 Z M 395 144 L 395 145 L 397 145 L 395 144 Z M 305 145 L 304 151 L 305 151 Q 304 148 308 149 L 306 147 L 307 146 L 305 145 Z M 272 151 L 271 155 L 272 155 L 272 151 Z M 290 152 L 290 153 L 294 153 L 290 152 Z M 281 160 L 281 162 L 281 163 L 283 162 Q 284 159 281 160 Z " /><path fill="rgb(255,255,255)" stroke="rgb(255,255,255)" stroke-width="1" opacity="1" d="M 467.5 102 Q 470.5 103.5 467.5 105 Q 464.5 103.5 467.5 102 Z " /><path fill="rgb(255,255,255)" stroke="rgb(255,255,255)" stroke-width="1" opacity="1" d="M 373.5 108 L 376 109 Q 377.1 111.7 374.5 111 L 373.5 108 Z " /><path fill="rgb(255,255,255)" stroke="rgb(255,255,255)" stroke-width="1" opacity="1" d="M 414.5 132 Q 416.8 131.3 416 133.5 L 414.5 132 Z " /><path fill="rgb(255,255,255)" stroke="rgb(255,255,255)" stroke-width="1" opacity="1" d="M 404.5 148 L 407.5 149 L 410 149.5 L 407.5 151 L 403.5 150 L 403.5 152 L 399 149.5 L 400.5 149 L 402.5 150 L 404.5 148 Z " /><path fill="rgb(255,255,255)" stroke="rgb(255,255,255)" stroke-width="1" opacity="1" d="M 354.5 183 L 356 183.5 L 356 185.5 L 357.5 188 L 360.5 189 L 360.5 187 L 362.5 188 L 364.5 188 L 368 189.5 L 365.5 190 L 364 189.5 L 363.5 191 L 362.5 189 L 361 192 L 365.5 191 L 368.5 193 L 370.5 192 L 372 193.5 Q 368.5 195 371 196.5 Q 370.3 198.8 372.5 198 Q 370.9 196.3 374 194.5 L 374.5 193 Q 378.7 194.8 376 196.5 Q 376.8 199.1 373.5 198 L 367.5 202 L 363.5 200 L 363.5 201 Q 366.1 200.3 365 203 L 363 203.5 L 363.5 205 L 359.5 203 L 356 205.5 L 355 207.5 L 355.5 209 L 352 208 Q 354.1 202.8 349.5 204 L 347.5 205 L 344 203 L 343.5 201 Q 342.3 203.3 341 200.5 L 343 199.5 L 341 198.5 L 342 195.5 L 341 191.5 L 345.5 188 L 346.5 190 L 347 187 L 349.5 186 L 350 188 L 352 187.5 L 352 185.5 Q 351.3 183.3 353.5 184 L 354.5 183 Z M 348 190 L 346 191 L 346 192 L 349 191 L 348 190 Z M 369 198 L 368 201 L 369 201 L 369 198 Z M 345 200 L 346 202 L 349 204 L 351 200 L 348 201 L 345 200 Z " /><path fill="rgb(255,255,255)" stroke="rgb(255,255,255)" stroke-width="1" opacity="1" d="M 338.5 192 L 340 197.5 L 338.5 200 L 337.5 198 L 339 197.5 L 336.5 197 L 334.5 197 Q 332.3 197.8 333 195.5 L 335.5 195 L 339 194.5 L 337 193.5 L 338.5 192 Z " /><path fill="rgb(255,255,255)" stroke="rgb(255,255,255)" stroke-width="1" opacity="1" d="M 240.5 286 L 243 287.5 Q 244 291.3 241 290 L 240.5 286 Z " /><path fill="rgb(255,255,255)" stroke="rgb(255,255,255)" stroke-width="1" opacity="1" d="M 244.5 288 Q 246.8 287.3 246 289.5 L 244.5 288 Z " /><path fill="rgb(255,255,255)" stroke="rgb(255,255,255)" stroke-width="1" opacity="1" d="M 439.5 289 L 439.5 292 L 436.5 293 L 439.5 289 Z " /><path fill="rgb(255,255,255)" stroke="rgb(255,255,255)" stroke-width="1" opacity="1" d="M 420.5 300 Q 422.8 299.3 422 301.5 L 420.5 300 Z " /><path fill="rgb(255,255,255)" stroke="rgb(255,255,255)" stroke-width="1" opacity="1" d="M 272.5 304 L 275 305 L 274.5 308 L 272.5 304 Z " /><path fill="rgb(255,255,255)" stroke="rgb(255,255,255)" stroke-width="1" opacity="1" d="M 281.5 309 L 282.5 311 L 279 310.5 L 281.5 309 Z " /><path fill="rgb(255,255,255)" stroke="rgb(255,255,255)" stroke-width="1" opacity="1" d="M 403.5 310 L 406 310.5 Q 406.8 312.8 404.5 312 L 402.5 312 L 401 311.5 L 403.5 310 Z " /><path fill="rgb(255,255,255)" stroke="rgb(255,255,255)" stroke-width="1" opacity="1" d="M 367.5 331 L 370 332 Q 371.8 337.3 364.5 335 L 367.5 331 Z " /><path fill="rgb(241,101,40)" stroke="rgb(241,101,40)" stroke-width="1" opacity="1" d="M 341.5 35 L 344.5 35 L 357.5 42 L 471.5 109 L 477 111 L 476.5 266 L 381 210.5 L 381 196.5 L 378.5 194 L 356 182 L 356 155.5 L 357.5 155 L 401.5 181 L 406.5 182 L 430 167.5 L 430 139.5 L 428.5 138 L 355.5 96 L 261.5 149 L 256 153.5 L 256 181.5 L 257.5 182 L 281.5 196 L 306 183 L 306 209.5 L 303.5 212 L 209.5 266 L 209 111 L 223.5 104 L 341.5 35 Z " /><path fill="rgb(250,211,142)" stroke="rgb(250,211,142)" stroke-width="1" opacity="1" d="M 334.5 38 L 333.5 40 L 334.5 38 Z " /><path fill="rgb(250,211,142)" stroke="rgb(250,211,142)" stroke-width="1" opacity="1" d="M 351.5 38 L 355 40.5 L 353.5 40 L 351.5 38 Z " /><path fill="rgb(250,211,142)" stroke="rgb(250,211,142)" stroke-width="1" opacity="1" d="M 315.5 49 L 314.5 51 L 312.5 52 L 313.5 50 L 315.5 49 Z " /><path fill="rgb(250,211,142)" stroke="rgb(250,211,142)" stroke-width="1" opacity="1" d="M 372.5 50 L 373.5 52 L 372.5 50 Z " /><path fill="rgb(250,211,142)" stroke="rgb(250,211,142)" stroke-width="1" opacity="1" d="M 308.5 53 L 307.5 55 L 308.5 53 Z " /><path fill="rgb(250,211,142)" stroke="rgb(250,211,142)" stroke-width="1" opacity="1" d="M 379.5 54 L 380.5 56 L 379.5 54 Z " /><path fill="rgb(250,211,142)" stroke="rgb(250,211,142)" stroke-width="1" opacity="1" d="M 296.5 60 L 295.5 62 L 296.5 60 Z " /><path fill="rgb(250,211,142)" stroke="rgb(250,211,142)" stroke-width="1" opacity="1" d="M 289.5 64 L 288.5 66 L 289.5 64 Z " /><path fill="rgb(250,211,142)" stroke="rgb(250,211,142)" stroke-width="1" opacity="1" d="M 398.5 65 L 399.5 67 L 398.5 65 Z " /><path fill="rgb(250,211,142)" stroke="rgb(250,211,142)" stroke-width="1" opacity="1" d="M 417.5 76 L 418.5 78 L 417.5 76 Z " /><path fill="rgb(250,211,142)" stroke="rgb(250,211,142)" stroke-width="1" opacity="1" d="M 424.5 80 L 425.5 82 L 424.5 80 Z " /><path fill="rgb(250,211,142)" stroke="rgb(250,211,142)" stroke-width="1" opacity="1" d="M 251.5 86 L 250.5 88 L 251.5 86 Z " /><path fill="rgb(250,211,142)" stroke="rgb(250,211,142)" stroke-width="1" opacity="1" d="M 443.5 91 L 444.5 93 L 443.5 91 Z " /><path fill="rgb(250,211,142)" stroke="rgb(250,211,142)" stroke-width="1" opacity="1" d="M 237.5 94 L 236.5 96 L 237.5 94 Z " /><path fill="rgb(250,211,142)" stroke="rgb(250,211,142)" stroke-width="1" opacity="1" d="M 225.5 101 L 224.5 103 L 225.5 101 Z " /><path fill="rgb(250,211,142)" stroke="rgb(250,211,142)" stroke-width="1" opacity="1" d="M 477.5 111 L 478 265.5 L 477 265.5 L 477.5 111 Z " /><path fill="rgb(250,211,142)" stroke="rgb(250,211,142)" stroke-width="1" opacity="1" d="M 325.5 113 L 324.5 115 L 325.5 113 Z " /><path fill="rgb(250,211,142)" stroke="rgb(250,211,142)" stroke-width="1" opacity="1" d="M 318.5 117 L 317.5 119 L 318.5 117 Z " /><path fill="rgb(250,211,142)" stroke="rgb(250,211,142)" stroke-width="1" opacity="1" d="M 400.5 122 L 401.5 124 L 400.5 122 Z " /><path fill="rgb(250,211,142)" stroke="rgb(250,211,142)" stroke-width="1" opacity="1" d="M 355.5 125 L 405.5 154 L 429 141 L 428 138.5 L 430 139.5 L 430 167.5 L 428.5 169 L 412.5 178 L 411 177.5 L 409.5 180 L 404.5 182 L 359.5 155 L 355.5 154 L 356 155.5 L 356 179.5 L 355 180.5 L 356.5 183 L 353.5 182 L 331 195 Q 329.9 197.7 332.5 197 L 356.5 210 L 380 197 L 380 224.5 L 378.5 225 L 356 238.5 L 356 266.5 L 354.5 267 L 330.5 281 L 306 267 L 305.5 182 Q 294.7 190.2 280.5 195 L 257 182 L 257 154.5 L 258.5 154 L 276.5 165 L 282.5 167 L 350.5 129 L 355.5 125 Z " /><path fill="rgb(250,211,142)" stroke="rgb(250,211,142)" stroke-width="1" opacity="1" d="M 407.5 126 L 411 128.5 L 409.5 128 L 407.5 126 Z " /><path fill="rgb(250,211,142)" stroke="rgb(250,211,142)" stroke-width="1" opacity="1" d="M 288.5 134 L 287.5 136 L 288.5 134 Z " /><path fill="rgb(250,211,142)" stroke="rgb(250,211,142)" stroke-width="1" opacity="1" d="M 421.5 134 L 422.5 136 L 421.5 134 Z " /><path fill="rgb(250,211,142)" stroke="rgb(250,211,142)" stroke-width="1" opacity="1" d="M 281.5 138 L 280.5 140 L 281.5 138 Z " /><path fill="rgb(250,211,142)" stroke="rgb(250,211,142)" stroke-width="1" opacity="1" d="M 274.5 142 L 273.5 144 L 274.5 142 Z " /><path fill="rgb(250,211,142)" stroke="rgb(250,211,142)" stroke-width="1" opacity="1" d="M 364.5 186 L 365.5 188 L 364.5 186 Z " /><path fill="rgb(250,211,142)" stroke="rgb(250,211,142)" stroke-width="1" opacity="1" d="M 371.5 190 L 372.5 192 L 371.5 190 Z " /><path fill="rgb(250,211,142)" stroke="rgb(250,211,142)" stroke-width="1" opacity="1" d="M 473.5 268 L 472.5 270 L 470.5 271 L 471.5 269 L 473.5 268 Z " /><path fill="rgb(250,211,142)" stroke="rgb(250,211,142)" stroke-width="1" opacity="1" d="M 214.5 269 L 215.5 271 L 214.5 269 Z " /><path fill="rgb(250,211,142)" stroke="rgb(250,211,142)" stroke-width="1" opacity="1" d="M 219.5 272 L 225 275.5 L 223.5 275 Q 219.5 274.5 219.5 272 Z " /><path fill="rgb(250,211,142)" stroke="rgb(250,211,142)" stroke-width="1" opacity="1" d="M 466.5 272 L 465.5 274 L 466.5 272 Z " /><path fill="rgb(250,211,142)" stroke="rgb(250,211,142)" stroke-width="1" opacity="1" d="M 447.5 283 L 446.5 285 L 444.5 286 L 445.5 284 L 447.5 283 Z " /><path fill="rgb(250,211,142)" stroke="rgb(250,211,142)" stroke-width="1" opacity="1" d="M 240.5 284 L 241.5 286 L 240.5 284 Z " /><path fill="rgb(250,211,142)" stroke="rgb(250,211,142)" stroke-width="1" opacity="1" d="M 442.5 286 L 441.5 288 L 439.5 289 L 440.5 287 L 442.5 286 Z " /><path fill="rgb(250,211,142)" stroke="rgb(250,211,142)" stroke-width="1" opacity="1" d="M 245.5 287 L 246.5 289 L 245.5 287 Z " /><path fill="rgb(250,211,142)" stroke="rgb(250,211,142)" stroke-width="1" opacity="1" d="M 435.5 290 L 434.5 292 L 435.5 290 Z " /><path fill="rgb(250,211,142)" stroke="rgb(250,211,142)" stroke-width="1" opacity="1" d="M 428.5 294 L 427.5 296 L 428.5 294 Z " /><path fill="rgb(250,211,142)" stroke="rgb(250,211,142)" stroke-width="1" opacity="1" d="M 259.5 295 L 260.5 297 L 259.5 295 Z " /><path fill="rgb(250,211,142)" stroke="rgb(250,211,142)" stroke-width="1" opacity="1" d="M 271.5 302 L 272.5 304 L 271.5 302 Z " /><path fill="rgb(250,211,142)" stroke="rgb(250,211,142)" stroke-width="1" opacity="1" d="M 409.5 305 L 408.5 307 L 406.5 308 L 407.5 306 L 409.5 305 Z " /><path fill="rgb(250,211,142)" stroke="rgb(250,211,142)" stroke-width="1" opacity="1" d="M 278.5 306 L 279.5 308 L 278.5 306 Z " /><path fill="rgb(250,211,142)" stroke="rgb(250,211,142)" stroke-width="1" opacity="1" d="M 402.5 309 L 401.5 311 L 402.5 309 Z " /><path fill="rgb(250,211,142)" stroke="rgb(250,211,142)" stroke-width="1" opacity="1" d="M 285.5 310 L 286.5 312 L 285.5 310 Z " /><path fill="rgb(250,211,142)" stroke="rgb(250,211,142)" stroke-width="1" opacity="1" d="M 390.5 316 L 389.5 318 L 387.5 319 L 388.5 317 L 390.5 316 Z " /><path fill="rgb(250,211,142)" stroke="rgb(250,211,142)" stroke-width="1" opacity="1" d="M 297.5 317 L 298.5 319 L 297.5 317 Z " /><path fill="rgb(250,211,142)" stroke="rgb(250,211,142)" stroke-width="1" opacity="1" d="M 383.5 320 L 382.5 322 L 380.5 323 L 381.5 321 L 383.5 320 Z " /><path fill="rgb(250,211,142)" stroke="rgb(250,211,142)" stroke-width="1" opacity="1" d="M 304.5 321 L 305.5 323 L 304.5 321 Z " /><path fill="rgb(250,211,142)" stroke="rgb(250,211,142)" stroke-width="1" opacity="1" d="M 369.5 328 L 368.5 330 L 369.5 328 Z " /><path fill="rgb(250,211,142)" stroke="rgb(250,211,142)" stroke-width="1" opacity="1" d="M 364.5 331 L 363.5 333 L 364.5 331 Z " /><path fill="rgb(250,211,142)" stroke="rgb(250,211,142)" stroke-width="1" opacity="1" d="M 323.5 332 L 327 334.5 L 325.5 334 L 323.5 332 Z " /><path fill="rgb(250,211,142)" stroke="rgb(250,211,142)" stroke-width="1" opacity="1" d="M 357.5 335 L 356.5 337 L 357.5 335 Z " /><path fill="rgb(250,211,142)" stroke="rgb(250,211,142)" stroke-width="1" opacity="1" d="M 330.5 336 L 331.5 338 L 330.5 336 Z " /><path fill="rgb(250,211,142)" stroke="rgb(250,211,142)" stroke-width="1" opacity="1" d="M 335.5 339 L 336.5 341 L 335.5 339 Z " /><path fill="rgb(250,211,142)" stroke="rgb(250,211,142)" stroke-width="1" opacity="1" d="M 345.5 342 L 344.5 344 L 345.5 342 Z " /><path fill="rgb(247,147,43)" stroke="rgb(247,147,43)" stroke-width="1" opacity="1" d="M 256.5 153 L 257 181.5 L 256 181.5 L 256.5 153 Z " /><path fill="rgb(247,147,43)" stroke="rgb(247,147,43)" stroke-width="1" opacity="1" d="M 355.5 154 L 361 156.5 L 359.5 156 L 355.5 155 L 355.5 154 Z " /><path fill="rgb(247,147,43)" stroke="rgb(247,147,43)" stroke-width="1" opacity="1" d="M 364.5 158 L 365.5 160 L 364.5 158 Z " /><path fill="rgb(247,147,43)" stroke="rgb(247,147,43)" stroke-width="1" opacity="1" d="M 374.5 164 L 378 166.5 L 376.5 166 L 374.5 164 Z " /><path fill="rgb(247,147,43)" stroke="rgb(247,147,43)" stroke-width="1" opacity="1" d="M 381.5 168 L 387 171.5 L 385.5 171 Q 381.5 170.5 381.5 168 Z " /><path fill="rgb(247,147,43)" stroke="rgb(247,147,43)" stroke-width="1" opacity="1" d="M 388.5 172 L 389.5 174 L 388.5 172 Z " /><path fill="rgb(247,147,43)" stroke="rgb(247,147,43)" stroke-width="1" opacity="1" d="M 395.5 176 L 396.5 178 L 395.5 176 Z " /><path fill="rgb(247,147,43)" stroke="rgb(247,147,43)" stroke-width="1" opacity="1" d="M 400.5 179 L 404 181.5 L 402.5 181 L 400.5 179 Z " /><path fill="rgb(247,147,43)" stroke="rgb(247,147,43)" stroke-width="1" opacity="1" d="M 260.5 183 L 264 185.5 L 262.5 185 L 260.5 183 Z " /><path fill="rgb(247,147,43)" stroke="rgb(247,147,43)" stroke-width="1" opacity="1" d="M 265.5 186 L 269 188.5 L 267.5 188 L 265.5 186 Z " /><path fill="rgb(247,147,43)" stroke="rgb(247,147,43)" stroke-width="1" opacity="1" d="M 272.5 190 L 276 192.5 L 274.5 192 L 272.5 190 Z " /><path fill="rgb(247,147,43)" stroke="rgb(247,147,43)" stroke-width="1" opacity="1" d="M 279.5 194 L 282 195.5 L 280.5 196 L 279.5 194 Z " /><path fill="rgb(247,147,43)" stroke="rgb(247,147,43)" stroke-width="1" opacity="1" d="M 380.5 196 L 381 224.5 L 380 224.5 L 380.5 196 Z " /><path fill="rgb(247,147,43)" stroke="rgb(247,147,43)" stroke-width="1" opacity="1" d="M 305.5 210 L 306 267 L 309 268.5 L 307.5 268 L 305 266.5 L 305.5 210 Z " /><path fill="rgb(247,147,43)" stroke="rgb(247,147,43)" stroke-width="1" opacity="1" d="M 391 217 Q 394 216 393 219 Q 390 220 391 217 Z " /><path fill="rgb(247,147,43)" stroke="rgb(247,147,43)" stroke-width="1" opacity="1" d="M 283.5 223 L 282.5 225 L 283.5 223 Z " /><path fill="rgb(247,147,43)" stroke="rgb(247,147,43)" stroke-width="1" opacity="1" d="M 411.5 228 L 415 230.5 L 413.5 230 L 411.5 228 Z " /><path fill="rgb(247,147,43)" stroke="rgb(247,147,43)" stroke-width="1" opacity="1" d="M 371.5 229 L 372.5 231 L 371.5 229 Z " /><path fill="rgb(247,147,43)" stroke="rgb(247,147,43)" stroke-width="1" opacity="1" d="M 375.5 230 L 378 230.5 L 375.5 231 L 375.5 230 Z " /><path fill="rgb(247,147,43)" stroke="rgb(247,147,43)" stroke-width="1" opacity="1" d="M 364.5 233 L 363.5 235 L 362 235.5 L 362.5 237 Q 359.5 235.5 362.5 234 L 364.5 233 Z " /><path fill="rgb(247,147,43)" stroke="rgb(247,147,43)" stroke-width="1" opacity="1" d="M 425.5 236 L 429 238.5 L 427.5 238 L 425.5 236 Z " /><path fill="rgb(247,147,43)" stroke="rgb(247,147,43)" stroke-width="1" opacity="1" d="M 357.5 237 L 356.5 239 L 357.5 237 Z " /><path fill="rgb(247,147,43)" stroke="rgb(247,147,43)" stroke-width="1" opacity="1" d="M 440.5 245 L 443 246.5 L 441.5 247 L 440.5 245 Z " /><path fill="rgb(247,147,43)" stroke="rgb(247,147,43)" stroke-width="1" opacity="1" d="M 444.5 247 L 448 249.5 L 445.5 250 L 444.5 247 Z " /><path fill="rgb(247,147,43)" stroke="rgb(247,147,43)" stroke-width="1" opacity="1" d="M 460.5 257 L 465 259.5 L 463.5 259 Q 459.7 258.8 460.5 257 Z " /><path fill="rgb(247,147,43)" stroke="rgb(247,147,43)" stroke-width="1" opacity="1" d="M 215.5 263 L 216.5 265 L 215.5 263 Z " /><path fill="rgb(247,147,43)" stroke="rgb(247,147,43)" stroke-width="1" opacity="1" d="M 212.5 264 L 213 266 L 211 265.5 L 212.5 264 Z " /><path fill="rgb(247,147,43)" stroke="rgb(247,147,43)" stroke-width="1" opacity="1" d="M 472.5 264 Q 474.8 263.3 474 265.5 L 472.5 264 Z " /><path fill="rgb(247,147,43)" stroke="rgb(247,147,43)" stroke-width="1" opacity="1" d="M 475.5 265 L 476.5 267 L 475.5 265 Z " /><path fill="rgb(247,147,43)" stroke="rgb(247,147,43)" stroke-width="1" opacity="1" d="M 220.5 269 L 218.5 272 L 220.5 269 Z " /><path fill="rgb(247,147,43)" stroke="rgb(247,147,43)" stroke-width="1" opacity="1" d="M 310.5 269 L 316 272.5 L 312.5 275 L 313.5 273 L 315 272.5 Q 310.7 271.7 310.5 269 Z " /><path fill="rgb(247,147,43)" stroke="rgb(247,147,43)" stroke-width="1" opacity="1" d="M 470.5 269 L 469.5 271 L 470.5 269 Z " /><path fill="rgb(247,147,43)" stroke="rgb(247,147,43)" stroke-width="1" opacity="1" d="M 349.5 270 L 348.5 272 L 346.5 273 L 347.5 271 L 349.5 270 Z " /><path fill="rgb(247,147,43)" stroke="rgb(247,147,43)" stroke-width="1" opacity="1" d="M 317.5 273 L 328 279.5 L 326.5 279 L 318.5 275 L 317.5 273 Z " /><path fill="rgb(247,147,43)" stroke="rgb(247,147,43)" stroke-width="1" opacity="1" d="M 461.5 273 L 462.5 275 L 461.5 273 Z " /><path fill="rgb(247,147,43)" stroke="rgb(247,147,43)" stroke-width="1" opacity="1" d="M 342.5 274 L 341.5 276 L 342.5 274 Z " /><path fill="rgb(247,147,43)" stroke="rgb(247,147,43)" stroke-width="1" opacity="1" d="M 459.5 274 Q 462.5 275.5 459.5 277 L 459.5 274 Z " /><path fill="rgb(247,147,43)" stroke="rgb(247,147,43)" stroke-width="1" opacity="1" d="M 344.5 275 L 343.5 277 L 344.5 275 Z " /><path fill="rgb(247,147,43)" stroke="rgb(247,147,43)" stroke-width="1" opacity="1" d="M 451 277 L 453 277.5 L 451 278.5 L 451 277 Z " /><path fill="rgb(247,147,43)" stroke="rgb(247,147,43)" stroke-width="1" opacity="1" d="M 335.5 278 L 334.5 280 L 335.5 278 Z " /><path fill="rgb(247,147,43)" stroke="rgb(247,147,43)" stroke-width="1" opacity="1" d="M 453.5 279 L 452.5 281 L 453.5 279 Z " /><path fill="rgb(247,147,43)" stroke="rgb(247,147,43)" stroke-width="1" opacity="1" d="M 236.5 280 L 235.5 282 L 236.5 280 Z " /><path fill="rgb(247,147,43)" stroke="rgb(247,147,43)" stroke-width="1" opacity="1" d="M 329.5 280 L 331.5 281 L 333 280.5 L 330.5 282 L 329.5 280 Z " /><path fill="rgb(247,147,43)" stroke="rgb(247,147,43)" stroke-width="1" opacity="1" d="M 449.5 280 L 450.5 282 L 449.5 280 Z " /><path fill="rgb(247,147,43)" stroke="rgb(247,147,43)" stroke-width="1" opacity="1" d="M 238.5 281 L 237.5 283 L 238.5 281 Z " /><path fill="rgb(247,147,43)" stroke="rgb(247,147,43)" stroke-width="1" opacity="1" d="M 240.5 282 L 239.5 284 L 240.5 282 Z " /><path fill="rgb(247,147,43)" stroke="rgb(247,147,43)" stroke-width="1" opacity="1" d="M 241.5 284 L 242.5 286 L 241.5 284 Z " /><path fill="rgb(247,147,43)" stroke="rgb(247,147,43)" stroke-width="1" opacity="1" d="M 334.5 286 Q 336.8 285.3 336 287.5 L 334.5 286 Z " /><path fill="rgb(247,147,43)" stroke="rgb(247,147,43)" stroke-width="1" opacity="1" d="M 256.5 290 L 259 291.5 L 258.5 293 L 258 291 L 256.5 290 Z " /><path fill="rgb(247,147,43)" stroke="rgb(247,147,43)" stroke-width="1" opacity="1" d="M 434.5 290 L 433.5 292 L 434.5 290 Z " /><path fill="rgb(247,147,43)" stroke="rgb(247,147,43)" stroke-width="1" opacity="1" d="M 427.5 294 L 426.5 296 L 427.5 294 Z " /><path fill="rgb(247,147,43)" stroke="rgb(247,147,43)" stroke-width="1" opacity="1" d="M 260.5 295 L 261.5 297 L 260.5 295 Z " /><path fill="rgb(247,147,43)" stroke="rgb(247,147,43)" stroke-width="1" opacity="1" d="M 266.5 296 L 267.5 298 Q 264.7 298.7 266.5 296 Z " /><path fill="rgb(247,147,43)" stroke="rgb(247,147,43)" stroke-width="1" opacity="1" d="M 266.5 299 L 269 300.5 L 267.5 300 L 266.5 299 Z " /><path fill="rgb(247,147,43)" stroke="rgb(247,147,43)" stroke-width="1" opacity="1" d="M 411.5 299 L 413 301.5 L 411.5 301 L 410 300.5 L 411.5 299 Z " /><path fill="rgb(247,147,43)" stroke="rgb(247,147,43)" stroke-width="1" opacity="1" d="M 418.5 299 L 420 299.5 L 417.5 301 L 418.5 299 Z " /><path fill="rgb(247,147,43)" stroke="rgb(247,147,43)" stroke-width="1" opacity="1" d="M 271.5 300 L 270.5 302 L 271.5 300 Z " /><path fill="rgb(247,147,43)" stroke="rgb(247,147,43)" stroke-width="1" opacity="1" d="M 276.5 303 L 275.5 305 L 276.5 303 Z " /><path fill="rgb(247,147,43)" stroke="rgb(247,147,43)" stroke-width="1" opacity="1" d="M 279.5 303 L 277.5 306 L 279.5 303 Z " /><path fill="rgb(247,147,43)" stroke="rgb(247,147,43)" stroke-width="1" opacity="1" d="M 405.5 304 L 409 305.5 L 407.5 305 Q 404.5 305.5 405.5 304 Z " /><path fill="rgb(247,147,43)" stroke="rgb(247,147,43)" stroke-width="1" opacity="1" d="M 403.5 305 L 405.5 308 L 403.5 305 Z " /><path fill="rgb(247,147,43)" stroke="rgb(247,147,43)" stroke-width="1" opacity="1" d="M 279.5 306 L 282 306.5 Q 279.9 309.8 279.5 306 Z " /><path fill="rgb(247,147,43)" stroke="rgb(247,147,43)" stroke-width="1" opacity="1" d="M 394.5 307 L 395 309 L 393 308.5 L 394.5 307 Z " /><path fill="rgb(247,147,43)" stroke="rgb(247,147,43)" stroke-width="1" opacity="1" d="M 284 308 L 286 308.5 L 284 309.5 L 284 308 Z " /><path fill="rgb(247,147,43)" stroke="rgb(247,147,43)" stroke-width="1" opacity="1" d="M 286.5 310 L 287.5 312 L 286.5 310 Z " /><path fill="rgb(247,147,43)" stroke="rgb(247,147,43)" stroke-width="1" opacity="1" d="M 399.5 310 L 401 310.5 L 398.5 312 L 399.5 310 Z " /><path fill="rgb(247,147,43)" stroke="rgb(247,147,43)" stroke-width="1" opacity="1" d="M 396.5 312 L 395.5 314 L 396.5 312 Z " /><path fill="rgb(247,147,43)" stroke="rgb(247,147,43)" stroke-width="1" opacity="1" d="M 300.5 315 Q 304 317 299.5 319 L 300.5 315 Z " /><path fill="rgb(247,147,43)" stroke="rgb(247,147,43)" stroke-width="1" opacity="1" d="M 388.5 315 L 389.5 317 L 388.5 315 Z " /><path fill="rgb(247,147,43)" stroke="rgb(247,147,43)" stroke-width="1" opacity="1" d="M 311.5 320 L 314 321.5 L 312 322.5 L 311.5 320 Z " /><path fill="rgb(247,147,43)" stroke="rgb(247,147,43)" stroke-width="1" opacity="1" d="M 305.5 321 L 306.5 323 L 305.5 321 Z " /><path fill="rgb(247,147,43)" stroke="rgb(247,147,43)" stroke-width="1" opacity="1" d="M 377.5 323 L 376.5 325 L 377.5 323 Z " /><path fill="rgb(247,147,43)" stroke="rgb(247,147,43)" stroke-width="1" opacity="1" d="M 366.5 328 L 367.5 330 L 366.5 328 Z " /><path fill="rgb(247,147,43)" stroke="rgb(247,147,43)" stroke-width="1" opacity="1" d="M 352.5 329 L 353.5 331 L 352.5 329 Z " /><path fill="rgb(247,147,43)" stroke="rgb(247,147,43)" stroke-width="1" opacity="1" d="M 363.5 331 L 362.5 333 L 363.5 331 Z " /><path fill="rgb(247,147,43)" stroke="rgb(247,147,43)" stroke-width="1" opacity="1" d="M 355.5 333 L 356.5 335 L 355.5 333 Z " /><path fill="rgb(247,147,43)" stroke="rgb(247,147,43)" stroke-width="1" opacity="1" d="M 331.5 336 L 332.5 338 L 331.5 336 Z " /><path fill="rgb(247,147,43)" stroke="rgb(247,147,43)" stroke-width="1" opacity="1" d="M 351.5 336 L 352 338.5 L 350.5 340 L 350 337.5 L 351.5 336 Z " /><path fill="rgb(247,147,43)" stroke="rgb(247,147,43)" stroke-width="1" opacity="1" d="M 345.5 338 L 344.5 340 L 345.5 338 Z " /><path fill="rgb(247,147,43)" stroke="rgb(247,147,43)" stroke-width="1" opacity="1" d="M 344.5 342 L 343.5 344 L 344.5 342 Z " /><path fill="rgb(246,146,29)" stroke="rgb(246,146,29)" stroke-width="1" opacity="1" d="M 304.5 211 L 305 266.5 L 306.5 268 L 331.5 282 L 356 266.5 L 356 239.5 L 358.5 237 L 381 225 L 381.5 211 L 388 214.5 L 387.5 216 L 391 216 Q 389.5 219.8 392.5 219 L 394.5 218 L 412.5 230 L 437.5 243 L 441.5 247 L 444 247 L 445.5 250 L 448.5 250 L 460 256.5 Q 459.3 258.8 461.5 258 L 472 263 L 473.5 266 Q 474.8 263.8 476 266.5 L 351.5 338 L 348.5 341 L 342.5 343 L 285 309.5 L 285.5 308 L 282.5 309 L 267.5 299 L 265.5 299 L 222.5 273 L 210 267 L 210.5 265 L 213 266 L 214.5 263 L 216 263.5 Q 215.3 261.3 217.5 262 L 231.5 253 L 236 252 Q 234.8 249 238.5 250 L 266.5 233 L 268 233.5 Q 267.3 231.3 269.5 232 L 286 223 Q 284.8 220 288.5 221 L 297.5 215 L 300 215 Q 298.9 212.3 301.5 213 L 304.5 211 Z M 376 230 L 376 231 L 378 231 L 376 230 Z M 451 277 L 451 279 L 453 278 L 451 277 Z M 335 286 L 336 288 Q 337 285 335 286 Z M 267 296 Q 265 299 268 298 L 267 296 Z M 412 299 L 410 301 L 412 301 L 412 299 Z M 406 304 L 406 305 L 408 305 L 406 304 Z M 395 307 L 393 309 L 395 309 L 395 307 Z M 312 321 L 312 323 L 314 322 L 312 321 Z " /><path fill="rgb(252,243,234)" stroke="rgb(252,243,234)" stroke-width="1" opacity="1" d="M 359.5 42 L 360.5 44 L 359.5 42 Z " /><path fill="rgb(252,243,234)" stroke="rgb(252,243,234)" stroke-width="1" opacity="1" d="M 288.5 64 L 287.5 66 L 288.5 64 Z " /><path fill="rgb(252,243,234)" stroke="rgb(252,243,234)" stroke-width="1" opacity="1" d="M 399.5 65 L 400.5 67 L 399.5 65 Z " /><path fill="rgb(252,243,234)" stroke="rgb(252,243,234)" stroke-width="1" opacity="1" d="M 404.5 68 L 405.5 70 L 404.5 68 Z " /><path fill="rgb(252,243,234)" stroke="rgb(252,243,234)" stroke-width="1" opacity="1" d="M 271.5 74 L 270.5 76 L 268.5 77 L 269.5 75 L 271.5 74 Z " /><path fill="rgb(252,243,234)" stroke="rgb(252,243,234)" stroke-width="1" opacity="1" d="M 262.5 79 L 264 79.5 L 261.5 81 L 262.5 79 Z " /><path fill="rgb(252,243,234)" stroke="rgb(252,243,234)" stroke-width="1" opacity="1" d="M 425.5 80 L 426.5 82 L 425.5 80 Z " /><path fill="rgb(252,243,234)" stroke="rgb(252,243,234)" stroke-width="1" opacity="1" d="M 449.5 94 L 450.5 96 L 449.5 94 Z " /><path fill="rgb(252,243,234)" stroke="rgb(252,243,234)" stroke-width="1" opacity="1" d="M 224.5 101 L 223.5 103 L 221.5 104 L 222.5 102 L 224.5 101 Z " /><path fill="rgb(252,243,234)" stroke="rgb(252,243,234)" stroke-width="1" opacity="1" d="M 340.5 105 L 339.5 107 L 340.5 105 Z " /><path fill="rgb(252,243,234)" stroke="rgb(252,243,234)" stroke-width="1" opacity="1" d="M 468.5 105 L 469.5 107 L 468.5 105 Z " /><path fill="rgb(252,243,234)" stroke="rgb(252,243,234)" stroke-width="1" opacity="1" d="M 375.5 108 L 376.5 110 L 375.5 108 Z " /><path fill="rgb(252,243,234)" stroke="rgb(252,243,234)" stroke-width="1" opacity="1" d="M 209.5 110 L 209 111.5 L 208.5 267 L 208 111.5 L 209.5 110 Z " /><path fill="rgb(252,243,234)" stroke="rgb(252,243,234)" stroke-width="1" opacity="1" d="M 328.5 112 L 327.5 114 L 326 113.5 L 328.5 112 Z " /><path fill="rgb(252,243,234)" stroke="rgb(252,243,234)" stroke-width="1" opacity="1" d="M 354.5 125 L 353.5 127 L 337.5 136 L 338.5 134 L 354.5 125 Z " /><path fill="rgb(252,243,234)" stroke="rgb(252,243,234)" stroke-width="1" opacity="1" d="M 298.5 129 L 297.5 131 L 296 130.5 L 298.5 129 Z " /><path fill="rgb(252,243,234)" stroke="rgb(252,243,234)" stroke-width="1" opacity="1" d="M 365.5 130 L 366.5 132 L 365.5 130 Z " /><path fill="rgb(252,243,234)" stroke="rgb(252,243,234)" stroke-width="1" opacity="1" d="M 413.5 130 L 416 131.5 L 414.5 132 L 413.5 130 Z " /><path fill="rgb(252,243,234)" stroke="rgb(252,243,234)" stroke-width="1" opacity="1" d="M 368.5 132 L 374 135.5 L 372.5 135 Q 367.8 134.2 368.5 132 Z " /><path fill="rgb(252,243,234)" stroke="rgb(252,243,234)" stroke-width="1" opacity="1" d="M 420.5 134 L 421.5 136 L 420.5 134 Z " /><path fill="rgb(252,243,234)" stroke="rgb(252,243,234)" stroke-width="1" opacity="1" d="M 334.5 136 L 336 136.5 L 328.5 141 L 329.5 139 L 334.5 136 Z " /><path fill="rgb(252,243,234)" stroke="rgb(252,243,234)" stroke-width="1" opacity="1" d="M 377.5 137 L 378.5 139 L 377.5 137 Z " /><path fill="rgb(252,243,234)" stroke="rgb(252,243,234)" stroke-width="1" opacity="1" d="M 282.5 138 L 281.5 140 L 282.5 138 Z " /><path fill="rgb(252,243,234)" stroke="rgb(252,243,234)" stroke-width="1" opacity="1" d="M 427.5 140 L 429 140.5 L 426.5 142 L 427.5 140 Z " /><path fill="rgb(252,243,234)" stroke="rgb(252,243,234)" stroke-width="1" opacity="1" d="M 326.5 141 L 325.5 143 L 300.5 157 L 301.5 155 L 326.5 141 Z " /><path fill="rgb(252,243,234)" stroke="rgb(252,243,234)" stroke-width="1" opacity="1" d="M 423.5 142 L 425 142.5 L 419.5 146 L 420.5 144 L 423.5 142 Z " /><path fill="rgb(252,243,234)" stroke="rgb(252,243,234)" stroke-width="1" opacity="1" d="M 391.5 145 L 395 147.5 L 393.5 147 L 391.5 145 Z " /><path fill="rgb(252,243,234)" stroke="rgb(252,243,234)" stroke-width="1" opacity="1" d="M 417.5 146 L 416.5 148 L 407.5 153 L 408.5 151 L 417.5 146 Z " /><path fill="rgb(252,243,234)" stroke="rgb(252,243,234)" stroke-width="1" opacity="1" d="M 396.5 148 L 400 150.5 L 398.5 150 L 396.5 148 Z " /><path fill="rgb(252,243,234)" stroke="rgb(252,243,234)" stroke-width="1" opacity="1" d="M 403.5 152 L 406 153.5 L 404.5 154 L 403.5 152 Z " /><path fill="rgb(252,243,234)" stroke="rgb(252,243,234)" stroke-width="1" opacity="1" d="M 264.5 157 L 267 158.5 L 265.5 158 L 264.5 157 Z " /><path fill="rgb(252,243,234)" stroke="rgb(252,243,234)" stroke-width="1" opacity="1" d="M 298.5 157 L 297.5 159 L 291.5 162 L 293.5 159 L 298.5 157 Z " /><path fill="rgb(252,243,234)" stroke="rgb(252,243,234)" stroke-width="1" opacity="1" d="M 268.5 159 L 272 161.5 L 270.5 161 L 268.5 159 Z " /><path fill="rgb(252,243,234)" stroke="rgb(252,243,234)" stroke-width="1" opacity="1" d="M 289.5 162 L 288.5 164 L 284.5 166 L 285.5 164 L 289.5 162 Z " /><path fill="rgb(252,243,234)" stroke="rgb(252,243,234)" stroke-width="1" opacity="1" d="M 275.5 163 L 276.5 165 L 275.5 163 Z " /><path fill="rgb(252,243,234)" stroke="rgb(252,243,234)" stroke-width="1" opacity="1" d="M 353.5 182 L 355 182.5 L 352.5 184 L 353.5 182 Z " /><path fill="rgb(252,243,234)" stroke="rgb(252,243,234)" stroke-width="1" opacity="1" d="M 350.5 184 L 349.5 186 L 345.5 188 L 346.5 186 L 350.5 184 Z " /><path fill="rgb(252,243,234)" stroke="rgb(252,243,234)" stroke-width="1" opacity="1" d="M 363.5 186 L 364.5 188 L 363.5 186 Z " /><path fill="rgb(252,243,234)" stroke="rgb(252,243,234)" stroke-width="1" opacity="1" d="M 343.5 188 L 342.5 190 L 335.5 194 L 336.5 192 L 343.5 188 Z " /><path fill="rgb(252,243,234)" stroke="rgb(252,243,234)" stroke-width="1" opacity="1" d="M 379.5 195 L 380 197 L 375.5 199 L 376.5 197 L 379.5 195 Z " /><path fill="rgb(252,243,234)" stroke="rgb(252,243,234)" stroke-width="1" opacity="1" d="M 335.5 198 L 341 201.5 L 339.5 201 Q 335.5 200.5 335.5 198 Z " /><path fill="rgb(252,243,234)" stroke="rgb(252,243,234)" stroke-width="1" opacity="1" d="M 373.5 199 L 372.5 201 L 360.5 207 L 360.5 206 L 373.5 199 Z " /><path fill="rgb(252,243,234)" stroke="rgb(252,243,234)" stroke-width="1" opacity="1" d="M 346.5 204 L 347.5 206 L 346.5 204 Z " /><path fill="rgb(252,243,234)" stroke="rgb(252,243,234)" stroke-width="1" opacity="1" d="M 353.5 208 L 354.5 210 L 353.5 208 Z " /><path fill="rgb(252,243,234)" stroke="rgb(252,243,234)" stroke-width="1" opacity="1" d="M 357.5 208 L 359 208.5 L 356.5 210 L 357.5 208 Z " /><path fill="rgb(252,243,234)" stroke="rgb(252,243,234)" stroke-width="1" opacity="1" d="M 477.5 266 L 476.5 268 L 477.5 266 Z " /><path fill="rgb(252,243,234)" stroke="rgb(252,243,234)" stroke-width="1" opacity="1" d="M 213.5 269 L 214.5 271 L 213.5 269 Z " /><path fill="rgb(252,243,234)" stroke="rgb(252,243,234)" stroke-width="1" opacity="1" d="M 453.5 280 L 452.5 282 L 453.5 280 Z " /><path fill="rgb(252,243,234)" stroke="rgb(252,243,234)" stroke-width="1" opacity="1" d="M 234.5 281 L 235.5 283 L 234.5 281 Z " /><path fill="rgb(252,243,234)" stroke="rgb(252,243,234)" stroke-width="1" opacity="1" d="M 239.5 284 L 240.5 286 L 239.5 284 Z " /><path fill="rgb(252,243,234)" stroke="rgb(252,243,234)" stroke-width="1" opacity="1" d="M 443.5 286 L 442.5 288 L 443.5 286 Z " /><path fill="rgb(252,243,234)" stroke="rgb(252,243,234)" stroke-width="1" opacity="1" d="M 251.5 291 L 255 293.5 L 253.5 293 L 251.5 291 Z " /><path fill="rgb(252,243,234)" stroke="rgb(252,243,234)" stroke-width="1" opacity="1" d="M 258.5 295 L 259.5 297 L 258.5 295 Z " /><path fill="rgb(252,243,234)" stroke="rgb(252,243,234)" stroke-width="1" opacity="1" d="M 426.5 296 L 425.5 298 L 424 297.5 L 426.5 296 Z " /><path fill="rgb(252,243,234)" stroke="rgb(252,243,234)" stroke-width="1" opacity="1" d="M 417.5 301 L 416.5 303 L 414.5 304 L 415.5 302 L 417.5 301 Z " /><path fill="rgb(252,243,234)" stroke="rgb(252,243,234)" stroke-width="1" opacity="1" d="M 410.5 305 L 409.5 307 L 410.5 305 Z " /><path fill="rgb(252,243,234)" stroke="rgb(252,243,234)" stroke-width="1" opacity="1" d="M 277.5 306 L 278.5 308 L 277.5 306 Z " /><path fill="rgb(252,243,234)" stroke="rgb(252,243,234)" stroke-width="1" opacity="1" d="M 284.5 310 L 285.5 312 L 284.5 310 Z " /><path fill="rgb(252,243,234)" stroke="rgb(252,243,234)" stroke-width="1" opacity="1" d="M 391.5 316 L 390.5 318 L 391.5 316 Z " /><path fill="rgb(252,243,234)" stroke="rgb(252,243,234)" stroke-width="1" opacity="1" d="M 301.5 320 L 305 322.5 L 303.5 322 L 301.5 320 Z " /><path fill="rgb(252,243,234)" stroke="rgb(252,243,234)" stroke-width="1" opacity="1" d="M 384.5 320 L 383.5 322 L 384.5 320 Z " /><path fill="rgb(252,243,234)" stroke="rgb(252,243,234)" stroke-width="1" opacity="1" d="M 372.5 327 L 371.5 329 L 369.5 330 L 370.5 328 L 372.5 327 Z " /><path fill="rgb(252,243,234)" stroke="rgb(252,243,234)" stroke-width="1" opacity="1" d="M 329.5 336 L 330.5 338 L 329.5 336 Z " /><path fill="rgb(252,243,234)" stroke="rgb(252,243,234)" stroke-width="1" opacity="1" d="M 346.5 342 L 345.5 344 L 346.5 342 Z " /></svg>