<svg id="svg" version="1.1" xmlns="http://www.w3.org/2000/svg" xmlns:xlink="http://www.w3.org/1999/xlink" width="400" height="400" viewBox="0, 0, 400,400"><g id="svgg"><path id="path0" d="M112.800 206.400 L 112.800 300.000 138.143 300.000 C 170.498 300.000,177.830 299.431,189.800 295.994 C 190.680 295.741,191.897 295.438,192.505 295.321 C 193.113 295.204,193.708 294.949,193.829 294.754 C 193.949 294.559,194.399 294.400,194.829 294.400 C 195.259 294.400,195.923 294.234,196.305 294.032 C 196.687 293.830,198.080 293.258,199.400 292.763 C 203.860 291.089,210.753 287.826,215.200 285.285 C 217.256 284.110,227.697 277.202,228.000 276.816 C 228.110 276.676,228.830 276.129,229.600 275.600 C 230.370 275.071,231.090 274.537,231.200 274.413 C 231.310 274.289,233.110 272.722,235.200 270.930 C 243.263 264.018,253.596 252.704,259.431 244.400 C 260.281 243.190,261.090 242.110,261.228 242.000 C 261.539 241.753,265.873 235.180,267.162 233.000 C 276.977 216.407,283.287 202.501,288.490 186.000 C 289.358 183.250,290.310 180.100,290.608 179.000 C 290.905 177.900,291.447 175.920,291.813 174.600 C 292.747 171.227,293.523 167.948,294.418 163.600 C 295.556 158.066,295.650 157.561,296.838 150.600 C 298.104 143.176,299.008 133.349,299.847 117.900 L 300.124 112.800 275.062 112.800 L 250.000 112.800 250.000 118.386 C 250.000 129.643,247.586 147.394,244.340 160.000 C 242.520 167.068,241.745 169.655,239.602 175.800 C 238.362 179.356,238.143 179.943,237.254 182.100 C 237.004 182.705,236.620 183.650,236.400 184.200 C 221.188 222.230,191.184 249.916,165.100 249.992 L 162.400 250.000 162.400 181.400 L 162.400 112.800 137.600 112.800 L 112.800 112.800 112.800 206.400 " stroke="none" fill="#fbfbfb" fill-rule="evenodd"></path><path id="path1" d="M215.600 25.200 C 215.930 25.413,216.650 25.578,217.200 25.566 C 218.116 25.546,218.133 25.515,217.400 25.200 C 216.216 24.691,214.813 24.691,215.600 25.200 M160.100 28.676 C 160.485 28.776,161.115 28.776,161.500 28.676 C 161.885 28.575,161.570 28.493,160.800 28.493 C 160.030 28.493,159.715 28.575,160.100 28.676 M237.633 28.543 C 237.725 28.622,238.520 28.797,239.400 28.932 C 240.490 29.099,240.809 29.055,240.400 28.795 C 239.853 28.446,237.245 28.209,237.633 28.543 M187.600 31.605 C 186.610 31.790,184.858 31.954,183.707 31.970 C 181.730 31.998,179.194 32.309,173.200 33.257 C 168.300 34.032,165.799 34.474,164.400 34.812 C 163.630 34.997,162.190 35.332,161.200 35.555 C 153.371 37.316,141.274 40.994,137.304 42.820 C 136.372 43.249,135.424 43.600,135.199 43.600 C 134.974 43.600,134.477 43.760,134.095 43.956 C 133.447 44.288,132.127 44.884,127.900 46.751 C 114.216 52.795,99.168 62.381,86.000 73.443 C 80.319 78.215,68.592 90.250,64.400 95.610 C 63.630 96.594,62.577 97.881,62.061 98.470 C 57.420 103.756,47.687 119.370,42.905 129.200 C 38.091 139.096,32.798 153.008,31.186 160.000 C 31.009 160.770,30.483 162.840,30.018 164.600 C 29.552 166.360,28.981 168.790,28.749 170.000 C 28.516 171.210,28.162 173.010,27.961 174.000 C 26.946 179.010,25.999 185.509,25.746 189.200 C 25.633 190.850,25.373 192.371,25.170 192.580 C 24.702 193.060,24.678 210.000,25.145 210.000 C 25.335 210.000,25.610 211.755,25.757 213.900 C 26.901 230.671,32.137 252.136,39.002 268.200 C 41.364 273.725,46.173 283.355,48.463 287.141 C 49.308 288.538,50.000 289.759,50.000 289.852 C 50.000 290.951,63.032 308.937,67.784 314.397 C 76.494 324.406,90.080 336.633,99.800 343.213 C 100.900 343.958,101.980 344.710,102.200 344.885 C 102.867 345.414,110.012 350.000,110.170 350.000 C 110.252 350.000,111.462 350.693,112.859 351.541 C 115.462 353.119,122.959 356.967,127.600 359.107 C 149.748 369.322,174.940 374.766,200.177 374.792 C 216.690 374.809,234.805 372.181,249.800 367.592 C 251.340 367.121,252.960 366.645,253.400 366.534 C 253.840 366.424,254.560 366.180,255.000 365.993 C 255.440 365.806,256.970 365.269,258.400 364.800 C 259.830 364.331,261.405 363.779,261.900 363.574 C 264.074 362.671,265.052 362.273,265.800 361.987 C 269.450 360.593,275.643 357.768,279.600 355.692 C 308.717 340.422,331.097 319.867,348.289 292.600 C 351.965 286.770,357.335 276.774,359.359 271.993 C 360.969 268.191,361.679 266.575,362.033 265.905 C 362.235 265.523,362.400 265.026,362.400 264.801 C 362.400 264.576,362.750 263.628,363.178 262.696 C 363.921 261.078,367.340 251.126,368.021 248.600 C 370.564 239.173,372.089 231.703,373.376 222.382 C 373.939 218.302,374.400 213.857,374.400 212.505 C 374.400 211.153,374.580 209.936,374.800 209.800 C 375.299 209.492,375.349 192.800,374.851 192.800 C 374.660 192.800,374.387 191.405,374.246 189.700 C 373.881 185.289,373.005 179.119,371.988 173.800 C 371.053 168.908,370.811 167.763,370.384 166.200 C 369.905 164.446,369.392 162.414,368.846 160.100 C 366.519 150.253,358.380 130.443,352.518 120.360 C 349.004 114.315,343.552 105.883,341.035 102.600 C 321.212 76.744,298.194 58.163,271.400 46.389 C 270.300 45.906,268.450 45.081,267.288 44.555 C 266.127 44.030,265.000 43.600,264.784 43.600 C 264.568 43.600,263.628 43.243,262.696 42.807 C 258.892 41.028,247.135 37.431,239.000 35.556 C 237.020 35.100,234.590 34.579,233.600 34.398 C 226.709 33.137,223.942 32.740,216.600 31.958 C 211.546 31.420,189.999 31.157,187.600 31.605 M117.276 44.624 C 116.988 44.950,116.602 45.125,116.418 45.011 C 116.234 44.898,115.980 45.076,115.853 45.407 C 115.648 45.941,115.745 45.943,116.711 45.419 C 118.679 44.353,119.093 44.011,118.400 44.021 C 118.070 44.026,117.564 44.298,117.276 44.624 M306.400 60.187 C 306.400 60.544,308.085 61.969,308.529 61.987 C 308.868 62.000,308.316 61.408,307.098 60.451 C 306.714 60.149,306.400 60.030,306.400 60.187 M81.268 70.127 C 80.047 71.427,80.182 71.782,81.424 70.539 C 81.988 69.976,82.378 69.445,82.292 69.359 C 82.207 69.273,81.746 69.619,81.268 70.127 M320.400 71.940 C 320.400 72.107,321.067 72.863,321.883 73.622 C 322.698 74.380,323.103 74.652,322.783 74.227 C 321.868 73.015,320.400 71.605,320.400 71.940 M328.087 79.991 C 328.365 80.436,328.729 80.800,328.896 80.800 C 329.474 80.800,329.197 80.191,328.391 79.687 C 327.641 79.219,327.619 79.241,328.087 79.991 M60.816 92.377 C 60.337 93.050,60.093 93.594,60.273 93.587 C 60.711 93.571,62.131 91.598,61.883 91.350 C 61.775 91.242,61.295 91.704,60.816 92.377 M338.851 92.698 C 339.808 93.916,340.400 94.468,340.387 94.129 C 340.369 93.685,338.944 92.000,338.587 92.000 C 338.430 92.000,338.549 92.314,338.851 92.698 M162.167 112.243 C 162.741 112.463,162.800 118.900,162.800 181.078 L 162.800 249.670 164.362 249.406 C 165.221 249.261,167.246 248.993,168.862 248.810 C 174.129 248.215,181.514 246.133,184.692 244.348 C 185.425 243.937,186.289 243.600,186.612 243.600 C 186.935 243.600,187.200 243.420,187.200 243.200 C 187.200 242.980,187.560 242.800,188.000 242.800 C 188.440 242.800,188.800 242.641,188.800 242.447 C 188.800 242.252,189.115 241.993,189.500 241.871 C 190.409 241.583,192.353 240.388,193.358 239.500 C 193.794 239.115,194.387 238.800,194.675 238.800 C 194.964 238.800,195.200 238.659,195.200 238.486 C 195.200 238.314,195.695 237.880,196.300 237.521 C 196.905 237.163,197.789 236.540,198.264 236.135 C 198.739 235.731,199.909 234.778,200.864 234.017 C 203.637 231.808,212.877 222.410,214.683 219.961 C 215.592 218.730,216.583 217.470,216.887 217.161 C 217.190 216.852,218.052 215.700,218.802 214.600 C 219.553 213.500,220.489 212.251,220.883 211.825 C 221.278 211.398,221.600 210.896,221.600 210.708 C 221.600 210.520,221.960 209.980,222.400 209.508 C 222.840 209.036,223.200 208.413,223.200 208.125 C 223.200 207.836,223.359 207.600,223.553 207.600 C 223.748 207.600,224.007 207.285,224.129 206.900 C 224.346 206.215,225.604 203.996,226.000 203.600 C 226.829 202.771,233.614 189.051,235.297 184.800 C 235.515 184.250,235.852 183.487,236.047 183.105 C 236.241 182.723,236.400 182.138,236.400 181.805 C 236.400 181.472,236.580 181.200,236.800 181.200 C 237.020 181.200,237.200 180.838,237.200 180.395 C 237.200 179.952,237.380 179.232,237.600 178.795 C 237.820 178.358,238.180 177.642,238.400 177.205 C 238.620 176.768,238.800 176.048,238.800 175.605 C 238.800 175.162,238.980 174.800,239.200 174.800 C 239.420 174.800,239.600 174.260,239.600 173.600 C 239.600 172.940,239.780 172.400,240.000 172.400 C 240.220 172.400,240.400 171.871,240.400 171.224 C 240.400 170.577,240.580 169.936,240.800 169.800 C 241.020 169.664,241.200 169.124,241.200 168.600 C 241.200 168.076,241.380 167.536,241.600 167.400 C 241.820 167.264,242.000 166.634,242.000 166.000 C 242.000 165.366,242.180 164.736,242.400 164.600 C 242.620 164.464,242.800 163.834,242.800 163.200 C 242.800 162.566,242.961 161.948,243.158 161.826 C 243.355 161.705,243.610 160.929,243.725 160.103 C 243.840 159.276,244.143 157.790,244.396 156.800 C 244.650 155.810,244.947 154.370,245.056 153.600 C 245.165 152.830,245.366 151.930,245.502 151.600 C 245.796 150.888,246.416 146.939,247.355 139.800 C 248.509 131.027,248.750 128.482,249.191 120.418 C 249.482 115.110,249.774 112.537,250.109 112.324 C 250.781 111.897,299.265 111.927,299.941 112.355 C 300.555 112.744,300.345 126.127,299.597 134.200 C 299.372 136.620,299.169 139.050,299.144 139.600 C 299.120 140.150,298.926 141.590,298.712 142.800 C 298.499 144.010,298.350 145.762,298.380 146.693 C 298.411 147.623,298.221 148.787,297.958 149.279 C 297.695 149.770,297.510 151.349,297.548 152.786 C 297.590 154.408,297.482 155.198,297.264 154.866 C 296.979 154.435,296.865 154.455,296.668 154.966 C 296.535 155.315,296.608 155.600,296.831 155.600 C 297.347 155.600,296.932 158.398,294.963 168.200 C 292.190 182.003,289.009 192.721,283.568 206.600 C 279.687 216.500,272.329 231.641,269.148 236.272 C 268.517 237.192,268.000 238.051,268.000 238.183 C 268.000 238.564,260.869 249.116,258.427 252.348 C 257.202 253.970,255.840 255.783,255.400 256.377 C 248.278 266.003,234.379 279.113,223.200 286.748 C 217.192 290.852,204.066 297.990,202.503 298.002 C 202.337 298.004,201.671 298.281,201.024 298.618 C 198.303 300.037,188.811 302.967,183.600 303.996 C 172.299 306.229,167.635 306.468,138.200 306.325 L 112.600 306.200 112.345 302.400 C 111.832 294.770,111.962 112.998,112.480 112.480 C 112.989 111.971,160.864 111.743,162.167 112.243 M353.883 115.500 C 354.346 116.760,355.283 118.001,355.746 117.968 C 356.036 117.948,356.020 117.864,355.700 117.735 C 355.425 117.624,355.200 117.188,355.200 116.767 C 355.200 116.345,355.020 116.000,354.800 116.000 C 354.580 116.000,354.400 115.730,354.400 115.400 C 354.400 115.070,354.226 114.800,354.013 114.800 C 353.799 114.800,353.741 115.115,353.883 115.500 M33.206 143.700 C 33.211 144.428,33.286 144.485,33.600 144.000 C 34.101 143.224,34.101 142.800,33.600 142.800 C 33.380 142.800,33.203 143.205,33.206 143.700 M368.406 150.700 C 368.424 151.577,369.188 152.159,369.194 151.300 C 369.197 150.805,369.020 150.400,368.800 150.400 C 368.580 150.400,368.403 150.535,368.406 150.700 M371.606 163.276 C 371.618 164.281,372.387 165.108,372.394 164.124 C 372.397 163.642,372.220 163.136,372.000 163.000 C 371.780 162.864,371.603 162.988,371.606 163.276 M244.378 263.100 L 243.000 264.600 244.500 263.222 C 245.896 261.938,246.184 261.600,245.878 261.600 C 245.812 261.600,245.137 262.275,244.378 263.100 M241.375 266.100 L 240.200 267.400 241.500 266.225 C 242.215 265.579,242.800 264.994,242.800 264.925 C 242.800 264.616,242.470 264.888,241.375 266.100 M168.700 300.282 C 169.195 300.378,170.005 300.378,170.500 300.282 C 170.995 300.187,170.590 300.109,169.600 300.109 C 168.610 300.109,168.205 300.187,168.700 300.282 " stroke="none" fill="#2c6cbb" fill-rule="evenodd"></path><path id="path2" d="M184.563 25.259 C 184.389 25.542,183.326 25.631,181.594 25.507 C 180.111 25.401,178.596 25.483,178.227 25.689 C 177.858 25.895,176.416 26.102,175.021 26.148 C 173.626 26.194,172.232 26.442,171.922 26.699 C 171.612 26.956,170.957 27.062,170.467 26.933 C 169.977 26.805,168.816 26.988,167.888 27.339 C 166.960 27.690,165.840 27.959,165.400 27.936 C 164.960 27.914,164.150 28.006,163.600 28.140 C 163.050 28.274,161.430 28.644,160.000 28.963 C 158.570 29.282,157.400 29.544,157.400 29.545 C 157.400 29.846,151.096 31.183,150.735 30.960 C 150.477 30.800,150.385 30.852,150.524 31.078 C 150.667 31.309,149.836 31.703,148.568 32.008 C 147.355 32.299,146.270 32.686,146.158 32.868 C 146.045 33.051,145.524 33.200,145.000 33.200 C 144.476 33.200,143.936 33.380,143.800 33.600 C 143.664 33.820,143.201 34.000,142.771 34.000 C 142.341 34.000,141.632 34.180,141.195 34.400 C 140.758 34.620,140.042 34.980,139.605 35.200 C 139.168 35.420,138.459 35.600,138.029 35.600 C 137.599 35.600,137.136 35.780,137.000 36.000 C 136.864 36.220,136.403 36.400,135.976 36.400 C 135.549 36.400,135.200 36.580,135.200 36.800 C 135.200 37.020,134.750 37.200,134.200 37.200 C 133.650 37.200,133.200 37.380,133.200 37.600 C 133.200 37.820,132.928 38.000,132.596 38.000 C 131.839 38.000,128.247 39.651,128.067 40.081 C 127.993 40.257,127.607 40.400,127.207 40.400 C 126.808 40.400,125.455 40.940,124.201 41.599 C 122.947 42.259,121.759 42.698,121.561 42.576 C 121.362 42.453,121.200 42.603,121.200 42.910 C 121.200 43.216,120.964 43.467,120.676 43.467 C 120.388 43.467,118.633 44.333,116.776 45.391 C 114.919 46.450,113.081 47.301,112.691 47.282 C 112.302 47.264,112.074 47.397,112.186 47.578 C 112.298 47.759,111.852 48.130,111.195 48.402 C 110.538 48.674,110.000 49.020,110.000 49.170 C 110.000 49.320,109.103 49.883,108.006 50.421 C 106.910 50.960,106.010 51.535,106.006 51.700 C 106.003 51.865,105.730 52.000,105.400 52.000 C 105.070 52.000,104.800 52.152,104.800 52.337 C 104.800 52.523,103.990 53.091,103.000 53.600 C 102.010 54.109,101.200 54.677,101.200 54.863 C 101.200 55.048,101.022 55.200,100.805 55.200 C 100.433 55.200,99.385 55.960,98.184 57.100 C 97.894 57.375,97.498 57.600,97.304 57.600 C 97.110 57.600,96.602 57.918,96.175 58.306 C 94.534 59.800,91.864 61.563,91.544 61.366 C 91.360 61.252,91.316 61.438,91.447 61.779 C 91.578 62.121,91.479 62.400,91.226 62.400 C 90.973 62.400,90.387 62.754,89.923 63.186 C 89.459 63.619,88.881 63.860,88.639 63.722 C 88.398 63.584,88.332 63.617,88.493 63.795 C 88.895 64.240,87.205 65.645,86.648 65.328 C 86.402 65.187,86.329 65.215,86.487 65.389 C 86.645 65.564,85.940 66.448,84.922 67.353 C 83.903 68.259,81.983 70.046,80.655 71.325 C 79.327 72.603,77.746 73.941,77.142 74.298 C 76.538 74.655,76.126 75.081,76.228 75.245 C 76.329 75.408,76.046 75.658,75.600 75.800 C 75.154 75.942,74.892 76.225,75.018 76.429 C 75.144 76.633,75.046 76.800,74.800 76.800 C 74.554 76.800,74.456 76.967,74.582 77.171 C 74.708 77.375,74.449 77.657,74.006 77.798 C 73.563 77.939,73.200 78.300,73.200 78.600 C 73.200 78.900,72.840 79.260,72.400 79.400 C 71.960 79.540,71.600 79.800,71.600 79.978 C 71.600 80.155,70.919 81.024,70.087 81.908 C 69.255 82.791,67.860 84.368,66.987 85.412 C 66.114 86.456,64.980 87.759,64.467 88.307 C 63.953 88.855,62.886 90.225,62.094 91.351 C 61.303 92.478,60.424 93.632,60.142 93.915 C 59.859 94.198,59.313 94.963,58.928 95.615 C 58.543 96.267,58.086 96.800,57.914 96.800 C 57.741 96.800,57.600 97.070,57.600 97.400 C 57.600 97.730,57.462 98.000,57.294 98.000 C 57.126 98.000,56.544 98.720,56.000 99.600 C 55.456 100.480,54.874 101.200,54.706 101.200 C 54.538 101.200,54.400 101.470,54.400 101.800 C 54.400 102.130,54.220 102.400,54.000 102.400 C 53.780 102.400,53.600 102.655,53.600 102.967 C 53.600 103.278,53.462 103.593,53.294 103.667 C 53.125 103.740,52.183 105.150,51.200 106.800 C 50.217 108.450,49.275 109.860,49.106 109.933 C 48.938 110.007,48.800 110.335,48.800 110.662 C 48.800 111.432,47.788 112.446,47.383 112.081 C 47.212 111.926,47.208 112.035,47.374 112.323 C 47.552 112.633,47.252 113.487,46.638 114.415 C 46.067 115.277,45.600 116.094,45.600 116.230 C 45.600 116.365,45.260 116.954,44.844 117.538 C 44.428 118.122,44.044 118.780,43.990 119.000 C 43.750 119.978,43.040 121.200,42.712 121.200 C 42.515 121.200,42.457 121.368,42.584 121.574 C 42.777 121.886,41.508 124.864,39.976 127.695 C 39.769 128.077,39.600 128.662,39.600 128.995 C 39.600 129.328,39.440 129.600,39.244 129.600 C 39.048 129.600,38.649 130.410,38.357 131.400 C 38.065 132.390,37.685 133.200,37.513 133.200 C 37.341 133.200,37.200 133.549,37.200 133.976 C 37.200 134.403,37.020 134.864,36.800 135.000 C 36.580 135.136,36.400 135.687,36.400 136.224 C 36.400 136.761,36.220 137.200,36.000 137.200 C 35.780 137.200,35.600 137.639,35.600 138.176 C 35.600 138.713,35.420 139.264,35.200 139.400 C 34.980 139.536,34.800 140.007,34.800 140.447 C 34.800 140.887,34.657 141.159,34.483 141.051 C 34.309 140.944,34.139 141.248,34.107 141.728 C 34.030 142.861,33.155 145.692,32.730 146.180 C 32.549 146.389,32.400 146.895,32.400 147.304 C 32.400 147.713,32.256 147.958,32.080 147.849 C 31.904 147.741,31.716 148.301,31.663 149.096 C 31.609 149.890,31.227 151.633,30.813 152.970 C 30.400 154.306,29.834 156.345,29.555 157.500 C 29.277 158.655,28.928 159.600,28.780 159.600 C 28.632 159.600,28.596 160.047,28.701 160.593 C 28.805 161.140,28.753 161.905,28.585 162.293 C 28.181 163.228,27.995 164.026,27.955 165.000 C 27.891 166.563,27.572 167.630,27.231 167.419 C 27.040 167.301,26.920 168.149,26.964 169.303 C 27.008 170.456,26.879 171.513,26.677 171.652 C 26.474 171.790,26.250 173.050,26.179 174.452 C 26.107 175.853,25.884 177.443,25.684 177.986 C 25.483 178.528,25.405 180.168,25.509 181.631 C 25.633 183.363,25.543 184.388,25.250 184.569 C 24.965 184.746,24.800 186.331,24.800 188.904 C 24.800 193.606,25.430 193.803,25.746 189.200 C 25.999 185.509,26.946 179.010,27.961 174.000 C 28.162 173.010,28.516 171.210,28.749 170.000 C 28.981 168.790,29.552 166.360,30.018 164.600 C 30.483 162.840,31.009 160.770,31.186 160.000 C 32.798 153.008,38.091 139.096,42.905 129.200 C 47.687 119.370,57.420 103.756,62.061 98.470 C 62.577 97.881,63.630 96.594,64.400 95.610 C 68.592 90.250,80.319 78.215,86.000 73.443 C 99.168 62.381,114.216 52.795,127.900 46.751 C 132.127 44.884,133.447 44.288,134.095 43.956 C 134.477 43.760,134.974 43.600,135.199 43.600 C 135.424 43.600,136.372 43.250,137.304 42.823 C 141.414 40.939,154.208 37.049,161.000 35.620 C 162.320 35.342,163.850 34.968,164.400 34.789 C 164.950 34.610,166.120 34.370,167.000 34.256 C 167.880 34.141,169.680 33.842,171.000 33.592 C 186.663 30.619,212.359 30.626,229.200 33.608 C 234.351 34.520,235.454 34.739,239.000 35.556 C 245.279 37.003,248.530 37.919,255.415 40.180 C 258.487 41.189,261.763 42.371,262.696 42.807 C 263.628 43.243,264.568 43.600,264.784 43.600 C 265.000 43.600,266.127 44.030,267.288 44.555 C 268.450 45.081,270.300 45.906,271.400 46.389 C 298.194 58.163,321.212 76.744,341.035 102.600 C 343.552 105.883,349.004 114.315,352.518 120.360 C 358.380 130.443,366.519 150.253,368.846 160.100 C 369.392 162.414,369.905 164.446,370.384 166.200 C 371.729 171.122,373.703 183.133,374.246 189.700 C 374.653 194.613,375.289 193.425,375.136 188.038 C 375.061 185.419,374.876 183.353,374.725 183.446 C 374.574 183.540,374.494 182.487,374.548 181.108 C 374.601 179.729,374.438 178.060,374.186 177.400 C 373.933 176.740,373.682 175.300,373.628 174.200 C 373.574 173.100,373.394 172.020,373.230 171.800 C 373.065 171.580,372.895 170.590,372.852 169.600 C 372.808 168.610,372.671 167.467,372.547 167.060 C 372.422 166.653,372.261 165.933,372.187 165.460 C 372.113 164.987,371.771 163.340,371.427 161.800 C 371.082 160.260,370.800 158.516,370.800 157.924 C 370.800 157.332,370.620 156.736,370.400 156.600 C 370.180 156.464,370.000 156.001,370.000 155.571 C 370.000 155.141,369.838 154.477,369.639 154.095 C 369.282 153.408,368.455 150.762,368.235 149.600 C 368.172 149.270,367.982 148.680,367.813 148.289 C 367.644 147.897,367.484 147.058,367.458 146.423 C 367.433 145.789,367.274 145.354,367.106 145.458 C 366.938 145.562,366.800 145.287,366.800 144.847 C 366.800 144.407,366.620 143.936,366.400 143.800 C 366.180 143.664,366.000 143.124,366.000 142.600 C 366.000 142.076,365.820 141.536,365.600 141.400 C 365.380 141.264,365.200 140.713,365.200 140.176 C 365.200 139.639,365.020 139.200,364.800 139.200 C 364.580 139.200,364.400 138.851,364.400 138.424 C 364.400 137.997,364.220 137.536,364.000 137.400 C 363.780 137.264,363.600 136.713,363.600 136.176 C 363.600 135.639,363.420 135.200,363.200 135.200 C 362.980 135.200,362.800 134.750,362.800 134.200 C 362.800 133.650,362.620 133.200,362.400 133.200 C 362.180 133.200,362.000 132.750,362.000 132.200 C 362.000 131.650,361.864 131.200,361.698 131.200 C 361.531 131.200,361.156 130.615,360.864 129.900 C 360.572 129.185,360.187 128.240,360.008 127.800 C 359.830 127.360,359.170 125.920,358.542 124.600 C 357.914 123.280,357.398 121.967,357.397 121.683 C 357.395 121.399,357.215 121.039,356.997 120.883 C 356.394 120.453,355.515 118.751,355.766 118.501 C 355.888 118.379,355.735 118.081,355.425 117.840 C 354.535 117.143,352.355 112.797,352.653 112.314 C 352.815 112.051,352.739 111.991,352.462 112.162 C 352.199 112.325,352.000 112.212,352.000 111.899 C 352.000 111.598,351.640 110.964,351.200 110.492 C 350.760 110.020,350.400 109.448,350.400 109.221 C 350.400 108.847,349.696 107.857,348.575 106.655 C 348.342 106.405,347.893 105.615,347.578 104.900 C 347.263 104.185,346.869 103.600,346.702 103.600 C 346.536 103.600,346.399 103.375,346.398 103.100 C 346.397 102.825,345.902 102.060,345.298 101.400 C 344.694 100.740,343.945 99.705,343.632 99.100 C 343.320 98.495,342.915 98.000,342.732 98.000 C 342.550 98.000,342.400 97.730,342.400 97.400 C 342.400 97.070,342.220 96.800,342.000 96.800 C 341.780 96.800,341.600 96.530,341.600 96.200 C 341.600 95.870,341.420 95.600,341.200 95.600 C 340.980 95.600,340.800 95.396,340.800 95.147 C 340.800 94.898,340.474 94.403,340.075 94.047 C 339.676 93.691,338.789 92.590,338.104 91.600 C 337.419 90.610,336.434 89.350,335.915 88.800 C 335.396 88.250,334.707 87.419,334.385 86.953 C 334.063 86.487,332.497 84.687,330.905 82.953 C 325.620 77.194,325.200 76.702,325.200 76.283 C 325.200 76.054,325.087 75.980,324.948 76.119 C 324.810 76.257,323.613 75.297,322.289 73.985 C 320.965 72.673,319.836 71.600,319.781 71.600 C 319.725 71.600,319.063 71.015,318.310 70.300 C 317.556 69.585,316.037 68.145,314.933 67.100 C 313.829 66.055,312.809 65.200,312.666 65.200 C 312.430 65.200,310.983 64.058,309.847 62.974 C 309.601 62.740,309.109 62.380,308.754 62.174 C 307.856 61.654,305.262 59.581,304.157 58.500 C 303.651 58.005,303.048 57.600,302.818 57.600 C 302.588 57.600,302.400 57.464,302.400 57.298 C 302.400 57.131,301.905 56.774,301.300 56.503 C 300.695 56.232,299.570 55.469,298.800 54.806 C 298.030 54.144,297.257 53.601,297.083 53.601 C 296.909 53.600,296.549 53.413,296.283 53.185 C 295.290 52.333,290.819 49.600,290.417 49.600 C 290.188 49.600,290.000 49.420,290.000 49.200 C 290.000 48.980,289.835 48.800,289.633 48.800 C 289.431 48.800,287.946 48.022,286.333 47.072 C 284.720 46.122,282.815 45.088,282.100 44.775 C 281.385 44.461,280.800 44.069,280.800 43.902 C 280.800 43.736,280.543 43.600,280.229 43.600 C 279.914 43.600,279.419 43.375,279.129 43.100 C 278.838 42.825,278.420 42.580,278.200 42.557 C 277.261 42.454,276.000 41.880,276.000 41.553 C 276.000 41.359,275.726 41.200,275.391 41.200 C 275.057 41.200,273.239 40.480,271.352 39.600 C 269.465 38.720,267.668 38.000,267.360 38.000 C 267.052 38.000,266.800 37.820,266.800 37.600 C 266.800 37.380,266.350 37.200,265.800 37.200 C 265.250 37.200,264.800 37.020,264.800 36.800 C 264.800 36.580,264.438 36.400,263.995 36.400 C 263.217 36.400,262.831 36.258,260.905 35.262 C 260.413 35.008,259.738 34.800,259.405 34.800 C 259.072 34.800,258.800 34.620,258.800 34.400 C 258.800 34.180,258.271 34.000,257.624 34.000 C 256.977 34.000,256.336 33.820,256.200 33.600 C 256.064 33.380,255.513 33.200,254.976 33.200 C 254.439 33.200,254.000 33.058,254.000 32.885 C 254.000 32.712,253.598 32.540,253.107 32.503 C 252.616 32.466,251.851 32.268,251.407 32.062 C 250.237 31.521,241.530 29.197,240.676 29.199 C 240.278 29.199,240.048 29.046,240.164 28.858 C 240.281 28.670,239.934 28.600,239.395 28.703 C 238.855 28.806,238.095 28.753,237.707 28.585 C 236.776 28.182,236.109 28.037,234.285 27.838 C 233.452 27.747,232.509 27.457,232.191 27.192 C 231.867 26.923,230.952 26.788,230.116 26.886 C 229.294 26.982,228.189 26.835,227.659 26.561 C 227.129 26.286,225.822 26.101,224.755 26.150 C 223.687 26.199,222.757 26.070,222.688 25.863 C 222.427 25.080,185.040 24.488,184.563 25.259 M125.129 112.300 C 132.020 112.361,143.180 112.361,149.929 112.300 C 156.678 112.238,151.040 112.188,137.400 112.188 C 123.760 112.188,118.238 112.238,125.129 112.300 M262.729 112.300 C 269.620 112.361,280.780 112.361,287.529 112.300 C 294.278 112.238,288.640 112.188,275.000 112.188 C 261.360 112.188,255.838 112.238,262.729 112.300 M249.693 113.600 C 249.693 114.370,249.775 114.685,249.876 114.300 C 249.976 113.915,249.976 113.285,249.876 112.900 C 249.775 112.515,249.693 112.830,249.693 113.600 M112.197 206.200 C 112.197 257.680,112.243 278.681,112.300 252.868 C 112.357 227.055,112.357 184.935,112.300 159.268 C 112.243 133.601,112.197 154.720,112.197 206.200 M249.001 122.077 C 248.844 125.444,248.786 128.650,248.871 129.200 C 248.957 129.750,249.168 127.077,249.340 123.259 C 249.511 119.442,249.569 116.236,249.469 116.136 C 249.369 116.035,249.158 118.709,249.001 122.077 M300.088 121.244 C 300.039 124.238,299.915 127.568,299.811 128.644 L 299.622 130.600 300.022 128.688 C 300.242 127.637,300.367 124.307,300.299 121.288 L 300.175 115.800 300.088 121.244 M248.259 131.888 C 248.121 132.719,248.031 134.300,248.059 135.400 C 248.097 136.923,248.187 136.592,248.435 134.014 C 248.777 130.456,248.683 129.319,248.259 131.888 M299.267 135.200 C 299.224 136.190,299.096 137.450,298.983 138.000 L 298.777 139.000 299.207 138.015 C 299.444 137.474,299.571 136.214,299.491 135.215 L 299.344 133.400 299.267 135.200 M247.262 141.200 C 247.222 141.970,247.096 143.050,246.983 143.600 L 246.777 144.600 247.208 143.614 C 247.444 143.071,247.570 141.991,247.486 141.214 L 247.334 139.800 247.262 141.200 M298.501 142.600 C 298.505 143.480,298.587 143.793,298.683 143.295 C 298.779 142.798,298.775 142.078,298.675 141.695 C 298.575 141.313,298.496 141.720,298.501 142.600 M246.464 146.267 C 246.429 146.964,246.296 147.864,246.170 148.267 C 245.953 148.959,245.965 148.960,246.394 148.291 C 246.645 147.902,246.777 147.002,246.689 146.291 L 246.528 145.000 246.464 146.267 M232.152 191.900 C 231.774 192.725,231.395 193.535,231.309 193.700 C 231.223 193.865,231.245 194.000,231.358 194.000 C 231.470 194.000,231.871 193.325,232.248 192.500 C 232.626 191.675,233.005 190.865,233.091 190.700 C 233.177 190.535,233.155 190.400,233.042 190.400 C 232.930 190.400,232.529 191.075,232.152 191.900 M218.868 214.450 C 218.136 215.570,217.690 216.392,217.877 216.276 C 218.461 215.915,220.867 212.400,220.525 212.407 C 220.346 212.411,219.601 213.331,218.868 214.450 M215.623 218.712 C 214.866 219.751,213.876 221.058,213.423 221.619 C 212.970 222.179,213.140 222.073,213.800 221.384 C 214.460 220.696,215.340 219.697,215.756 219.166 C 216.171 218.635,216.784 217.885,217.118 217.500 C 217.451 217.115,217.561 216.806,217.362 216.812 C 217.163 216.819,216.380 217.674,215.623 218.712 M207.000 228.164 C 203.035 232.181,200.007 234.932,198.822 235.596 C 198.484 235.785,198.301 236.034,198.416 236.149 C 198.781 236.514,207.627 228.590,210.770 225.082 C 213.147 222.429,210.626 224.489,207.000 228.164 M196.411 237.420 C 195.647 237.959,195.197 238.399,195.411 238.398 C 195.625 238.397,196.340 237.953,197.000 237.412 C 198.541 236.149,198.205 236.153,196.411 237.420 M193.429 239.409 C 193.005 239.729,192.738 240.071,192.835 240.169 C 192.932 240.266,193.459 240.002,194.006 239.582 C 194.553 239.161,194.820 238.820,194.600 238.822 C 194.380 238.824,193.853 239.088,193.429 239.409 M179.400 246.400 C 178.629 246.731,178.631 246.745,179.476 246.772 C 179.958 246.787,180.464 246.620,180.600 246.400 C 180.892 245.927,180.501 245.927,179.400 246.400 M173.496 247.984 C 172.668 248.144,171.881 248.386,171.746 248.521 C 171.439 248.828,174.322 248.390,175.400 247.966 C 176.379 247.580,175.535 247.588,173.496 247.984 M165.800 249.218 C 164.828 249.403,165.535 249.439,167.600 249.310 C 169.470 249.193,171.075 249.030,171.167 248.949 C 171.449 248.697,167.495 248.896,165.800 249.218 M237.978 269.100 L 236.600 270.600 238.100 269.222 C 239.496 267.938,239.784 267.600,239.478 267.600 C 239.412 267.600,238.737 268.275,237.978 269.100 M126.329 300.300 C 134.100 300.361,146.700 300.361,154.329 300.300 C 161.958 300.239,155.600 300.189,140.200 300.189 C 124.800 300.189,118.558 300.239,126.329 300.300 " stroke="none" fill="#447cc4" fill-rule="evenodd"></path><path id="path3" d="M330.602 82.402 C 331.002 82.844,331.411 83.122,331.512 83.021 C 331.728 82.805,330.588 81.600,330.167 81.600 C 330.007 81.600,330.203 81.961,330.602 82.402 M298.109 147.200 C 298.109 148.190,298.187 148.595,298.282 148.100 C 298.378 147.605,298.378 146.795,298.282 146.300 C 298.187 145.805,298.109 146.210,298.109 147.200 M297.324 153.000 C 297.326 154.320,297.401 154.812,297.490 154.093 C 297.579 153.374,297.577 152.294,297.486 151.693 C 297.395 151.092,297.322 151.680,297.324 153.000 M296.400 157.600 C 296.400 158.700,296.220 159.600,296.000 159.600 C 295.780 159.600,295.600 160.399,295.600 161.376 C 295.600 162.353,295.420 163.264,295.200 163.400 C 294.980 163.536,294.800 164.346,294.800 165.200 C 294.800 166.054,294.620 166.864,294.400 167.000 C 294.180 167.136,294.000 167.856,294.000 168.600 C 294.000 169.344,293.820 170.064,293.600 170.200 C 293.380 170.336,293.200 171.056,293.200 171.800 C 293.200 172.544,293.040 173.252,292.844 173.373 C 292.508 173.581,292.385 174.076,291.767 177.704 C 291.627 178.531,291.351 179.306,291.156 179.427 C 290.960 179.548,290.800 180.089,290.800 180.629 C 290.800 181.169,290.639 181.923,290.443 182.305 C 290.247 182.687,289.040 186.240,287.762 190.200 C 286.483 194.160,285.309 197.670,285.151 198.000 C 284.184 200.030,283.200 202.450,283.200 202.801 C 283.200 203.026,283.040 203.523,282.844 203.905 C 282.648 204.287,282.087 205.500,281.596 206.600 C 281.106 207.700,280.367 209.292,279.953 210.138 C 279.539 210.984,279.200 211.929,279.200 212.238 C 279.200 212.547,279.020 212.800,278.800 212.800 C 278.580 212.800,278.400 213.160,278.400 213.600 C 278.400 214.040,278.220 214.400,278.000 214.400 C 277.780 214.400,277.600 214.653,277.600 214.962 C 277.600 215.628,275.932 218.941,275.500 219.133 C 275.335 219.207,275.200 219.576,275.200 219.953 C 275.200 220.331,275.032 220.811,274.827 221.020 C 274.622 221.229,273.929 222.390,273.289 223.600 C 272.147 225.755,271.353 227.181,269.276 230.800 C 267.665 233.607,261.908 242.185,261.535 242.333 C 261.351 242.407,261.200 242.688,261.200 242.958 C 261.200 243.228,260.880 243.798,260.489 244.225 C 260.098 244.651,259.336 245.630,258.795 246.400 C 258.254 247.170,257.592 248.070,257.324 248.400 C 257.056 248.730,255.923 250.155,254.805 251.568 C 253.688 252.980,252.014 254.975,251.087 256.002 C 250.159 257.028,248.140 259.268,246.600 260.980 C 243.334 264.611,235.392 271.925,231.594 274.800 C 230.868 275.350,230.045 276.025,229.765 276.300 C 229.486 276.575,229.145 276.800,229.007 276.800 C 228.869 276.800,228.181 277.339,227.478 277.998 C 226.775 278.657,225.990 279.197,225.733 279.198 C 225.477 279.199,225.207 279.349,225.133 279.530 C 224.567 280.933,209.571 289.383,203.000 292.001 C 202.560 292.177,201.347 292.698,200.304 293.160 C 199.262 293.622,198.147 294.000,197.828 294.000 C 197.509 294.000,197.136 294.180,197.000 294.400 C 196.864 294.620,196.324 294.800,195.800 294.800 C 195.276 294.800,194.736 294.980,194.600 295.200 C 194.464 295.420,193.924 295.600,193.400 295.600 C 192.876 295.600,192.349 295.759,192.229 295.954 C 192.108 296.149,191.513 296.407,190.905 296.529 C 190.297 296.651,188.990 296.952,188.000 297.197 C 183.689 298.267,179.764 299.045,175.600 299.655 C 173.715 299.931,161.402 300.156,142.483 300.260 L 112.365 300.424 112.483 303.312 L 112.600 306.200 138.200 306.325 C 167.635 306.468,172.299 306.229,183.600 303.996 C 188.497 303.029,199.487 299.676,200.600 298.809 C 200.820 298.638,201.450 298.362,202.000 298.196 C 216.527 293.817,243.091 273.013,255.400 256.377 C 255.840 255.783,257.202 253.970,258.427 252.348 C 260.869 249.116,268.000 238.564,268.000 238.183 C 268.000 238.051,268.517 237.192,269.148 236.272 C 272.329 231.641,279.687 216.500,283.568 206.600 C 289.009 192.721,292.190 182.003,294.963 168.200 C 296.949 158.316,297.349 155.600,296.818 155.600 C 296.583 155.600,296.400 156.476,296.400 157.600 M374.700 209.832 C 374.535 209.998,374.400 211.220,374.400 212.548 C 374.400 213.877,373.939 218.302,373.376 222.382 C 372.089 231.703,370.564 239.173,368.021 248.600 C 367.340 251.126,363.921 261.078,363.178 262.696 C 362.750 263.628,362.400 264.576,362.400 264.801 C 362.400 265.026,362.235 265.523,362.033 265.905 C 361.679 266.575,360.969 268.191,359.359 271.993 C 342.793 311.121,305.225 346.837,263.900 362.746 C 263.405 362.937,262.550 363.285,262.000 363.520 C 261.450 363.755,259.830 364.331,258.400 364.800 C 256.970 365.269,255.440 365.806,255.000 365.993 C 254.560 366.180,253.840 366.424,253.400 366.534 C 252.960 366.645,251.340 367.121,249.800 367.592 C 234.805 372.181,216.690 374.809,200.177 374.792 C 174.940 374.766,149.748 369.322,127.600 359.107 C 122.959 356.967,115.462 353.119,112.859 351.541 C 111.462 350.693,110.252 350.000,110.170 350.000 C 110.012 350.000,102.867 345.414,102.200 344.885 C 101.980 344.710,100.900 343.958,99.800 343.213 C 90.080 336.633,76.494 324.406,67.784 314.397 C 63.032 308.937,50.000 290.951,50.000 289.852 C 50.000 289.759,49.308 288.538,48.463 287.141 C 46.173 283.355,41.364 273.725,39.002 268.200 C 32.137 252.136,26.901 230.671,25.757 213.900 C 25.610 211.755,25.320 210.000,25.111 210.000 C 24.236 210.000,25.445 228.915,26.811 236.600 C 27.046 237.920,27.337 239.810,27.458 240.800 C 27.579 241.790,27.840 242.771,28.039 242.980 C 28.237 243.189,28.400 244.033,28.400 244.856 C 28.400 245.679,28.580 246.464,28.800 246.600 C 29.020 246.736,29.200 247.456,29.200 248.200 C 29.200 248.944,29.380 249.664,29.600 249.800 C 29.820 249.936,30.000 250.566,30.000 251.200 C 30.000 251.834,30.180 252.464,30.400 252.600 C 30.620 252.736,30.800 253.467,30.800 254.224 C 30.800 254.981,30.980 255.600,31.200 255.600 C 31.420 255.600,31.600 256.129,31.600 256.776 C 31.600 257.423,31.780 258.064,32.000 258.200 C 32.220 258.336,32.400 258.876,32.400 259.400 C 32.400 259.924,32.580 260.464,32.800 260.600 C 33.020 260.736,33.200 261.276,33.200 261.800 C 33.200 262.324,33.380 262.864,33.600 263.000 C 33.820 263.136,34.000 263.676,34.000 264.200 C 34.000 264.724,34.180 265.264,34.400 265.400 C 34.620 265.536,34.800 266.087,34.800 266.624 C 34.800 267.161,34.980 267.600,35.200 267.600 C 35.420 267.600,35.600 267.955,35.600 268.388 C 35.600 268.821,35.960 269.817,36.400 270.600 C 36.840 271.383,37.200 272.379,37.200 272.812 C 37.200 273.245,37.380 273.600,37.600 273.600 C 37.820 273.600,38.000 273.960,38.000 274.400 C 38.000 274.840,38.180 275.200,38.400 275.200 C 38.620 275.200,38.800 275.549,38.800 275.976 C 38.800 276.403,38.980 276.864,39.200 277.000 C 39.420 277.136,39.600 277.687,39.600 278.224 C 39.600 278.761,39.780 279.200,40.000 279.200 C 40.220 279.200,40.400 279.560,40.400 280.000 C 40.400 280.440,40.580 280.800,40.800 280.800 C 41.020 280.800,41.200 281.160,41.200 281.600 C 41.200 282.040,41.380 282.400,41.600 282.400 C 41.820 282.400,42.000 282.671,42.000 283.002 C 42.000 283.761,46.352 292.153,46.839 292.333 C 47.038 292.407,47.200 292.812,47.200 293.233 C 47.200 293.655,47.380 294.000,47.600 294.000 C 47.820 294.000,48.000 294.278,48.000 294.617 C 48.000 294.956,48.360 295.620,48.800 296.092 C 49.240 296.564,49.600 297.187,49.600 297.475 C 49.600 297.764,49.780 298.000,50.000 298.000 C 50.220 298.000,50.400 298.236,50.400 298.525 C 50.400 298.813,50.760 299.436,51.200 299.908 C 51.640 300.380,52.000 300.874,52.000 301.005 C 52.000 301.340,55.211 306.038,56.081 306.975 C 56.476 307.402,56.800 307.921,56.800 308.129 C 56.800 308.336,57.116 308.797,57.503 309.153 C 57.889 309.509,58.436 310.250,58.718 310.800 C 59.000 311.350,59.764 312.409,60.416 313.154 C 61.067 313.899,61.600 314.621,61.600 314.758 C 61.600 314.896,62.005 315.456,62.500 316.004 C 62.995 316.552,63.876 317.630,64.457 318.400 C 65.038 319.170,66.343 320.658,67.357 321.707 C 68.371 322.756,69.200 323.696,69.200 323.796 C 69.200 324.136,81.791 336.593,83.759 338.200 C 84.837 339.080,86.133 340.205,86.641 340.700 C 87.148 341.195,87.730 341.600,87.934 341.600 C 88.137 341.600,89.045 342.320,89.952 343.200 C 90.859 344.080,91.766 344.800,91.967 344.800 C 92.169 344.800,92.393 344.942,92.467 345.115 C 92.540 345.288,93.404 346.053,94.386 346.815 C 95.368 347.577,96.527 348.515,96.962 348.900 C 97.396 349.285,97.987 349.600,98.275 349.600 C 98.564 349.600,98.800 349.741,98.800 349.914 C 98.800 350.086,99.333 350.543,99.985 350.928 C 100.637 351.313,101.409 351.847,101.701 352.114 C 101.992 352.381,102.629 352.825,103.115 353.100 C 105.371 354.375,105.787 354.620,106.180 354.906 C 107.464 355.840,109.674 357.201,109.918 357.209 C 110.073 357.214,110.650 357.570,111.200 358.000 C 111.750 358.430,112.433 358.786,112.717 358.791 C 113.001 358.796,113.620 359.160,114.092 359.600 C 114.564 360.040,115.187 360.400,115.475 360.400 C 115.764 360.400,116.000 360.580,116.000 360.800 C 116.000 361.020,116.360 361.200,116.800 361.200 C 117.240 361.200,117.600 361.380,117.600 361.600 C 117.600 361.820,117.960 362.000,118.400 362.000 C 118.840 362.000,119.200 362.180,119.200 362.400 C 119.200 362.620,119.560 362.800,120.000 362.800 C 120.440 362.800,120.800 362.980,120.800 363.200 C 120.800 363.420,121.160 363.600,121.600 363.600 C 122.040 363.600,122.400 363.780,122.400 364.000 C 122.400 364.220,122.760 364.400,123.200 364.400 C 123.640 364.400,124.000 364.580,124.000 364.800 C 124.000 365.020,124.360 365.200,124.800 365.200 C 125.240 365.200,125.600 365.380,125.600 365.600 C 125.600 365.820,125.872 366.000,126.205 366.000 C 126.538 366.000,127.123 366.160,127.505 366.356 C 128.422 366.827,131.988 368.419,133.000 368.811 C 133.440 368.981,134.653 369.498,135.696 369.960 C 136.738 370.422,137.863 370.800,138.196 370.800 C 138.528 370.800,138.800 370.980,138.800 371.200 C 138.800 371.420,139.340 371.600,140.000 371.600 C 140.660 371.600,141.200 371.780,141.200 372.000 C 141.200 372.220,141.472 372.400,141.805 372.400 C 142.138 372.400,144.334 373.030,146.684 373.800 C 149.034 374.570,151.451 375.200,152.055 375.200 C 152.659 375.200,153.264 375.380,153.400 375.600 C 153.536 375.820,154.177 376.000,154.824 376.000 C 155.471 376.000,156.000 376.180,156.000 376.400 C 156.000 376.620,156.810 376.800,157.800 376.800 C 158.790 376.800,159.600 376.980,159.600 377.200 C 159.600 377.420,160.309 377.600,161.176 377.600 C 162.043 377.600,162.864 377.780,163.000 378.000 C 163.136 378.220,164.036 378.400,165.000 378.400 C 165.964 378.400,166.864 378.580,167.000 378.800 C 167.136 379.020,168.126 379.200,169.200 379.200 C 170.274 379.200,171.264 379.380,171.400 379.600 C 171.536 379.820,172.796 380.000,174.200 380.000 C 175.604 380.000,176.864 380.180,177.000 380.400 C 177.136 380.620,178.666 380.800,180.400 380.800 C 182.134 380.800,183.664 380.980,183.800 381.200 C 183.958 381.456,189.796 381.600,200.000 381.600 C 210.204 381.600,216.042 381.456,216.200 381.200 C 216.336 380.980,217.866 380.800,219.600 380.800 C 221.334 380.800,222.864 380.620,223.000 380.400 C 223.136 380.180,224.396 380.000,225.800 380.000 C 227.204 380.000,228.464 379.820,228.600 379.600 C 228.736 379.380,229.827 379.200,231.024 379.200 C 232.221 379.200,233.200 379.020,233.200 378.800 C 233.200 378.580,233.999 378.400,234.976 378.400 C 235.953 378.400,236.864 378.220,237.000 378.000 C 237.136 377.780,237.957 377.600,238.824 377.600 C 239.691 377.600,240.400 377.420,240.400 377.200 C 240.400 376.980,241.210 376.800,242.200 376.800 C 243.190 376.800,244.000 376.620,244.000 376.400 C 244.000 376.180,244.529 376.000,245.176 376.000 C 245.823 376.000,246.464 375.820,246.600 375.600 C 246.736 375.380,247.364 375.200,247.996 375.200 C 249.118 375.200,255.115 373.479,256.495 372.761 C 256.877 372.563,257.541 372.400,257.971 372.400 C 258.401 372.400,258.864 372.220,259.000 372.000 C 259.136 371.780,259.687 371.600,260.224 371.600 C 260.761 371.600,261.200 371.453,261.200 371.272 C 261.200 371.092,262.100 370.700,263.200 370.400 C 264.300 370.100,265.200 369.708,265.200 369.528 C 265.200 369.347,265.555 369.200,265.988 369.200 C 266.421 369.200,267.417 368.840,268.200 368.400 C 268.983 367.960,269.889 367.600,270.212 367.600 C 270.535 367.600,270.800 367.420,270.800 367.200 C 270.800 366.980,271.149 366.800,271.576 366.800 C 272.003 366.800,272.464 366.620,272.600 366.400 C 272.736 366.180,273.197 366.000,273.624 366.000 C 274.051 366.000,274.400 365.820,274.400 365.600 C 274.400 365.380,274.760 365.200,275.200 365.200 C 275.640 365.200,276.000 365.020,276.000 364.800 C 276.000 364.580,276.360 364.400,276.800 364.400 C 277.240 364.400,277.600 364.220,277.600 364.000 C 277.600 363.780,277.960 363.600,278.400 363.600 C 278.840 363.600,279.200 363.420,279.200 363.200 C 279.200 362.980,279.560 362.800,280.000 362.800 C 280.440 362.800,280.800 362.620,280.800 362.400 C 280.800 362.180,281.160 362.000,281.600 362.000 C 282.040 362.000,282.400 361.820,282.400 361.600 C 282.400 361.380,282.760 361.200,283.200 361.200 C 283.640 361.200,284.001 361.065,284.003 360.900 C 284.005 360.735,284.410 360.404,284.903 360.164 C 287.281 359.007,292.033 356.205,293.820 354.906 C 294.213 354.620,294.629 354.375,296.885 353.100 C 297.371 352.825,298.008 352.381,298.299 352.114 C 298.591 351.847,299.363 351.313,300.015 350.928 C 300.667 350.543,301.200 350.086,301.200 349.914 C 301.200 349.741,301.436 349.600,301.725 349.600 C 302.013 349.600,302.604 349.285,303.038 348.900 C 303.473 348.515,304.632 347.577,305.614 346.815 C 306.596 346.053,307.460 345.288,307.533 345.115 C 307.607 344.942,307.849 344.800,308.073 344.800 C 308.296 344.800,308.983 344.260,309.600 343.600 C 310.217 342.940,310.884 342.400,311.082 342.400 C 311.281 342.400,312.088 341.815,312.876 341.100 C 313.663 340.385,315.183 339.080,316.254 338.200 C 318.231 336.574,330.800 324.128,330.800 323.796 C 330.800 323.696,331.629 322.756,332.643 321.707 C 333.657 320.658,334.962 319.170,335.543 318.400 C 336.124 317.630,337.005 316.552,337.500 316.004 C 337.995 315.456,338.400 314.896,338.400 314.758 C 338.400 314.621,338.933 313.899,339.584 313.154 C 340.236 312.409,341.000 311.350,341.282 310.800 C 341.564 310.250,342.111 309.509,342.497 309.153 C 342.884 308.797,343.200 308.347,343.200 308.153 C 343.201 307.959,343.606 307.320,344.100 306.734 C 345.998 304.484,346.097 304.341,347.700 301.520 C 347.975 301.037,348.515 300.283,348.900 299.845 C 349.285 299.407,349.600 298.828,349.600 298.558 C 349.600 298.288,349.735 298.007,349.900 297.933 C 350.276 297.766,351.575 295.636,351.871 294.700 C 351.993 294.315,352.252 294.000,352.447 294.000 C 352.641 294.000,352.800 293.655,352.800 293.233 C 352.800 292.812,352.963 292.407,353.163 292.333 C 353.660 292.151,358.800 282.204,358.800 281.425 C 358.800 281.081,358.980 280.800,359.200 280.800 C 359.420 280.800,359.600 280.440,359.600 280.000 C 359.600 279.560,359.780 279.200,360.000 279.200 C 360.220 279.200,360.400 278.761,360.400 278.224 C 360.400 277.687,360.580 277.136,360.800 277.000 C 361.020 276.864,361.200 276.403,361.200 275.976 C 361.200 275.549,361.380 275.200,361.600 275.200 C 361.820 275.200,362.000 274.840,362.000 274.400 C 362.000 273.960,362.180 273.600,362.400 273.600 C 362.620 273.600,362.800 273.161,362.800 272.624 C 362.800 272.087,362.980 271.536,363.200 271.400 C 363.420 271.264,363.600 270.803,363.600 270.376 C 363.600 269.949,363.780 269.600,364.000 269.600 C 364.220 269.600,364.400 269.150,364.400 268.600 C 364.400 268.050,364.580 267.600,364.800 267.600 C 365.020 267.600,365.200 267.161,365.200 266.624 C 365.200 266.087,365.380 265.536,365.600 265.400 C 365.820 265.264,366.000 264.724,366.000 264.200 C 366.000 263.676,366.180 263.136,366.400 263.000 C 366.620 262.864,366.800 262.324,366.800 261.800 C 366.800 261.276,366.980 260.736,367.200 260.600 C 367.420 260.464,367.600 259.924,367.600 259.400 C 367.600 258.876,367.780 258.336,368.000 258.200 C 368.220 258.064,368.400 257.423,368.400 256.776 C 368.400 256.129,368.580 255.600,368.800 255.600 C 369.020 255.600,369.200 254.981,369.200 254.224 C 369.200 253.467,369.380 252.736,369.600 252.600 C 369.820 252.464,370.000 251.834,370.000 251.200 C 370.000 250.566,370.161 249.948,370.358 249.826 C 370.555 249.705,370.814 248.929,370.935 248.103 C 371.353 245.241,371.656 243.796,372.005 243.000 C 372.197 242.560,372.448 241.480,372.562 240.600 C 372.676 239.720,372.956 237.920,373.185 236.600 C 374.904 226.676,375.927 208.600,374.700 209.832 " stroke="none" fill="#245494" fill-rule="evenodd"></path><path id="path4" d="M112.499 206.300 L 112.598 300.200 112.700 206.500 L 112.802 112.800 137.600 112.800 L 162.398 112.800 162.500 181.500 L 162.602 250.200 162.701 181.300 L 162.800 112.400 137.600 112.400 L 112.400 112.400 112.499 206.300 M274.977 112.698 L 299.954 112.806 300.111 114.303 L 300.268 115.800 300.234 114.200 L 300.200 112.600 275.100 112.595 L 250.000 112.591 274.977 112.698 M249.456 121.723 C 249.267 125.640,249.204 128.938,249.317 129.050 C 249.654 129.387,250.067 122.065,249.929 118.200 C 249.821 115.181,249.745 115.749,249.456 121.723 M299.576 121.500 C 299.535 124.073,298.818 134.420,298.405 138.400 C 297.696 145.239,297.242 148.462,295.984 155.600 C 294.851 162.031,293.158 169.744,291.813 174.600 C 291.447 175.920,290.907 177.900,290.613 179.000 C 290.319 180.100,289.521 182.729,288.839 184.841 C 287.475 189.069,287.416 189.361,288.000 189.000 C 288.220 188.864,288.400 188.401,288.400 187.971 C 288.400 187.541,288.559 186.877,288.754 186.495 C 289.117 185.782,290.353 181.848,291.109 179.000 C 291.650 176.963,292.413 174.142,292.841 172.600 C 293.172 171.405,294.324 166.406,295.145 162.600 C 295.567 160.645,296.697 154.393,297.568 149.200 C 298.905 141.229,300.573 120.000,299.862 120.000 C 299.718 120.000,299.589 120.675,299.576 121.500 M248.700 131.756 C 248.535 132.832,248.420 134.452,248.444 135.356 L 248.488 137.000 248.851 135.200 C 249.051 134.210,249.166 132.590,249.107 131.600 L 249.000 129.800 248.700 131.756 M247.793 139.314 C 247.644 140.513,247.598 141.833,247.692 142.247 C 247.787 142.661,248.006 141.777,248.180 140.282 C 248.355 138.787,248.400 137.467,248.282 137.348 C 248.163 137.230,247.943 138.114,247.793 139.314 M247.097 144.000 C 246.940 144.550,246.827 145.630,246.846 146.400 L 246.880 147.800 247.255 146.200 C 247.705 144.277,247.567 142.358,247.097 144.000 M246.288 148.533 C 246.130 148.936,246.016 149.836,246.036 150.533 L 246.072 151.800 246.458 150.460 C 246.911 148.885,246.772 147.302,246.288 148.533 M245.474 152.800 C 245.096 154.480,244.762 156.140,244.549 157.400 C 244.437 158.060,244.162 158.978,243.937 159.440 C 243.712 159.902,243.590 160.712,243.665 161.240 C 243.742 161.784,244.297 160.181,244.947 157.540 C 245.577 154.977,246.004 152.637,245.896 152.340 C 245.779 152.019,245.608 152.205,245.474 152.800 M243.067 162.667 C 242.920 162.813,242.800 163.433,242.800 164.043 C 242.800 164.653,242.620 165.264,242.400 165.400 C 242.180 165.536,242.000 166.006,242.000 166.445 C 242.000 167.844,237.986 179.309,235.190 185.896 C 233.483 189.919,228.814 199.645,228.421 200.000 C 228.299 200.110,227.935 200.740,227.612 201.400 C 227.289 202.060,226.524 203.352,225.912 204.272 C 225.301 205.192,224.800 206.054,224.800 206.187 C 224.800 206.748,216.921 218.034,215.995 218.800 C 215.862 218.910,215.494 219.376,215.177 219.835 C 211.218 225.567,194.841 240.400,192.471 240.400 C 192.249 240.400,192.007 240.535,191.933 240.700 C 191.635 241.371,183.968 245.224,181.043 246.173 C 180.626 246.308,180.378 246.511,180.491 246.624 C 181.084 247.217,189.609 242.959,194.800 239.476 C 209.494 229.616,222.993 212.875,232.622 192.569 C 235.268 186.989,235.854 185.691,236.400 184.200 C 236.670 183.463,236.963 182.737,237.973 180.300 C 238.322 179.458,240.452 173.428,241.187 171.200 C 241.368 170.650,241.887 168.940,242.340 167.400 C 243.740 162.639,243.857 161.877,243.067 162.667 M287.246 189.867 C 287.221 190.124,287.084 190.664,286.941 191.067 C 286.740 191.636,286.794 191.697,287.179 191.342 C 287.452 191.091,287.589 190.551,287.484 190.142 C 287.379 189.734,287.272 189.610,287.246 189.867 M285.986 193.473 C 284.425 198.306,280.250 208.221,276.753 215.400 C 274.316 220.404,270.844 226.775,267.162 233.000 C 265.873 235.180,261.539 241.753,261.228 242.000 C 261.090 242.110,260.281 243.190,259.431 244.400 C 253.596 252.704,243.263 264.018,235.200 270.930 C 233.110 272.722,231.310 274.289,231.200 274.413 C 231.090 274.537,230.370 275.071,229.600 275.600 C 228.830 276.129,228.110 276.676,228.000 276.816 C 227.582 277.349,216.879 284.345,214.279 285.785 C 212.783 286.614,211.636 287.370,211.731 287.465 C 212.232 287.965,227.001 278.611,229.200 276.401 C 229.310 276.290,230.210 275.572,231.200 274.806 C 233.980 272.652,234.341 272.351,236.955 270.011 C 250.267 258.091,261.250 244.241,271.694 226.200 C 276.447 217.990,287.463 192.930,286.669 192.135 C 286.565 192.031,286.258 192.633,285.986 193.473 M178.180 247.136 C 177.971 247.320,176.720 247.700,175.400 247.981 C 174.080 248.261,172.550 248.636,172.000 248.813 C 169.704 249.556,172.836 249.188,175.896 248.355 C 179.419 247.397,180.695 246.832,179.380 246.812 C 178.929 246.805,178.389 246.951,178.180 247.136 M165.400 249.600 L 163.400 249.874 166.000 249.890 C 167.430 249.898,169.140 249.768,169.800 249.600 C 171.396 249.194,168.362 249.194,165.400 249.600 M208.800 288.594 C 206.585 289.794,202.593 291.564,199.400 292.763 C 198.080 293.258,196.687 293.830,196.305 294.032 C 195.923 294.234,195.336 294.400,195.000 294.400 C 194.664 294.400,194.077 294.562,193.695 294.761 C 193.313 294.960,192.190 295.344,191.200 295.615 C 185.551 297.162,184.015 297.528,181.000 298.043 C 176.453 298.819,175.238 299.113,176.400 299.159 C 179.912 299.295,193.116 295.820,200.700 292.763 C 201.195 292.563,202.005 292.239,202.500 292.043 C 204.204 291.366,211.200 287.924,211.200 287.762 C 211.200 287.423,210.541 287.652,208.800 288.594 M168.200 299.600 L 165.400 299.859 168.400 299.894 C 170.050 299.914,172.300 299.790,173.400 299.618 L 175.400 299.307 173.200 299.324 C 171.990 299.334,169.740 299.458,168.200 299.600 " stroke="none" fill="#7a9ac2" fill-rule="evenodd"></path></g></svg>