<svg id="svg" version="1.1" xmlns="http://www.w3.org/2000/svg" xmlns:xlink="http://www.w3.org/1999/xlink" width="400" height="427.6169265033408" viewBox="0, 0, 400,427.6169265033408"><g id="svgg"><path id="path0" d="M52.300 122.813 C 15.718 159.436,3.200 172.202,3.200 172.884 L 3.200 173.800 52.475 173.694 C 106.861 173.577,102.525 173.799,103.652 171.071 C 104.215 169.708,106.505 167.200,107.187 167.200 C 107.414 167.200,107.600 167.015,107.600 166.789 C 107.600 166.255,111.055 162.800,111.589 162.800 C 111.815 162.800,112.000 162.614,112.000 162.387 C 112.000 161.849,114.649 159.200,115.187 159.200 C 115.414 159.200,115.600 159.015,115.600 158.789 C 115.600 158.255,119.055 154.800,119.589 154.800 C 119.815 154.800,120.000 154.614,120.000 154.387 C 120.000 153.849,122.649 151.200,123.187 151.200 C 123.414 151.200,123.600 151.014,123.600 150.787 C 123.600 150.249,126.249 147.600,126.787 147.600 C 127.014 147.600,127.200 147.415,127.200 147.189 C 127.200 146.655,130.655 143.200,131.189 143.200 C 131.415 143.200,131.600 143.014,131.600 142.787 C 131.600 142.559,132.224 141.749,132.987 140.987 C 133.749 140.224,134.559 139.600,134.787 139.600 C 135.014 139.600,135.200 139.415,135.200 139.189 C 135.200 138.655,138.655 135.200,139.189 135.200 C 139.415 135.200,139.600 135.014,139.600 134.787 C 139.600 134.559,140.224 133.749,140.987 132.987 C 141.749 132.224,142.559 131.600,142.787 131.600 C 143.014 131.600,143.200 131.414,143.200 131.187 C 143.200 130.959,143.824 130.149,144.587 129.387 C 145.349 128.624,146.159 128.000,146.387 128.000 C 146.614 128.000,146.800 127.815,146.800 127.589 C 146.800 127.364,147.605 126.374,148.589 125.389 C 149.574 124.405,150.564 123.600,150.789 123.600 C 151.015 123.600,151.200 123.414,151.200 123.187 C 151.200 122.959,151.824 122.149,152.587 121.387 C 153.349 120.624,154.159 120.000,154.387 120.000 C 154.614 120.000,154.800 119.815,154.800 119.589 C 154.800 119.055,158.255 115.600,158.789 115.600 C 159.015 115.600,159.200 115.414,159.200 115.187 C 159.200 114.959,159.824 114.149,160.587 113.387 C 161.349 112.624,162.159 112.000,162.387 112.000 C 162.614 112.000,162.800 111.814,162.800 111.587 C 162.800 111.150,165.402 108.400,165.815 108.400 C 166.129 108.400,167.200 107.329,167.200 107.015 C 167.200 106.602,169.950 104.000,170.387 104.000 C 170.614 104.000,170.800 103.814,170.800 103.587 C 170.800 103.359,171.424 102.549,172.187 101.787 C 172.949 101.024,173.759 100.400,173.987 100.400 C 174.214 100.400,174.400 100.215,174.400 99.989 C 174.400 99.455,177.855 96.000,178.389 96.000 C 178.615 96.000,178.800 95.814,178.800 95.587 C 178.800 95.049,181.449 92.400,181.987 92.400 C 182.214 92.400,182.400 92.214,182.400 91.987 C 182.400 91.550,185.002 88.800,185.415 88.800 C 185.729 88.800,186.800 87.729,186.800 87.415 C 186.800 87.002,189.550 84.400,189.987 84.400 C 190.214 84.400,190.400 84.214,190.400 83.987 C 190.400 83.449,193.049 80.800,193.587 80.800 C 193.814 80.800,194.000 80.615,194.000 80.389 C 194.000 79.855,197.455 76.400,197.989 76.400 C 198.215 76.400,198.400 76.130,198.400 75.800 C 198.400 75.271,192.812 75.189,150.900 75.102 L 103.400 75.005 151.400 74.800 L 199.400 74.595 151.500 74.498 C 119.898 74.433,103.600 74.264,103.600 74.000 C 103.600 71.549,101.706 73.351,52.300 122.813 " stroke="none" fill="#04ebfc" fill-rule="evenodd"></path><path id="path1" d="M300.267 73.867 C 300.120 74.013,300.000 96.297,300.000 123.387 C 300.000 161.161,299.888 172.752,299.520 173.120 C 299.149 173.491,276.796 173.600,201.344 173.600 C 147.437 173.600,103.552 173.754,103.435 173.943 C 103.319 174.132,125.181 218.187,152.018 271.843 C 187.199 342.182,200.754 369.648,200.602 370.289 C 200.441 370.965,200.535 371.123,200.995 370.947 C 201.328 370.819,201.600 370.471,201.600 370.173 C 201.600 369.140,299.582 173.692,300.224 173.446 C 300.577 173.311,322.643 173.200,349.259 173.200 C 383.174 173.200,397.894 173.071,398.461 172.768 C 399.344 172.295,398.927 171.679,395.814 168.870 C 395.161 168.282,394.171 167.280,393.614 166.644 C 393.056 166.008,392.260 165.198,391.844 164.844 C 391.428 164.490,390.348 163.414,389.444 162.454 C 388.540 161.493,387.620 160.553,387.400 160.365 C 385.420 158.670,384.721 158.000,384.933 158.000 C 385.070 158.000,384.331 157.235,383.291 156.300 C 382.251 155.365,381.334 154.448,381.254 154.262 C 381.174 154.076,380.557 153.446,379.883 152.862 C 379.209 152.278,378.375 151.486,378.029 151.102 C 377.683 150.718,376.866 149.908,376.214 149.302 C 375.561 148.696,374.571 147.680,374.014 147.044 C 373.456 146.408,372.657 145.598,372.237 145.244 C 371.817 144.890,370.737 143.811,369.837 142.846 C 368.937 141.882,368.020 140.942,367.800 140.758 C 366.103 139.338,365.122 138.400,365.333 138.400 C 365.470 138.400,364.731 137.635,363.691 136.700 C 362.651 135.765,361.734 134.848,361.654 134.662 C 361.574 134.476,360.957 133.846,360.283 133.262 C 359.609 132.678,358.775 131.886,358.429 131.502 C 358.083 131.118,357.266 130.308,356.614 129.702 C 355.961 129.096,354.971 128.080,354.414 127.444 C 353.856 126.808,353.064 125.998,352.654 125.644 C 352.244 125.290,351.164 124.209,350.254 123.241 C 349.344 122.274,348.420 121.334,348.200 121.153 C 346.642 119.868,345.522 118.800,345.733 118.800 C 345.870 118.800,345.131 118.035,344.091 117.100 C 343.051 116.165,342.138 115.260,342.063 115.089 C 341.987 114.917,341.393 114.287,340.741 113.689 C 340.090 113.090,339.252 112.286,338.879 111.902 C 338.505 111.518,337.670 110.708,337.023 110.102 C 336.375 109.496,335.334 108.460,334.710 107.800 C 334.085 107.140,333.395 106.420,333.176 106.200 C 332.957 105.980,331.928 104.925,330.889 103.856 C 329.850 102.787,328.820 101.757,328.600 101.568 C 326.571 99.818,325.911 99.200,326.074 99.200 C 326.178 99.200,324.842 97.805,323.104 96.100 C 321.366 94.395,319.642 92.660,319.272 92.246 C 318.903 91.831,318.066 91.021,317.414 90.446 C 316.761 89.870,315.771 88.880,315.214 88.244 C 314.656 87.608,313.857 86.798,313.437 86.444 C 313.017 86.090,311.937 85.011,311.037 84.046 C 310.137 83.082,309.162 82.092,308.871 81.846 C 308.048 81.151,307.235 80.340,303.869 76.848 C 300.483 73.336,300.655 73.478,300.267 73.867 " stroke="none" fill="#04a4fc" fill-rule="evenodd"></path><path id="path2" d="M103.600 74.000 C 103.600 74.264,119.898 74.433,151.500 74.498 L 199.400 74.595 151.400 74.800 L 103.400 75.005 150.900 75.102 C 192.812 75.189,198.400 75.271,198.400 75.800 C 198.400 76.130,198.215 76.400,197.989 76.400 C 197.455 76.400,194.000 79.855,194.000 80.389 C 194.000 80.615,193.814 80.800,193.587 80.800 C 193.049 80.800,190.400 83.449,190.400 83.987 C 190.400 84.214,190.214 84.400,189.987 84.400 C 189.550 84.400,186.800 87.002,186.800 87.415 C 186.800 87.729,185.729 88.800,185.415 88.800 C 185.002 88.800,182.400 91.550,182.400 91.987 C 182.400 92.214,182.214 92.400,181.987 92.400 C 181.449 92.400,178.800 95.049,178.800 95.587 C 178.800 95.814,178.615 96.000,178.389 96.000 C 177.855 96.000,174.400 99.455,174.400 99.989 C 174.400 100.215,174.214 100.400,173.987 100.400 C 173.759 100.400,172.949 101.024,172.187 101.787 C 171.424 102.549,170.800 103.359,170.800 103.587 C 170.800 103.814,170.614 104.000,170.387 104.000 C 169.950 104.000,167.200 106.602,167.200 107.015 C 167.200 107.329,166.129 108.400,165.815 108.400 C 165.402 108.400,162.800 111.150,162.800 111.587 C 162.800 111.814,162.614 112.000,162.387 112.000 C 162.159 112.000,161.349 112.624,160.587 113.387 C 159.824 114.149,159.200 114.959,159.200 115.187 C 159.200 115.414,159.015 115.600,158.789 115.600 C 158.255 115.600,154.800 119.055,154.800 119.589 C 154.800 119.815,154.614 120.000,154.387 120.000 C 154.159 120.000,153.349 120.624,152.587 121.387 C 151.824 122.149,151.200 122.959,151.200 123.187 C 151.200 123.414,151.015 123.600,150.789 123.600 C 150.255 123.600,146.800 127.055,146.800 127.589 C 146.800 127.815,146.614 128.000,146.387 128.000 C 146.159 128.000,145.349 128.624,144.587 129.387 C 143.824 130.149,143.200 130.959,143.200 131.187 C 143.200 131.414,143.014 131.600,142.787 131.600 C 142.559 131.600,141.749 132.224,140.987 132.987 C 140.224 133.749,139.600 134.559,139.600 134.787 C 139.600 135.014,139.415 135.200,139.189 135.200 C 138.655 135.200,135.200 138.655,135.200 139.189 C 135.200 139.415,135.014 139.600,134.787 139.600 C 134.559 139.600,133.749 140.224,132.987 140.987 C 132.224 141.749,131.600 142.559,131.600 142.787 C 131.600 143.014,131.415 143.200,131.189 143.200 C 130.655 143.200,127.200 146.655,127.200 147.189 C 127.200 147.415,127.014 147.600,126.787 147.600 C 126.249 147.600,123.600 150.249,123.600 150.787 C 123.600 151.014,123.414 151.200,123.187 151.200 C 122.649 151.200,120.000 153.849,120.000 154.387 C 120.000 154.614,119.815 154.800,119.589 154.800 C 119.055 154.800,115.600 158.255,115.600 158.789 C 115.600 159.015,115.414 159.200,115.187 159.200 C 114.649 159.200,112.000 161.849,112.000 162.387 C 112.000 162.614,111.815 162.800,111.589 162.800 C 111.055 162.800,107.600 166.255,107.600 166.789 C 107.600 167.015,107.414 167.200,107.187 167.200 C 106.575 167.200,104.132 169.753,103.829 170.708 C 103.685 171.162,103.201 171.999,102.754 172.567 L 101.942 173.600 53.195 173.600 C 20.606 173.600,4.364 173.735,4.196 174.007 C 4.058 174.230,3.732 174.299,3.472 174.160 C 3.213 174.020,3.523 174.377,4.162 174.953 C 4.801 175.529,5.476 176.000,5.662 176.000 C 5.848 176.000,5.955 176.135,5.900 176.300 C 5.744 176.770,9.692 180.791,10.076 180.553 C 10.265 180.436,10.370 180.564,10.310 180.838 C 10.249 181.111,10.650 181.572,11.200 181.861 C 11.750 182.151,12.091 182.391,11.958 182.394 C 11.824 182.397,13.410 184.155,15.481 186.300 C 17.552 188.445,19.416 190.155,19.623 190.100 C 19.830 190.045,19.955 190.151,19.900 190.336 C 19.755 190.823,25.079 195.987,25.398 195.668 C 25.546 195.521,25.607 195.580,25.534 195.800 C 25.335 196.397,29.263 200.405,29.766 200.119 C 30.005 199.983,30.074 200.012,29.919 200.183 C 29.579 200.561,30.546 201.600,31.238 201.600 C 31.510 201.600,31.636 201.698,31.516 201.817 C 31.222 202.111,42.376 213.426,42.836 213.300 C 43.036 213.245,43.200 213.352,43.200 213.539 C 43.200 214.140,44.672 215.595,44.974 215.293 C 45.135 215.132,45.207 215.186,45.133 215.414 C 44.973 215.913,47.947 219.042,48.448 218.900 C 48.641 218.845,48.755 219.025,48.700 219.300 C 48.645 219.575,48.825 219.755,49.100 219.700 C 49.375 219.645,49.555 219.810,49.500 220.067 C 49.445 220.324,49.850 220.772,50.400 221.061 C 50.950 221.351,51.277 221.591,51.127 221.594 C 50.977 221.597,53.375 224.165,56.456 227.300 C 59.538 230.435,62.226 232.955,62.429 232.900 C 62.633 232.845,62.800 232.952,62.800 233.139 C 62.800 233.740,64.272 235.195,64.574 234.893 C 64.735 234.732,64.807 234.786,64.733 235.014 C 64.573 235.513,67.547 238.642,68.048 238.500 C 68.241 238.445,68.355 238.625,68.300 238.900 C 68.245 239.175,68.425 239.355,68.700 239.300 C 68.975 239.245,69.155 239.410,69.100 239.667 C 69.045 239.924,69.450 240.372,70.000 240.661 C 70.550 240.951,70.870 241.191,70.711 241.194 C 70.551 241.197,72.951 243.765,76.042 246.900 C 79.134 250.035,81.829 252.555,82.032 252.500 C 82.234 252.445,82.400 252.578,82.400 252.795 C 82.400 253.355,87.206 258.221,87.640 258.100 C 87.838 258.045,87.955 258.225,87.900 258.500 C 87.845 258.775,88.025 258.955,88.300 258.900 C 88.575 258.845,88.800 259.076,88.800 259.413 C 88.800 259.750,89.205 260.189,89.700 260.388 C 90.195 260.587,90.452 260.761,90.271 260.775 C 89.892 260.804,90.511 261.439,92.154 262.709 C 92.789 263.199,93.209 263.600,93.088 263.600 C 92.966 263.600,93.954 264.767,95.283 266.193 C 96.632 267.642,97.897 268.673,98.149 268.529 C 98.397 268.388,98.465 268.420,98.300 268.602 C 97.944 268.995,101.222 272.434,101.682 272.149 C 101.857 272.041,102.000 272.133,102.000 272.354 C 102.000 272.892,106.874 277.827,107.280 277.700 C 107.456 277.645,107.555 277.825,107.500 278.100 C 107.445 278.375,107.614 278.559,107.876 278.508 C 108.137 278.458,108.464 278.773,108.603 279.208 C 108.741 279.644,109.142 280.000,109.494 280.000 C 109.845 280.000,110.036 280.097,109.917 280.216 C 109.646 280.487,114.892 285.829,115.300 285.697 C 115.465 285.644,115.600 285.839,115.600 286.130 C 115.600 286.853,117.385 288.482,117.763 288.104 C 117.930 287.937,118.007 287.985,117.933 288.211 C 117.779 288.686,120.822 291.850,121.289 291.700 C 121.460 291.645,121.600 291.766,121.600 291.968 C 121.600 292.486,127.594 298.683,127.625 298.198 C 127.639 297.979,127.813 298.205,128.012 298.700 C 128.211 299.195,128.661 299.600,129.011 299.600 C 129.361 299.600,129.546 299.764,129.422 299.964 C 129.298 300.165,129.953 300.885,130.877 301.564 C 131.801 302.244,132.421 302.800,132.255 302.800 C 132.088 302.800,133.875 304.735,136.226 307.100 C 138.576 309.465,140.657 311.355,140.850 311.300 C 141.042 311.245,141.200 311.357,141.200 311.550 C 141.200 312.110,143.808 314.800,144.352 314.800 C 144.624 314.800,144.752 314.954,144.636 315.142 C 144.348 315.608,146.182 317.284,146.563 316.904 C 146.730 316.737,146.807 316.870,146.733 317.200 C 146.660 317.530,146.825 317.755,147.100 317.700 C 147.375 317.645,147.600 317.876,147.600 318.213 C 147.600 318.550,148.005 318.989,148.500 319.188 C 148.995 319.387,149.252 319.561,149.071 319.575 C 148.692 319.604,149.311 320.239,150.954 321.509 C 151.589 321.999,152.009 322.400,151.888 322.400 C 151.766 322.400,152.754 323.567,154.083 324.993 C 155.432 326.442,156.697 327.473,156.949 327.329 C 157.197 327.188,157.281 327.205,157.136 327.367 C 156.816 327.724,160.073 331.168,160.500 330.924 C 160.665 330.830,160.800 330.921,160.800 331.126 C 160.800 331.729,163.407 334.400,163.995 334.400 C 164.291 334.400,164.428 334.505,164.299 334.634 C 163.960 334.974,165.655 336.814,166.070 336.557 C 166.262 336.438,166.370 336.579,166.310 336.870 C 166.249 337.162,166.425 337.355,166.700 337.300 C 166.975 337.245,167.200 337.476,167.200 337.813 C 167.200 338.150,167.605 338.589,168.100 338.788 C 168.595 338.987,168.852 339.161,168.671 339.175 C 168.292 339.204,168.911 339.839,170.554 341.109 C 171.189 341.599,171.614 342.000,171.500 342.000 C 171.386 342.000,171.999 342.765,172.862 343.700 C 173.725 344.635,174.618 345.351,174.845 345.290 C 175.073 345.230,175.163 345.337,175.045 345.528 C 174.852 345.840,178.542 349.556,179.046 349.558 C 179.159 349.558,179.646 350.063,180.126 350.679 C 181.678 352.670,183.074 354.000,183.610 354.000 C 183.898 354.000,184.028 354.105,183.899 354.234 C 183.560 354.574,185.255 356.414,185.670 356.157 C 185.862 356.038,185.974 356.089,185.917 356.270 C 185.758 356.781,187.308 358.400,187.956 358.400 C 188.273 358.400,188.437 358.497,188.318 358.615 C 188.032 358.902,194.015 365.028,194.456 364.900 C 194.645 364.845,194.755 364.972,194.700 365.182 C 194.645 365.392,195.770 366.668,197.200 368.018 C 200.191 370.841,200.667 370.533,198.818 366.970 C 198.148 365.678,197.600 364.392,197.600 364.111 C 197.600 363.830,197.420 363.600,197.200 363.600 C 196.980 363.600,196.800 363.386,196.800 363.124 C 196.800 362.506,193.893 356.641,193.500 356.467 C 193.335 356.393,193.200 356.085,193.200 355.781 C 193.200 355.477,192.721 354.367,192.136 353.314 C 191.551 352.261,190.943 351.130,190.786 350.800 C 189.863 348.864,188.769 346.646,187.430 344.000 C 186.595 342.350,185.706 340.550,185.456 340.000 C 185.205 339.450,184.415 337.948,183.700 336.662 C 182.985 335.375,182.400 334.070,182.400 333.762 C 182.400 333.453,182.220 333.200,182.000 333.200 C 181.780 333.200,181.600 332.947,181.600 332.637 C 181.600 332.073,178.994 326.936,178.345 326.220 C 178.155 326.011,178.000 325.516,178.000 325.120 C 178.000 324.724,177.820 324.400,177.600 324.400 C 177.380 324.400,177.200 324.186,177.200 323.924 C 177.200 323.306,174.293 317.441,173.900 317.267 C 173.735 317.193,173.600 316.885,173.600 316.581 C 173.600 316.277,173.121 315.167,172.536 314.114 C 171.951 313.061,171.343 311.930,171.186 311.600 C 170.263 309.664,169.169 307.446,167.830 304.800 C 166.995 303.150,166.106 301.350,165.856 300.800 C 165.605 300.250,164.815 298.748,164.100 297.462 C 163.385 296.175,162.800 294.870,162.800 294.562 C 162.800 294.253,162.620 294.000,162.400 294.000 C 162.180 294.000,162.000 293.747,162.000 293.437 C 162.000 292.873,159.394 287.736,158.745 287.020 C 158.555 286.811,158.400 286.316,158.400 285.920 C 158.400 285.524,158.220 285.200,158.000 285.200 C 157.780 285.200,157.600 284.926,157.600 284.592 C 157.600 284.258,157.177 283.313,156.660 282.492 C 156.143 281.671,155.477 280.325,155.180 279.500 C 154.883 278.675,154.495 278.000,154.320 278.000 C 154.144 278.000,154.000 277.736,154.000 277.414 C 154.000 277.092,153.521 275.967,152.936 274.914 C 152.351 273.861,151.743 272.730,151.586 272.400 C 150.663 270.464,149.569 268.246,148.230 265.600 C 147.395 263.950,146.506 262.150,146.256 261.600 C 146.005 261.050,145.215 259.548,144.500 258.262 C 143.785 256.975,143.200 255.670,143.200 255.362 C 143.200 255.053,143.020 254.800,142.800 254.800 C 142.580 254.800,142.400 254.547,142.400 254.237 C 142.400 253.673,139.794 248.536,139.145 247.820 C 138.955 247.611,138.800 247.116,138.800 246.720 C 138.800 246.324,138.620 246.000,138.400 246.000 C 138.180 246.000,138.000 245.726,138.000 245.392 C 138.000 245.058,137.577 244.113,137.060 243.292 C 136.543 242.471,135.877 241.125,135.580 240.300 C 135.283 239.475,134.895 238.800,134.720 238.800 C 134.544 238.800,134.400 238.536,134.400 238.214 C 134.400 237.892,133.921 236.767,133.336 235.714 C 132.751 234.661,132.143 233.530,131.986 233.200 C 131.063 231.264,129.969 229.046,128.630 226.400 C 127.795 224.750,126.906 222.950,126.656 222.400 C 126.405 221.850,125.615 220.348,124.900 219.062 C 124.185 217.775,123.600 216.470,123.600 216.162 C 123.600 215.853,123.420 215.600,123.200 215.600 C 122.980 215.600,122.800 215.347,122.800 215.037 C 122.800 214.473,120.194 209.336,119.545 208.620 C 119.355 208.411,119.200 207.916,119.200 207.520 C 119.200 207.124,119.020 206.800,118.800 206.800 C 118.580 206.800,118.400 206.526,118.400 206.192 C 118.400 205.858,117.977 204.913,117.460 204.092 C 116.943 203.271,116.277 201.925,115.980 201.100 C 115.683 200.275,115.295 199.600,115.120 199.600 C 114.944 199.600,114.800 199.336,114.800 199.014 C 114.800 198.692,114.321 197.567,113.736 196.514 C 113.151 195.461,112.541 194.330,112.380 194.000 C 110.476 190.080,108.225 185.722,107.948 185.420 C 107.757 185.211,107.600 184.716,107.600 184.320 C 107.600 183.924,107.420 183.600,107.200 183.600 C 106.980 183.600,106.800 183.347,106.800 183.038 C 106.800 182.730,106.170 181.362,105.400 180.000 C 104.630 178.638,104.000 177.270,104.000 176.962 C 104.000 176.653,103.820 176.400,103.600 176.400 C 103.380 176.400,103.200 176.051,103.200 175.624 C 103.200 175.197,103.020 174.736,102.799 174.599 C 102.532 174.434,102.537 174.092,102.813 173.576 C 103.222 172.811,104.657 172.800,200.990 172.800 C 254.760 172.800,298.843 172.654,298.953 172.476 C 299.063 172.298,277.204 150.203,250.377 123.377 C 223.549 96.550,201.600 74.376,201.600 74.101 C 201.600 73.703,191.565 73.600,152.600 73.600 C 120.200 73.600,103.600 73.736,103.600 74.000 " stroke="none" fill="#04ccfc" fill-rule="evenodd"></path><path id="path3" d="M304.185 77.105 C 305.277 78.257,306.222 79.200,306.285 79.200 C 306.740 79.200,305.615 77.950,303.588 76.205 C 302.771 75.502,303.017 75.872,304.185 77.105 M307.328 80.195 C 307.375 80.662,307.738 81.025,308.205 81.072 C 308.781 81.132,308.814 81.099,308.325 80.952 C 307.953 80.842,307.558 80.447,307.448 80.075 C 307.301 79.586,307.268 79.619,307.328 80.195 M309.200 81.948 C 309.200 82.120,309.650 82.683,310.200 83.200 C 310.750 83.717,311.200 84.026,311.200 83.888 C 311.200 83.750,310.750 83.186,310.200 82.636 C 309.650 82.086,309.200 81.777,309.200 81.948 M315.232 88.200 C 315.201 88.590,317.721 90.800,318.197 90.800 C 318.329 90.800,317.986 90.350,317.436 89.800 C 316.886 89.250,316.263 88.800,316.052 88.800 C 315.840 88.800,315.576 88.575,315.465 88.300 C 315.354 88.025,315.249 87.980,315.232 88.200 M323.785 96.705 C 324.877 97.857,325.822 98.800,325.885 98.800 C 326.340 98.800,325.215 97.550,323.188 95.805 C 322.371 95.102,322.617 95.472,323.785 96.705 M326.928 99.795 C 326.975 100.262,327.338 100.625,327.805 100.672 C 328.381 100.732,328.414 100.699,327.925 100.552 C 327.553 100.442,327.158 100.047,327.048 99.675 C 326.901 99.186,326.868 99.219,326.928 99.795 M328.800 101.548 C 328.800 101.720,329.250 102.283,329.800 102.800 C 330.350 103.317,330.800 103.626,330.800 103.488 C 330.800 103.350,330.350 102.786,329.800 102.236 C 329.250 101.686,328.800 101.377,328.800 101.548 M334.832 107.800 C 334.801 108.190,337.321 110.400,337.797 110.400 C 337.929 110.400,337.586 109.950,337.036 109.400 C 336.486 108.850,335.863 108.400,335.652 108.400 C 335.440 108.400,335.176 108.175,335.065 107.900 C 334.954 107.625,334.849 107.580,334.832 107.800 M338.528 111.395 C 338.575 111.862,338.938 112.225,339.405 112.272 C 339.981 112.332,340.014 112.299,339.525 112.152 C 339.153 112.042,338.758 111.647,338.648 111.275 C 338.501 110.786,338.468 110.819,338.528 111.395 M341.819 114.801 C 342.091 115.407,345.600 118.666,345.600 118.313 C 345.600 118.065,344.507 116.902,342.862 115.401 C 342.140 114.741,341.670 114.471,341.819 114.801 M346.528 119.395 C 346.575 119.862,346.938 120.225,347.405 120.272 C 347.981 120.332,348.014 120.299,347.525 120.152 C 347.153 120.042,346.758 119.647,346.648 119.275 C 346.501 118.786,346.468 118.819,346.528 119.395 M348.400 121.064 C 348.400 121.282,348.895 121.897,349.500 122.430 L 350.600 123.400 349.600 122.200 C 349.050 121.540,348.555 120.925,348.500 120.833 C 348.445 120.742,348.400 120.845,348.400 121.064 M354.432 127.400 C 354.401 127.790,356.921 130.000,357.397 130.000 C 357.529 130.000,357.186 129.550,356.636 129.000 C 356.086 128.450,355.463 128.000,355.252 128.000 C 355.040 128.000,354.776 127.775,354.665 127.500 C 354.554 127.225,354.449 127.180,354.432 127.400 M358.128 130.995 C 358.175 131.462,358.538 131.825,359.005 131.872 C 359.581 131.932,359.614 131.899,359.125 131.752 C 358.753 131.642,358.358 131.247,358.248 130.875 C 358.101 130.386,358.068 130.419,358.128 130.995 M364.000 137.000 C 364.894 137.951,365.200 138.171,365.200 137.861 C 365.200 137.553,363.684 136.000,363.383 136.000 C 363.206 136.000,363.483 136.450,364.000 137.000 M366.128 138.995 C 366.175 139.462,366.538 139.825,367.005 139.872 C 367.581 139.932,367.614 139.899,367.125 139.752 C 366.753 139.642,366.358 139.247,366.248 138.875 C 366.101 138.386,366.068 138.419,366.128 138.995 M368.000 140.748 C 368.000 140.920,368.450 141.483,369.000 142.000 C 369.550 142.517,370.000 142.826,370.000 142.688 C 370.000 142.550,369.550 141.986,369.000 141.436 C 368.450 140.886,368.000 140.577,368.000 140.748 M371.038 144.200 C 371.677 144.749,372.349 145.199,372.531 145.200 C 372.713 145.200,372.327 144.750,371.673 144.200 C 371.019 143.650,370.348 143.200,370.180 143.200 C 370.013 143.200,370.399 143.650,371.038 144.200 M374.032 147.000 C 374.001 147.390,376.521 149.600,376.997 149.600 C 377.129 149.600,376.786 149.150,376.236 148.600 C 375.686 148.050,375.063 147.600,374.852 147.600 C 374.640 147.600,374.376 147.375,374.265 147.100 C 374.154 146.825,374.049 146.780,374.032 147.000 M377.728 150.595 C 377.775 151.062,378.138 151.425,378.605 151.472 C 379.181 151.532,379.214 151.499,378.725 151.352 C 378.353 151.242,377.958 150.847,377.848 150.475 C 377.701 149.986,377.668 150.019,377.728 150.595 M383.600 156.600 C 384.117 157.150,384.696 157.600,384.888 157.600 C 385.080 157.600,384.786 157.150,384.236 156.600 C 383.686 156.050,383.107 155.600,382.948 155.600 C 382.790 155.600,383.083 156.050,383.600 156.600 M385.728 158.595 C 385.775 159.062,386.138 159.425,386.605 159.472 C 387.181 159.532,387.214 159.499,386.725 159.352 C 386.353 159.242,385.958 158.847,385.848 158.475 C 385.701 157.986,385.668 158.019,385.728 158.595 M387.600 160.212 C 387.600 160.362,388.050 161.019,388.600 161.673 C 389.150 162.327,389.600 162.739,389.600 162.588 C 389.600 162.438,389.150 161.781,388.600 161.127 C 388.050 160.473,387.600 160.061,387.600 160.212 M390.209 163.279 C 390.416 163.819,391.983 164.967,392.186 164.728 C 392.246 164.657,391.779 164.182,391.149 163.671 C 390.518 163.159,390.095 162.983,390.209 163.279 M393.632 166.600 C 393.601 166.990,396.121 169.200,396.597 169.200 C 396.729 169.200,396.386 168.750,395.836 168.200 C 395.286 167.650,394.663 167.200,394.452 167.200 C 394.240 167.200,393.976 166.975,393.865 166.700 C 393.754 166.425,393.649 166.380,393.632 166.600 M398.949 171.918 C 399.702 173.136,397.206 173.200,349.259 173.200 C 322.643 173.200,300.577 173.311,300.224 173.446 C 299.565 173.699,201.600 369.155,201.600 370.216 C 201.600 370.754,201.102 370.984,200.262 370.835 C 200.077 370.802,200.001 371.006,200.094 371.287 C 200.751 373.283,200.423 373.602,300.787 273.246 C 405.004 169.036,401.154 173.008,399.138 171.762 C 398.860 171.590,398.785 171.652,398.949 171.918 " stroke="none" fill="#047cfc" fill-rule="evenodd"></path><path id="path4" d="M201.600 74.101 C 201.600 74.376,223.549 96.550,250.377 123.377 C 277.204 150.203,299.063 172.298,298.953 172.476 C 298.843 172.654,254.760 172.800,200.990 172.800 C 104.657 172.800,103.222 172.811,102.813 173.576 C 102.537 174.092,102.532 174.434,102.799 174.599 C 103.020 174.736,103.200 175.197,103.200 175.624 C 103.200 176.051,103.380 176.400,103.600 176.400 C 103.820 176.400,104.000 176.653,104.000 176.962 C 104.000 177.270,104.630 178.638,105.400 180.000 C 106.170 181.362,106.800 182.730,106.800 183.038 C 106.800 183.347,106.980 183.600,107.200 183.600 C 107.420 183.600,107.600 183.924,107.600 184.320 C 107.600 184.716,107.757 185.211,107.948 185.420 C 108.225 185.722,110.476 190.080,112.380 194.000 C 112.541 194.330,113.151 195.461,113.736 196.514 C 114.321 197.567,114.800 198.692,114.800 199.014 C 114.800 199.336,114.944 199.600,115.120 199.600 C 115.295 199.600,115.683 200.275,115.980 201.100 C 116.277 201.925,116.943 203.271,117.460 204.092 C 117.977 204.913,118.400 205.858,118.400 206.192 C 118.400 206.526,118.580 206.800,118.800 206.800 C 119.020 206.800,119.200 207.124,119.200 207.520 C 119.200 207.916,119.355 208.411,119.545 208.620 C 120.194 209.336,122.800 214.473,122.800 215.037 C 122.800 215.347,122.980 215.600,123.200 215.600 C 123.420 215.600,123.600 215.853,123.600 216.162 C 123.600 216.470,124.185 217.775,124.900 219.062 C 125.615 220.348,126.405 221.850,126.656 222.400 C 126.906 222.950,127.795 224.750,128.630 226.400 C 129.969 229.046,131.063 231.264,131.986 233.200 C 132.143 233.530,132.751 234.661,133.336 235.714 C 133.921 236.767,134.400 237.892,134.400 238.214 C 134.400 238.536,134.544 238.800,134.720 238.800 C 134.895 238.800,135.283 239.475,135.580 240.300 C 135.877 241.125,136.543 242.471,137.060 243.292 C 137.577 244.113,138.000 245.058,138.000 245.392 C 138.000 245.726,138.180 246.000,138.400 246.000 C 138.620 246.000,138.800 246.324,138.800 246.720 C 138.800 247.116,138.955 247.611,139.145 247.820 C 139.794 248.536,142.400 253.673,142.400 254.237 C 142.400 254.547,142.580 254.800,142.800 254.800 C 143.020 254.800,143.200 255.053,143.200 255.362 C 143.200 255.670,143.785 256.975,144.500 258.262 C 145.215 259.548,146.005 261.050,146.256 261.600 C 146.506 262.150,147.395 263.950,148.230 265.600 C 149.569 268.246,150.663 270.464,151.586 272.400 C 151.743 272.730,152.351 273.861,152.936 274.914 C 153.521 275.967,154.000 277.092,154.000 277.414 C 154.000 277.736,154.144 278.000,154.320 278.000 C 154.495 278.000,154.883 278.675,155.180 279.500 C 155.477 280.325,156.143 281.671,156.660 282.492 C 157.177 283.313,157.600 284.258,157.600 284.592 C 157.600 284.926,157.780 285.200,158.000 285.200 C 158.220 285.200,158.400 285.524,158.400 285.920 C 158.400 286.316,158.555 286.811,158.745 287.020 C 159.394 287.736,162.000 292.873,162.000 293.437 C 162.000 293.747,162.180 294.000,162.400 294.000 C 162.620 294.000,162.800 294.253,162.800 294.562 C 162.800 294.870,163.385 296.175,164.100 297.462 C 164.815 298.748,165.605 300.250,165.856 300.800 C 166.106 301.350,166.995 303.150,167.830 304.800 C 169.169 307.446,170.263 309.664,171.186 311.600 C 171.343 311.930,171.951 313.061,172.536 314.114 C 173.121 315.167,173.600 316.277,173.600 316.581 C 173.600 316.885,173.735 317.193,173.900 317.267 C 174.293 317.441,177.200 323.306,177.200 323.924 C 177.200 324.186,177.380 324.400,177.600 324.400 C 177.820 324.400,178.000 324.724,178.000 325.120 C 178.000 325.516,178.155 326.011,178.345 326.220 C 178.994 326.936,181.600 332.073,181.600 332.637 C 181.600 332.947,181.780 333.200,182.000 333.200 C 182.220 333.200,182.400 333.453,182.400 333.762 C 182.400 334.070,182.985 335.375,183.700 336.662 C 184.415 337.948,185.205 339.450,185.456 340.000 C 185.706 340.550,186.595 342.350,187.430 344.000 C 188.769 346.646,189.863 348.864,190.786 350.800 C 190.943 351.130,191.551 352.261,192.136 353.314 C 192.721 354.367,193.200 355.477,193.200 355.781 C 193.200 356.085,193.335 356.393,193.500 356.467 C 193.893 356.641,196.800 362.506,196.800 363.124 C 196.800 363.386,196.980 363.600,197.200 363.600 C 197.420 363.600,197.600 363.830,197.600 364.111 C 197.600 364.392,198.140 365.663,198.800 366.935 C 200.050 369.345,200.426 370.986,199.520 370.080 C 199.256 369.816,198.883 369.600,198.691 369.600 C 198.500 369.600,198.630 369.887,198.982 370.239 C 199.678 370.935,200.802 370.733,200.797 369.913 C 200.795 369.631,178.840 325.499,152.008 271.843 C 125.176 218.187,103.319 174.132,103.435 173.943 C 103.552 173.754,147.451 173.600,201.375 173.600 C 282.679 173.600,299.177 173.510,299.548 173.063 C 299.869 172.676,300.023 158.703,300.097 123.063 L 300.200 73.600 250.900 73.600 C 211.694 73.600,201.600 73.703,201.600 74.101 M14.488 185.592 C 14.760 186.028,15.252 186.488,15.582 186.614 C 15.912 186.741,15.749 186.384,15.221 185.822 C 14.069 184.597,13.817 184.517,14.488 185.592 M34.088 205.192 C 34.360 205.628,34.852 206.088,35.182 206.214 C 35.512 206.341,35.349 205.984,34.821 205.422 C 33.669 204.197,33.417 204.117,34.088 205.192 M53.688 224.792 C 53.960 225.228,54.452 225.688,54.782 225.814 C 55.112 225.941,54.949 225.584,54.421 225.022 C 53.269 223.797,53.017 223.717,53.688 224.792 M91.827 262.859 C 92.252 263.441,92.747 263.828,92.927 263.719 C 93.106 263.609,93.196 263.491,93.127 263.456 C 93.057 263.420,92.562 263.033,92.027 262.596 L 91.055 261.800 91.827 262.859 M131.027 302.059 C 131.452 302.641,131.947 303.028,132.127 302.919 C 132.306 302.809,132.396 302.691,132.327 302.656 C 132.257 302.620,131.762 302.233,131.227 301.796 L 130.255 301.000 131.027 302.059 M150.627 321.659 C 151.052 322.241,151.547 322.628,151.727 322.519 C 151.906 322.409,151.996 322.291,151.927 322.256 C 151.857 322.220,151.362 321.833,150.827 321.396 L 149.855 320.600 150.627 321.659 M170.227 341.259 C 170.652 341.841,171.147 342.228,171.327 342.119 C 171.506 342.009,171.596 341.891,171.527 341.856 C 171.457 341.820,170.962 341.433,170.427 340.996 L 169.455 340.200 170.227 341.259 M179.074 349.859 C 178.931 350.002,179.199 350.452,179.668 350.859 C 180.835 351.871,181.085 351.791,180.166 350.700 C 179.750 350.205,179.392 349.755,179.371 349.700 C 179.350 349.645,179.217 349.717,179.074 349.859 " stroke="none" fill="#04b4fc" fill-rule="evenodd"></path></g></svg>